<svg width="162" height="162" viewBox="0 0 162 162" fill="none" xmlns="http://www.w3.org/2000/svg">
<g filter="url(#filter0_d_446_1171)">
<path d="M134.747 51.5779L138.174 73.2057C143.332 67.9171 144.513 57.6173 144.459 53.1285C144.241 48.3677 140.807 36.3802 127.156 31.367C112.792 26.0916 103.216 31.8271 99.2442 36.3159L91.5724 76.3887L102.59 125.358L115.404 116.217L117.934 55.1689L134.747 51.5779Z" fill="#BB794A"/>
<path d="M49.4357 7.21399C56.0302 6.23462 58.4405 13.716 58.8214 17.5791C62.2764 17.5791 69.5292 17.628 70.9004 17.8239C72.2715 18.0197 77.5076 19.0694 79.1671 19.6135C81.5176 10.8644 87.1145 8.16615 90.4063 7.86689C102.224 11.7844 98.5914 27.775 93.5076 29.658C98.2086 32.6614 100.037 45.1648 100.363 51.0411C109.961 59.3331 103.981 69.7852 99.7919 73.9748L93.0179 77.729L94.8951 78.5452C111.61 95.9128 105.124 105.696 99.7919 108.416C103.84 115.598 102.24 125.882 100.935 130.126L98.5914 137.628L97.3435 139.919C94.6774 142.205 87.0111 146.661 77.6744 146.204C68.3377 145.747 71.3356 139.593 74.0017 136.573H55.3936C55.8506 141.34 40.5125 143.174 32.7863 143.496C17.9267 141.753 28.566 132.895 33.218 132.895C23.0978 125.386 27.3453 114.184 31.5621 110.212V97.8063C20.0055 96.9575 10.9373 85.2317 7.18298 78.7025C7.18298 79.443 6.03354 77.0702 6.26157 76.4232C11.485 61.602 23.4823 73.1527 23.4823 79.443L33.6841 80.912L39.6656 79.443L28.1343 72.0976C26.8829 71.1455 23.9067 67.8863 22.0132 62.4671C20.1197 57.0479 25.305 51.7212 28.1343 49.7352C26.5673 40.4638 36.1869 28.8419 41.1926 24.1898L40.2949 19.3746C40.5941 15.7291 42.8413 8.19337 49.4357 7.21399Z" fill="#CA946A"/>
<path d="M49.4237 7.13386C52.7612 6.63822 55.0404 8.28737 56.5268 10.5362C57.9921 12.7532 58.6931 15.56 58.8947 17.498C60.6243 17.4983 63.2605 17.5107 65.6435 17.5469C68.057 17.5836 70.2197 17.6447 70.9118 17.7436C72.2632 17.9367 77.3613 18.9575 79.1106 19.5104C81.4826 10.795 87.0821 8.08768 90.3988 7.78614L90.4158 7.78455L90.4319 7.78997C96.3842 9.76312 98.4433 14.7801 98.3766 19.527C98.3432 21.8998 97.7792 24.2093 96.9032 26.0453C96.0618 27.8089 94.9256 29.1488 93.6825 29.6766C94.8186 30.453 95.7798 31.7745 96.5892 33.4041C97.4302 35.0973 98.1114 37.1314 98.6549 39.2524C99.7378 43.4781 100.277 48.0594 100.443 51.0028C105.242 55.1637 106.15 59.8703 105.328 64.0626C104.505 68.2561 101.952 71.9304 99.8496 74.033L99.8415 74.0411L99.8315 74.0467L93.2022 77.7206L94.9276 78.4708L94.9426 78.4773L94.9539 78.4891C103.318 87.1804 105.892 93.9886 105.693 98.9771C105.494 103.922 102.572 107.059 99.9038 108.45C101.905 112.045 102.509 116.395 102.453 120.374C102.395 124.382 101.668 128.021 101.012 130.15L101.012 130.151L98.6669 137.661L97.4151 139.959L97.4079 139.972L97.3966 139.982C94.7188 142.277 87.0328 146.744 77.6704 146.286C75.329 146.171 73.7481 145.699 72.74 144.998C71.7277 144.295 71.2987 143.364 71.2555 142.354C71.2125 141.348 71.5517 140.266 72.0649 139.251C72.5486 138.295 73.1898 137.391 73.8224 136.655H55.4814C55.5495 137.859 54.6445 138.862 53.1807 139.692C51.676 140.545 49.551 141.233 47.1769 141.781C42.4271 142.878 36.6555 143.417 32.7896 143.578L32.7831 143.578L32.7767 143.577C29.0582 143.141 26.9117 142.258 25.8714 141.161C25.3488 140.609 25.1057 140.004 25.0846 139.379C25.0635 138.755 25.2633 138.119 25.6143 137.502C26.3155 136.269 27.6297 135.098 29.0561 134.237C30.3892 133.431 31.8332 132.888 32.9833 132.821C28.0496 129.073 26.6102 124.431 26.9322 120.221C27.2564 115.982 29.3662 112.183 31.4805 110.177V97.882C25.7071 97.434 20.5609 94.2883 16.3913 90.445C12.269 86.6454 9.09422 82.1577 7.2025 78.8996C7.18768 78.9118 7.1693 78.9214 7.14623 78.9249C7.09712 78.9324 7.05534 78.9079 7.02939 78.8884C7.00039 78.8667 6.97146 78.8362 6.94347 78.8017C6.83223 78.6646 6.69222 78.4091 6.56217 78.1169C6.43132 77.823 6.30723 77.4842 6.23014 77.1768C6.1916 77.0231 6.16433 76.8754 6.15426 76.744C6.14431 76.614 6.15056 76.4931 6.18455 76.3966C7.49413 72.6807 9.23399 70.6011 11.1202 69.685C13.0085 68.7678 15.0252 69.0254 16.867 69.9438C18.7078 70.8618 20.3805 72.4425 21.593 74.1871C22.7867 75.9048 23.5407 77.7915 23.5627 79.3726L33.6801 80.8293L39.4605 79.4097L28.0904 72.167L28.0876 72.1651L28.0849 72.163C26.8195 71.2002 23.8342 67.9274 21.936 62.4946C20.9779 59.7523 21.8133 57.0391 23.2334 54.7708C24.6398 52.5245 26.6267 50.7027 28.0456 49.6984C27.2803 45.0455 29.3017 39.8218 32.1289 35.1883C34.9558 30.5553 38.5976 26.4965 41.104 24.1614L40.2145 19.3901L40.2126 19.3792L40.2134 19.3684C40.3638 17.5363 41.0032 14.7288 42.4339 12.2542C43.8653 9.77858 46.0941 7.62837 49.4237 7.13386ZM56.3905 10.6261C54.9279 8.41333 52.7046 6.81163 49.4476 7.29534C46.1829 7.78021 43.9908 9.88741 42.5751 12.3358C41.1616 14.7806 40.5274 17.5576 40.3769 19.3711L41.2728 24.1754L41.2811 24.2195L41.2481 24.2501C38.7497 26.572 35.0984 30.6348 32.2682 35.2732C29.4362 39.9147 27.4363 45.1165 28.2148 49.7222L28.2232 49.7729L28.1811 49.8025C26.7734 50.7907 24.7781 52.6113 23.3718 54.8575C21.9653 57.1039 21.1549 59.7638 22.0902 62.4407C23.9773 67.8419 26.9414 71.0864 28.1807 72.0309L39.8704 79.4773L33.7035 80.9918L33.688 80.9956L33.6724 80.9934L23.4006 79.5143V79.4435C23.4006 77.8938 22.6601 76.0086 21.4589 74.2802C20.2587 72.5532 18.6055 70.9932 16.7941 70.0898C14.9837 69.187 13.0218 68.9428 11.1916 69.8318C9.35919 70.7218 7.64063 72.7562 6.33853 76.4508C6.31552 76.5161 6.30776 76.6108 6.31701 76.7316C6.32615 76.8508 6.35128 76.9889 6.38842 77.1371C6.46271 77.4333 6.58322 77.7629 6.71122 78.0505C6.84002 78.3398 6.97304 78.5792 7.07019 78.6989C7.08126 78.7126 7.09153 78.7237 7.10048 78.733C7.101 78.7243 7.10128 78.7144 7.10128 78.7031V78.3973L7.25367 78.6624C9.1278 81.9218 12.3286 86.4783 16.5019 90.325C20.676 94.1723 25.8154 97.3028 31.568 97.7253L31.6437 97.7309V110.247L31.618 110.272C29.5241 112.244 27.4173 116.019 27.095 120.234C26.7731 124.443 28.2302 129.093 33.2666 132.83L33.465 132.977H33.218C32.0761 132.977 30.554 133.522 29.1406 134.376C27.728 135.23 26.4387 136.383 25.7561 137.582C25.4152 138.182 25.228 138.789 25.2478 139.373C25.2675 139.956 25.4929 140.524 25.9898 141.048C26.9879 142.101 29.0821 142.979 32.7893 143.415C36.6496 143.254 42.4065 142.715 47.1403 141.622C49.5093 141.076 51.6161 140.391 53.1002 139.55C54.5892 138.706 55.4216 137.721 55.3123 136.582L55.3037 136.492H74.1826L74.0629 136.628C73.4001 137.379 72.717 138.324 72.2106 139.325C71.7038 140.327 71.3772 141.38 71.4186 142.347C71.4597 143.309 71.8651 144.191 72.8333 144.864C73.8057 145.54 75.3514 146.009 77.6783 146.123C86.9761 146.578 94.6142 142.146 97.2789 139.867L98.5156 137.597L100.857 130.102C101.507 127.987 102.232 124.363 102.289 120.372C102.346 116.38 101.735 112.03 99.7208 108.457L99.6791 108.383L99.7548 108.344C102.399 106.995 105.332 103.893 105.53 98.9706C105.727 94.0478 103.189 87.2847 94.8474 78.6139L92.8335 77.7385L99.742 73.9095C101.827 71.8212 104.354 68.1788 105.168 64.0312C105.981 59.8847 105.085 55.2288 100.31 51.1033L100.284 51.0806L100.282 51.046C100.119 48.1119 99.5806 43.5225 98.4968 39.2931C97.9549 37.1783 97.2771 35.1561 96.443 33.4767C95.6082 31.7959 94.6207 30.4665 93.4636 29.7273L93.3254 29.6389L93.4792 29.582C94.7208 29.1221 95.8887 27.7926 96.7559 25.975C97.6215 24.1608 98.1803 21.8747 98.2134 19.5248C98.2794 14.8307 96.2497 9.89841 90.3968 7.95033C87.138 8.25401 81.5839 10.9329 79.2459 19.6352L79.2234 19.7185L79.1417 19.6917C77.4887 19.1497 72.2578 18.1008 70.8887 17.9052C70.2096 17.8082 68.0604 17.7469 65.641 17.7101C63.2251 17.6734 60.5486 17.6612 58.8214 17.6612H58.7474L58.7401 17.5875C58.5505 15.6645 57.8554 12.8424 56.3905 10.6261Z" fill="black"/>
<path d="M41.3794 38.7936C36.1561 34.8108 32.3474 38.5488 31.096 40.9156L28.6475 50.5461C22.336 55.1709 15.7198 67.3751 39.7471 79.1929L46.2763 80.4987H47.174C39.5567 92.8769 28.6149 120.245 45.7866 130.692C48.3983 134.011 58.29 139.702 76.9634 135.915C74.0253 132.025 71.7401 126.203 75.5759 115.675C79.0818 106.052 77.6979 88.2521 86.1042 80.4987L90.0217 78.7032C109.446 67.6036 101.203 55.5246 94.1025 54.7901C93.7488 50.1652 91.148 40.279 83.5742 37.7327C74.1069 34.5498 65.2925 41.4053 60.9669 44.0986C57.5065 46.2532 54.9546 46.7375 54.1113 46.7103C50.0306 46.5471 47.9086 43.7721 41.3794 38.7936Z" fill="#F8E0BC"/>
<path d="M72.0096 77.4179C73.3154 69.387 81.6401 73.0107 80.824 78.5605C88.202 79.1481 94.9732 88.6061 96.8775 92.8228C90.2667 98.3726 88.9764 94.8297 85.5331 95.8426C80.8397 97.2231 82.7582 98.9439 78.7591 100.087C77.7378 102.314 79.1696 104.956 78.7591 107.105C78.198 110.044 90.2667 110.643 90.2667 111.594C90.2667 122.871 83.3567 117.96 81.1259 115.267L64.7459 113.41C58.2167 121 55.1154 113.083 55.9315 110.145C56.2918 108.848 50.7082 106.391 51.0346 103.779C41.8938 98.556 47.77 92.1357 51.8508 89.5784C54.9195 81.3517 66.5686 78.0436 72.0096 77.4179Z" fill="#71D2B8"/>
<path d="M39.1757 61.319C39.1757 65.1053 36.1064 68.1746 32.3201 68.1746C28.5338 68.1746 25.4645 65.1053 25.4645 61.319C25.4645 57.5327 28.5338 54.4634 32.3201 54.4634C36.1064 54.4634 39.1757 57.5327 39.1757 61.319Z" fill="#ABDAB6"/>
<path d="M90.1033 63.441C90.1033 67.4977 86.4127 70.7863 81.8602 70.7863C77.3077 70.7863 73.6171 67.4977 73.6171 63.441C73.6171 59.3843 77.3077 56.0957 81.8602 56.0957C86.4127 56.0957 90.1033 59.3843 90.1033 63.441Z" fill="#ABDAB6"/>
<path d="M135.971 52.0154C142.63 58.8058 139.616 69.8074 137.276 74.4595C132.837 78.5076 125.742 78.2681 122.749 77.6424L126.095 96.1689C128.446 119.152 110.752 129.141 101.611 131.263V129.713L103.57 124.571C109.038 121.361 118.668 110.158 113.445 91.0272C108.222 71.8967 113.771 58.5174 117.199 54.219C120.681 50.6552 129.311 45.2251 135.971 52.0154Z" fill="#FBE4C3"/>
<path d="M96.8701 25.1739C95.8197 29.7838 92.6944 31.2767 89.1076 30.1044C85.609 28.6664 85.5992 23.7088 87.3545 19.9772C89.1098 16.2457 92.6006 13.17 96.1989 16.5611C97.8194 18.3446 98.6254 21.4424 96.8701 25.1739Z" fill="#FBE4C3"/>
<path d="M90.6827 14.5527C91.1793 14.2416 91.834 14.3918 92.1451 14.8884C92.4562 15.3849 92.3059 16.0396 91.8094 16.3507C89.801 17.609 85.988 21.7574 87.3059 28.0476C87.4261 28.6211 87.0587 29.1835 86.4852 29.3037C85.9117 29.4239 85.3492 29.0563 85.2291 28.4828C83.6742 21.0618 88.1752 16.1237 90.6827 14.5527Z" fill="#462414"/>
<path d="M44.338 8.95491C45.7107 7.3992 49.6247 4.69667 54.2142 6.72805C56.5597 7.76623 58.0052 9.90939 58.8699 11.9924C59.7398 14.088 60.0911 16.2827 60.1499 17.6926C60.1743 18.2781 59.7193 18.7724 59.1339 18.7968C58.5484 18.8212 58.0541 18.3664 58.0297 17.7809C57.9796 16.5791 57.6697 14.6359 56.91 12.8059C56.1451 10.9633 54.9925 9.39298 53.3553 8.66831C49.9792 7.174 47.0049 9.13977 45.9292 10.3589C44.9974 11.4149 43.6673 13.4274 42.8189 15.9326C41.9731 18.4302 41.6286 21.3467 42.5541 24.2725C42.7308 24.8311 42.4213 25.4272 41.8626 25.604C41.3039 25.7807 40.7077 25.471 40.531 24.9123C39.4325 21.4395 39.8633 18.0444 40.809 15.252C41.752 12.4673 43.2294 10.2113 44.338 8.95491Z" fill="#462414"/>
<path d="M60.1458 63.1179C65.3123 62.6944 68.5597 64.7099 69.0313 67.4213C69.1317 67.9986 68.745 68.548 68.1677 68.6484C67.5904 68.7487 67.041 68.3622 66.9406 67.7849C66.7592 66.742 65.1097 64.84 60.3193 65.2327C58.6273 65.3714 57.0691 66.2296 55.7737 67.3303C54.4807 68.4288 53.5328 69.6992 53.0721 70.4994C52.7797 71.0071 52.1311 71.1818 51.6233 70.8894C51.1155 70.5971 50.9409 69.9483 51.2332 69.4405C51.8063 68.4451 52.9071 66.9814 54.3998 65.7131C55.8901 64.4469 57.855 63.3056 60.1458 63.1179Z" fill="#462414"/>
<path d="M52.7849 60.3164C53.3387 60.1248 53.9429 60.4184 54.1346 60.9721C54.3667 61.6424 54.7712 62.6365 55.22 63.4357C55.4472 63.8402 55.6584 64.1449 55.8331 64.3307C55.875 64.3753 55.9077 64.4058 55.9314 64.4259C56.438 64.4762 56.8488 64.8861 56.8838 65.4108C56.9228 65.9955 56.4805 66.501 55.8959 66.54C55.1429 66.5902 54.5853 66.1015 54.2872 65.7845C53.9416 65.417 53.6324 64.9422 53.37 64.4748C52.8394 63.5302 52.3869 62.4104 52.1293 61.6661C51.9377 61.1124 52.2312 60.5081 52.7849 60.3164Z" fill="#462414"/>
<path d="M128.34 61.1132C128.904 60.9554 129.49 61.285 129.647 61.8493C129.805 62.4136 129.476 62.999 128.911 63.1567C125.802 64.026 124.205 67.3322 123.712 71.8798C123.232 76.3099 123.874 81.4148 124.746 85.0048C126.261 89.0682 128.255 99.9991 124.751 112.692C122.937 119.266 118.681 123.85 114.158 126.897C109.647 129.936 104.815 131.486 101.697 131.984C101.118 132.076 100.574 131.682 100.482 131.103C100.389 130.525 100.784 129.981 101.362 129.888C104.202 129.434 108.739 127.989 112.973 125.137C117.195 122.292 121.06 118.09 122.706 112.127C126.104 99.8183 124.102 89.2973 122.736 85.6892L122.713 85.6285L122.698 85.5654C121.781 81.8129 121.086 76.42 121.603 71.6512C122.11 66.9764 123.859 62.3659 128.34 61.1132Z" fill="#462414"/>
<path d="M105.72 30.7847C110.028 28.8702 115.824 27.665 122.721 29.1036C128.287 30.2646 132.816 33.2451 136.203 36.4588C139.575 39.6585 141.864 43.1359 142.957 45.4156C144.378 48.2289 146.638 55.7394 144.674 63.9332C142.682 72.2459 136.091 76.9421 132.97 78.2868C130.819 79.2689 128.573 79.4978 126.65 79.3741C124.732 79.2509 123.062 78.7729 122.036 78.2675C121.51 78.0087 121.294 77.3726 121.552 76.8469C121.811 76.3212 122.447 76.105 122.973 76.3638C123.715 76.7289 125.106 77.1486 126.786 77.2566C128.455 77.3639 130.339 77.1586 132.101 76.351L132.112 76.3458L132.124 76.3408C134.828 75.1782 140.818 70.9195 142.611 63.4387C144.434 55.8319 142.308 48.8367 141.063 46.3723L141.058 46.3619L141.053 46.3516C140.075 44.3052 137.936 41.0282 134.743 37.9982C131.554 34.9725 127.364 32.2399 122.288 31.181C115.882 29.8447 110.538 30.9657 106.582 32.7238C102.588 34.4986 100.066 36.8957 99.3024 38.0071C98.9704 38.49 98.3098 38.6123 97.8269 38.2803C97.3441 37.9484 97.2218 37.2878 97.5537 36.8049C98.5852 35.3046 101.45 32.6825 105.72 30.7847Z" fill="#462414"/>
<path d="M83.3357 9.99986C86.0939 7.74662 89.2817 7.31024 91.44 7.6214C94.1012 7.79382 98.7396 10.3555 99.5649 18.1966C100.197 24.1999 97.7453 28.0513 95.3817 30.0592C98.1563 33.5222 99.8196 37.6413 100.779 41.4233C101.756 45.2751 102.019 48.8443 101.953 51.144C105.42 55.1515 107.065 58.8835 107.292 62.323C107.527 65.8697 106.243 68.9498 104.187 71.5236C100.122 76.6103 92.9219 79.8776 87.6135 81.3567C87.049 81.514 86.4638 81.184 86.3065 80.6195C86.1493 80.0551 86.4794 79.47 87.0438 79.3127C92.182 77.881 98.8729 74.774 102.529 70.199C104.333 67.9418 105.367 65.3691 105.175 62.4629C104.982 59.5418 103.539 56.1292 100.083 52.2284L99.7953 51.9042L99.817 51.4714C99.9204 49.4147 99.7108 45.8437 98.722 41.9448C97.7973 38.2987 96.208 34.4322 93.6186 31.2535C93.4791 31.3246 93.3439 31.3882 93.2133 31.444C92.6744 31.674 92.051 31.4235 91.821 30.8846C91.591 30.3457 91.8414 29.7224 92.3803 29.4924C94.2297 28.703 98.1844 25.3498 97.4548 18.4186C96.719 11.429 92.7556 9.81461 91.272 9.73653L91.221 9.73382L91.1704 9.72632C89.5205 9.47884 86.9309 9.80288 84.6782 11.6432C82.4507 13.4629 80.4104 16.8844 80.0633 23.1004C80.0306 23.6855 79.5298 24.1332 78.9448 24.1005C78.3598 24.0679 77.9119 23.5671 77.9446 22.982C78.3157 16.3357 80.5331 12.2894 83.3357 9.99986Z" fill="#462414"/>
<path d="M45.2828 20.9655C58.7249 13.7068 73.8308 16.8771 79.7429 19.3708C80.2828 19.5985 80.5358 20.2209 80.3081 20.7608C80.0803 21.3006 79.458 21.5537 78.9181 21.326C73.3497 18.9773 58.9656 15.9883 46.291 22.8325C40.0047 26.2272 35.9245 31.4886 33.3766 36.7292C30.824 41.9797 29.8379 47.1535 29.7078 50.2637L29.6839 50.8369L29.1912 51.1307C27.8436 51.9343 25.789 53.6918 24.44 56.1227C23.1106 58.5183 22.4755 61.5393 23.8406 65.0115C25.6312 69.5657 28.3089 72.5624 32.0404 74.7471C35.8181 76.9589 40.7116 78.3606 46.9757 79.6215C47.5501 79.7372 47.9219 80.2965 47.8063 80.8709C47.6907 81.4454 47.1314 81.8174 46.5569 81.7017C40.2524 80.4327 35.0663 78.9778 30.9682 76.5784C26.8239 74.1519 23.8295 70.7825 21.8658 65.7878C20.2275 61.621 21.007 57.9359 22.5845 55.0931C23.9925 52.556 26.0428 50.6675 27.6187 49.6154C27.847 46.201 28.927 41.0283 31.4683 35.8013C34.1574 30.2701 38.5108 24.6223 45.2828 20.9655Z" fill="#462414"/>
<path d="M82.0686 140.543C82.5773 140.253 83.2254 140.429 83.5161 140.938C83.8068 141.447 83.63 142.095 83.1213 142.386C82.9622 142.477 82.6394 142.764 82.4679 143.283C82.3058 143.773 82.2524 144.556 82.7502 145.69C82.9857 146.226 82.7418 146.852 82.2053 147.088C81.6688 147.324 81.0428 147.08 80.8072 146.543C80.1298 145 80.1037 143.674 80.453 142.617C80.7929 141.588 81.4659 140.888 82.0686 140.543Z" fill="#462414"/>
<path d="M74.6912 115.905C75.0145 115.417 75.6728 115.283 76.1615 115.606C76.6502 115.929 76.7843 116.587 76.4611 117.076C75.3719 118.723 74.1027 121.582 73.88 124.715C73.66 127.81 74.4566 131.138 77.4412 133.914C77.8703 134.313 77.8947 134.984 77.4956 135.413C77.0966 135.842 76.4253 135.867 75.9962 135.468C72.4517 132.171 71.5072 128.167 71.7633 124.565C72.0166 121 73.4408 117.796 74.6912 115.905Z" fill="#462414"/>
<path d="M99.6188 107.446C100.152 107.202 100.781 107.436 101.025 107.969C106.929 120.867 102.79 131.701 99.4936 136.201C100.091 137.405 99.7351 138.721 99.2262 139.698C98.5965 140.907 97.5695 141.978 96.8253 142.603L96.765 142.654L96.6978 142.695C94.1579 144.254 87.0339 147.303 78.2117 147.503C75.9594 147.555 74.2454 147.222 73.0064 146.537C71.7233 145.827 71.0152 144.772 70.765 143.582C70.5249 142.44 70.7201 141.249 71.0682 140.202C71.4197 139.145 71.9548 138.15 72.496 137.357L72.5124 137.333L72.5301 137.31C73.9315 135.48 75.8723 134.765 77.6414 134.595C79.3905 134.427 81.0477 134.779 82.073 135.167C82.6209 135.375 82.8969 135.987 82.6894 136.535C82.4818 137.083 81.8692 137.359 81.3212 137.152C80.551 136.86 79.2212 136.575 77.8445 136.707C76.4951 136.837 75.1784 137.355 74.2305 138.58C73.7853 139.237 73.3565 140.045 73.0818 140.871C72.8 141.719 72.7071 142.505 72.8417 143.146C72.9664 143.738 73.2958 144.272 74.0338 144.68C74.8159 145.113 76.1067 145.429 78.1636 145.382C86.4934 145.193 93.2028 142.325 95.5183 140.929C96.1264 140.407 96.9002 139.57 97.3443 138.718C97.8133 137.817 97.7598 137.264 97.4047 136.88L96.7736 136.199L97.3658 135.483C100.278 131.963 104.907 121.548 99.0957 108.852C98.8518 108.319 99.086 107.69 99.6188 107.446Z" fill="#462414"/>
<path d="M76.5552 139.649C77.017 139.288 77.6838 139.37 78.0445 139.832C78.4053 140.293 78.3234 140.96 77.8617 141.321C77.2746 141.78 76.0381 143.439 76.9048 145.931C77.0973 146.484 76.8047 147.089 76.2512 147.282C75.6978 147.474 75.0931 147.182 74.9006 146.628C73.678 143.113 75.4012 140.55 76.5552 139.649Z" fill="#462414"/>
<path d="M37.2247 84.9818C37.5433 84.49 38.2002 84.3496 38.692 84.6682C39.1838 84.9868 39.3241 85.6437 39.0056 86.1355C37.6535 88.2228 35.6994 91.9737 34.2961 96.3592C32.8899 100.754 32.0691 105.687 32.8752 110.182L32.9873 110.808L32.4887 111.202C30.1973 113.013 27.8172 117.008 27.7376 121.291C27.6984 123.403 28.2184 125.573 29.5765 127.598C30.9369 129.626 33.1787 131.569 36.6757 133.153L35.9138 135.13C34.3292 134.621 31.5158 134.609 29.3027 135.466C28.2126 135.888 27.3637 136.484 26.856 137.235C26.369 137.955 26.1255 138.918 26.4195 140.258C26.4591 140.438 26.6595 140.848 27.4104 141.297C28.1538 141.742 29.3636 142.175 31.2161 142.407C34.9192 142.872 40.9867 142.511 50.4715 140.118C51.1717 139.894 52.3085 139.412 53.2711 138.708C53.9579 138.206 54.4585 137.665 54.722 137.102C53.8048 136.801 52.9222 136.462 52.088 136.105C49.1909 134.863 46.8051 133.371 45.4695 132.351C45.0038 131.995 44.9146 131.33 45.2701 130.864C45.6257 130.398 46.2915 130.309 46.7572 130.664C47.9517 131.576 50.1854 132.981 52.9237 134.154C55.6656 135.329 58.8436 136.241 61.9466 136.241C68.4629 136.241 74.2287 135.379 76.2582 134.958C76.8319 134.838 77.3936 135.207 77.5128 135.781C77.632 136.354 77.2636 136.916 76.6898 137.035C74.5297 137.484 68.6191 138.363 61.9466 138.363C60.195 138.363 58.4478 138.107 56.7762 137.695C56.3291 138.865 55.4126 139.771 54.5237 140.421C53.3149 141.305 51.9378 141.881 51.085 142.15L51.0554 142.159L51.0252 142.167C41.3992 144.598 35.0306 145.025 30.952 144.513C28.9115 144.257 27.3933 143.76 26.3209 143.118C25.2558 142.481 24.5522 141.648 24.347 140.713C23.9423 138.869 24.2507 137.299 25.0984 136.046C25.9253 134.823 27.1938 134.007 28.5364 133.487C29.5344 133.101 30.6259 132.858 31.709 132.741C30.0477 131.533 28.7656 130.198 27.8141 128.78C26.1903 126.358 25.5697 123.753 25.6161 121.252C25.7026 116.598 28.0966 112.265 30.6866 109.947C29.9712 105.153 30.8748 100.089 32.2751 95.7127C33.7379 91.141 35.7747 87.2201 37.2247 84.9818Z" fill="#462414"/>
<path d="M33.2543 49.6186C33.406 49.0526 33.9877 48.7168 34.5537 48.8685C37.1479 49.5638 43.6362 50.8644 48.8235 50.5481C49.4084 50.5124 49.9115 50.9577 49.9472 51.5426C49.9828 52.1275 49.5375 52.6306 48.9527 52.6663C43.4322 53.0029 36.688 51.6374 34.0044 50.9181C33.4384 50.7664 33.1026 50.1846 33.2543 49.6186Z" fill="#462414"/>
<path d="M47.664 54.6273C47.664 56.9711 45.865 58.8712 43.7465 58.8712C41.628 58.8712 39.9922 56.9711 39.9922 54.6273C39.9922 52.2834 39.9922 50.5465 43.7465 50.3833C48.3169 50.9546 47.664 52.2834 47.664 54.6273Z" fill="#462414"/>
<path d="M60.3152 51.526C60.3426 50.9407 60.8394 50.4884 61.4247 50.5158C64.4807 50.659 72.0523 50.586 77.8744 49.1827C78.444 49.0454 79.0171 49.396 79.1544 49.9656C79.2917 50.5353 78.9412 51.1084 78.3716 51.2457C72.2662 52.7174 64.4649 52.7827 61.3254 52.6356C60.7401 52.6081 60.2878 52.1113 60.3152 51.526Z" fill="#462414"/>
<path d="M77.045 52.3414C77.9906 56.2589 75.4127 58.5441 73.2091 58.789C70.3526 59.0338 69.2916 57.6464 68.8835 55.3611C68.4755 53.0759 68.4049 51.1458 72.0665 50.301C77.8424 50.301 76.0994 48.4239 77.045 52.3414Z" fill="#462414"/>
<path d="M58.1105 57.2384C58.5535 58.7891 55.7549 62.0537 53.0504 62.0537C50.3459 62.0537 48.1535 59.6492 48.1535 57.8913C48.1535 56.1334 50.6724 55.4429 53.3768 55.4429C56.0813 55.4429 57.784 56.0958 58.1105 57.2384Z" fill="#462414"/>
<path d="M16.3294 70.4338C16.3887 69.8509 16.9093 69.4263 17.4923 69.4855C19.9255 69.7329 21.5489 71.5105 22.5613 73.323C23.4359 74.8887 23.9557 76.6483 24.207 77.9933C28.7167 79.573 31.2733 80.0295 33.1019 79.8989C34.9569 79.7664 36.1524 79.0341 38.1518 77.8677C38.6579 77.5725 39.3076 77.7434 39.6028 78.2495C39.8981 78.7556 39.7272 79.4053 39.2211 79.7006C37.303 80.8194 35.6828 81.8419 33.253 82.0154C30.8748 82.1853 27.819 81.5444 22.9034 79.783L22.2973 79.5659L22.21 78.9279C22.0463 77.7317 21.5722 75.9034 20.7089 74.3578C19.8347 72.7928 18.6966 71.741 17.2777 71.5966C16.6948 71.5374 16.2702 71.0167 16.3294 70.4338Z" fill="#462414"/>
<path d="M9.07726 69.5079C9.90518 68.6363 11.9037 67.7335 14.8324 68.361C16.6091 68.7418 17.6482 69.9183 18.1979 71.1433C18.7318 72.3333 18.8341 73.6156 18.7693 74.4584C18.7244 75.0426 18.2143 75.4798 17.6301 75.4349C17.0458 75.3899 16.6086 74.8799 16.6536 74.2956C16.6975 73.7238 16.6202 72.8106 16.2619 72.012C15.9192 71.2483 15.3532 70.6429 14.3878 70.436C11.9456 69.9127 10.7629 70.7956 10.6032 70.9834L10.5216 71.0793L10.4199 71.1535C9.37405 71.9161 7.29235 74.5107 8.21504 78.3744C8.4866 79.5116 9.4091 81.1694 10.9324 83.0923C12.4329 84.9865 14.4412 87.0444 16.7586 88.9772C21.4231 92.8677 27.184 96.1234 32.4291 96.6633C33.012 96.7233 33.4358 97.2446 33.3758 97.8274C33.3158 98.4103 32.7947 98.8341 32.2118 98.7741C26.3573 98.1715 20.2023 94.6123 15.3995 90.6066C12.9833 88.5913 10.87 86.4307 9.26918 84.4099C7.69113 82.4179 6.53244 80.4643 6.15108 78.8673C5.0071 74.0769 7.50352 70.7132 9.07726 69.5079Z" fill="#462414"/>
<path d="M13.8009 73.449C14.6458 73.008 15.7576 72.7137 16.9893 73.0216C19.1901 73.5718 20.2744 75.1979 20.5829 76.1265C20.9421 76.9885 21.1426 78.8068 19.7262 80.3897C19.3355 80.8264 18.6649 80.8636 18.2282 80.4729C17.7915 80.0822 17.7542 79.4115 18.145 78.9748C18.9134 78.116 18.7353 77.1888 18.6209 76.9346L18.5932 76.8729L18.5734 76.8082C18.4713 76.4727 17.8787 75.4311 16.4747 75.0801C15.8783 74.931 15.3035 75.0583 14.7827 75.3301C14.2497 75.6082 13.8432 76.0045 13.6555 76.2484C13.2983 76.7128 12.6321 76.7998 12.1676 76.4426C11.7032 76.0853 11.6163 75.4191 11.9735 74.9547C12.33 74.4913 12.9682 73.8836 13.8009 73.449Z" fill="#462414"/>
<path d="M17.4975 79.1723C17.8636 78.9771 18.2561 78.9596 18.6031 79.0607C19.1826 79.2296 19.5822 79.7102 19.8084 80.0217C20.3223 80.7295 20.7544 81.7455 20.9966 82.4292C21.1922 82.9815 20.903 83.5879 20.3507 83.7835C19.7984 83.9791 19.192 83.6899 18.9964 83.1376C18.7923 82.5614 18.4757 81.8432 18.1651 81.3754C17.8607 81.5192 17.4931 81.5162 17.1797 81.3347C16.6726 81.0411 16.4995 80.3921 16.7931 79.885C16.9411 79.6293 17.1627 79.3508 17.4975 79.1723Z" fill="#462414"/>
<path d="M96.9959 91.1251C97.4372 90.7397 98.1076 90.7851 98.493 91.2264C98.8784 91.6678 98.8329 92.3381 98.3916 92.7236C97.4226 93.5698 95.8129 94.9528 94.3569 96.0871C93.6327 96.6514 92.9219 97.1734 92.3363 97.5382C92.048 97.7178 91.7529 97.8828 91.4808 97.9923C91.3459 98.0466 91.178 98.1032 90.9953 98.1302C90.8303 98.1546 90.5211 98.1754 90.2003 98.015C89.6674 97.7485 88.334 96.9157 86.8589 96.6941C86.1506 96.5878 85.5141 96.645 84.9834 96.9181C84.4714 97.1815 83.9237 97.7144 83.5068 98.826C83.3011 99.3747 82.6895 99.6526 82.1409 99.4469C81.5922 99.2411 81.3142 98.6296 81.52 98.081C82.0825 96.5809 82.9407 95.5826 84.0126 95.0311C85.0657 94.4893 86.191 94.4481 87.1742 94.5958C88.7313 94.8296 90.195 95.596 90.8434 95.951C90.9399 95.9011 91.0633 95.8311 91.2144 95.7369C91.7043 95.4318 92.3453 94.9642 93.0527 94.4131C94.46 93.3166 96.0333 91.9656 96.9959 91.1251Z" fill="#462414"/>
<path d="M78.1223 99.5519C79.3097 98.1886 80.8919 97.9439 82.2325 98.1217C83.5462 98.296 84.7481 98.8803 85.4732 99.3689C85.9591 99.6964 86.0874 100.356 85.7599 100.842C85.4325 101.328 84.7731 101.456 84.2872 101.129C83.7608 100.774 82.8652 100.346 81.9535 100.225C81.0688 100.108 80.2978 100.285 79.7224 100.946C79.3369 101.388 79.2701 101.74 79.2963 102.014C79.326 102.325 79.4933 102.694 79.8395 103.098C80.5503 103.925 81.7389 104.573 82.5258 104.769C83.0943 104.911 83.4399 105.487 83.2978 106.056C83.1557 106.624 82.5797 106.97 82.0112 106.828C80.8394 106.535 79.2531 105.672 78.2296 104.48C77.7087 103.873 77.2689 103.105 77.1839 102.215C77.0953 101.288 77.406 100.374 78.1223 99.5519Z" fill="#462414"/>
<path d="M93.4478 77.8578C93.8696 77.4511 94.5412 77.4632 94.948 77.8849C101.627 84.8102 104.816 89.386 106.281 92.7428C107.783 96.1853 107.45 98.3173 107.322 100.082C107.221 101.469 106.547 102.987 105.514 104.424C104.47 105.877 103.005 107.323 101.205 108.569C97.6032 111.064 92.5968 112.802 86.8036 112.159C82.1567 111.642 79.538 110.293 78.325 108.545C77.0726 106.74 77.5103 104.802 78.3099 103.705C78.655 103.232 79.3186 103.128 79.7922 103.473C80.2657 103.818 80.3698 104.481 80.0248 104.955C79.6545 105.463 79.4241 106.407 80.0684 107.335C80.7523 108.321 82.5952 109.556 87.0379 110.05C92.2626 110.63 96.7642 109.064 99.9972 106.825C101.615 105.704 102.9 104.425 103.791 103.185C104.694 101.93 105.143 100.785 105.205 99.9276C105.332 98.1766 105.611 96.5136 104.336 93.5916C103.023 90.5839 100.044 86.2258 93.4207 79.3581C93.0139 78.9364 93.0261 78.2646 93.4478 77.8578Z" fill="#462414"/>
<path d="M52.0303 40.5427C52.1913 39.9793 52.7786 39.6531 53.342 39.814C53.9054 39.975 54.2316 40.5624 54.0706 41.1258C53.9428 41.5732 53.7705 42.2762 53.6702 42.9148C53.6197 43.2363 53.5924 43.5111 53.5911 43.7153C53.5907 43.7953 53.5943 43.8501 53.5982 43.8835C53.8306 44.3647 53.6683 44.9536 53.2048 45.2433C52.7079 45.5539 52.0533 45.4029 51.7427 44.906C51.5986 44.6754 51.5383 44.4338 51.5087 44.2577C51.4773 44.0707 51.4682 43.8796 51.4693 43.7024C51.4715 43.3484 51.5156 42.9571 51.5739 42.5856C51.6913 41.8381 51.8861 41.0474 52.0303 40.5427Z" fill="#462414"/>
<path d="M56.5799 40.1391C56.693 39.5642 57.2508 39.1898 57.8258 39.3029C58.4007 39.416 58.7751 39.9738 58.662 40.5488C58.5113 41.3148 58.3831 42.4954 58.4737 43.5258C58.5192 44.0423 58.6148 44.4595 58.7479 44.7529C58.8781 45.0397 59.0025 45.1241 59.076 45.1535C59.62 45.3711 59.8847 45.9886 59.667 46.5326C59.4494 47.0767 58.8319 47.3413 58.2879 47.1237C57.5452 46.8266 57.0881 46.2308 56.8153 45.6293C56.5455 45.0343 56.4166 44.3547 56.3601 43.7117C56.2467 42.4229 56.4041 41.0325 56.5799 40.1391Z" fill="#462414"/>
<path d="M70.0106 82.3909C72.3473 81.9919 78.2253 81.6682 83.2966 83.5871C83.8446 83.7945 84.1207 84.4069 83.9133 84.9549C83.7059 85.5029 83.0935 85.7792 82.5455 85.5718C77.9536 83.8344 72.4926 84.12 70.3677 84.4827C69.7901 84.5813 69.2419 84.193 69.1433 83.6154C69.0447 83.0378 69.433 82.4895 70.0106 82.3909Z" fill="#421F10"/>
<path d="M71.4942 76.5028C72.0784 76.4572 72.5889 76.8938 72.6346 77.478C72.6802 78.0622 72.2435 78.5727 71.6593 78.6184C59.5615 79.5636 54.2765 86.8586 53.1567 90.145C52.9677 90.6996 52.3649 90.996 51.8102 90.807C51.2556 90.618 50.9593 90.0152 51.1482 89.4605C52.5313 85.4016 58.5201 77.5164 71.4942 76.5028Z" fill="#421F10"/>
<path d="M76.4961 71.5209C80.0893 71.5973 81.6671 73.9444 81.9917 75.3442L82.01 75.4207C82.1989 76.2458 82.3679 78.1047 81.5938 79.7303C81.3418 80.2593 80.7088 80.4839 80.1797 80.232C79.6507 79.98 79.426 79.3469 79.6779 78.8179C80.1846 77.7537 80.064 76.383 79.933 75.8587L79.9296 75.8452L79.9266 75.8316C79.8016 75.2692 78.9718 73.696 76.451 73.6424C75.0597 73.6128 74.2062 74.3858 73.7221 75.4266C73.4751 75.9577 73.3417 76.5345 73.3088 77.0455C73.2742 77.5831 73.3569 77.932 73.4234 78.065C73.6855 78.5891 73.473 79.2264 72.9489 79.4885C72.4248 79.7505 71.7874 79.5381 71.5254 79.014C71.2246 78.4124 71.1441 77.6391 71.1911 76.9092C71.2398 76.1526 71.4329 75.3165 71.798 74.5317C72.5381 72.9404 74.0514 71.4689 76.4961 71.5209Z" fill="#421F10"/>
<path d="M80.0273 78.0732C80.1946 77.5117 80.7856 77.1921 81.3471 77.3594C83.5209 78.0072 86.8595 79.5157 89.9444 81.9623C93.0324 84.4114 95.9373 87.8588 97.0895 92.3977C97.2337 92.9656 96.8902 93.5429 96.3223 93.6871C95.7544 93.8313 95.1771 93.4878 95.0329 92.9199C94.0304 88.9709 91.4807 85.8891 88.6258 83.6249C85.7678 81.3583 82.6752 79.9695 80.7411 79.3931C80.1795 79.2257 79.8599 78.6348 80.0273 78.0732Z" fill="#421F10"/>
<path d="M51.1528 102.697C51.7387 102.686 52.2228 103.152 52.234 103.738C52.2517 104.658 53.2364 107.697 57.9571 109.72C58.4957 109.951 58.7452 110.575 58.5144 111.113C58.2836 111.652 57.6598 111.902 57.1212 111.671C51.787 109.385 50.1491 105.688 50.1124 103.779C50.1011 103.193 50.567 102.709 51.1528 102.697Z" fill="#421F10"/>
<path d="M55.3929 109.861C55.5832 109.307 56.1866 109.012 56.7408 109.202C57.295 109.393 57.5902 109.996 57.4 110.55C57.1203 111.365 56.9122 112.557 57.0976 113.521C57.1872 113.987 57.3569 114.34 57.5954 114.587C57.8222 114.822 58.1828 115.037 58.8056 115.11C60.8754 115.353 61.5626 115.199 61.9721 114.966C62.1923 114.841 62.4029 114.653 62.7236 114.306C63.0215 113.985 63.444 113.492 63.9709 112.965L64.436 112.5L65.0595 112.709C67.8697 113.655 75.1414 115.166 81.5356 113.662C82.106 113.528 82.6771 113.881 82.8113 114.452C82.9455 115.022 82.592 115.593 82.0216 115.727C75.5471 117.251 68.3938 115.931 65.029 114.925C64.7586 115.216 64.5312 115.477 64.2803 115.748C63.9277 116.129 63.5365 116.517 63.0221 116.81C61.9626 117.413 60.6502 117.463 58.5577 117.217C57.5156 117.095 56.6797 116.694 56.0681 116.06C55.4682 115.439 55.1575 114.669 55.0138 113.922C54.7327 112.46 55.0469 110.869 55.3929 109.861Z" fill="#421F10"/>
<path d="M89.9749 110.7C90.5585 110.648 91.0739 111.079 91.1261 111.662C91.3012 113.621 90.8697 115.584 89.8683 117.107C88.8532 118.652 87.2451 119.742 85.1762 119.832C83.4608 119.906 82.2332 119.174 81.4422 118.225C80.6848 117.317 80.3359 116.229 80.2369 115.475C80.1606 114.895 80.5697 114.362 81.1506 114.285C81.7316 114.209 82.2644 114.618 82.3407 115.199C82.3986 115.639 82.622 116.327 83.0719 116.866C83.4882 117.366 84.103 117.754 85.0844 117.712C86.3866 117.655 87.4049 116.992 88.0951 115.942C88.7987 114.872 89.1511 113.4 89.0126 111.851C88.9604 111.268 89.3913 110.752 89.9749 110.7Z" fill="#421F10"/>
<path d="M65.2923 92.0058C65.2923 93.4932 64.2715 94.7807 63.4151 94.7807C62.5587 94.7807 61.8644 94.0645 61.8644 92.5771C61.8644 91.0896 62.5587 89.8838 63.4151 89.8838C64.2715 89.8838 65.2923 90.5183 65.2923 92.0058Z" fill="#482415"/>
<path d="M56.1516 97.7189C56.1516 98.6113 55.662 99.596 54.8458 99.596C54.0919 99.596 53.9053 99.1173 53.9053 98.2249C53.9053 97.3324 54.3561 95.9233 55.0907 95.9233C55.9068 95.9233 56.3149 96.6579 56.1516 97.7189Z" fill="#482415"/>
<path d="M51.6334 97.1483C51.6334 98.0408 51.192 98.7806 50.3664 98.7806C49.5409 98.7806 49.3777 97.7196 49.5409 96.9851C49.6225 96.0873 49.7857 95.516 50.5724 95.3528C51.3716 95.187 51.7967 96.0873 51.6334 97.1483Z" fill="#482415"/>
<path d="M45.3784 97.2297C45.3784 93.0828 48.643 89.2314 53.295 89.2314C58.7632 89.2314 61.2933 93.5725 61.2933 97.7194C61.2933 101.866 57.8655 105.228 53.0502 104.901C48.0717 104.901 45.3784 101.882 45.3784 97.2297ZM47.5004 97.2297C47.5004 99.1532 48.0516 100.488 48.871 101.333C49.6797 102.167 50.9964 102.779 53.0502 102.779H53.1221L53.1937 102.784C56.8535 103.032 59.1713 100.569 59.1713 97.7194C59.1713 96.0475 58.6567 94.4268 57.7045 93.2664C56.7981 92.162 55.4043 91.3534 53.295 91.3534C49.9293 91.3534 47.5004 94.137 47.5004 97.2297Z" fill="#452213"/>
<path d="M19.5886 62.135C19.5886 66.2819 16.3365 69.6436 12.3249 69.6436C8.31323 69.6436 5.06116 66.2819 5.06116 62.135C5.06116 57.9882 8.31323 54.6265 12.3249 54.6265C16.3365 54.6265 19.5886 57.9882 19.5886 62.135Z" fill="#F4CB52"/>
<path d="M18.5274 62.135C18.5274 58.5407 15.7175 55.6874 12.3247 55.6874C8.93191 55.6874 6.12198 58.5407 6.12198 62.135C6.12198 65.7293 8.93191 68.5825 12.3247 68.5825C15.7175 68.5825 18.5274 65.7293 18.5274 62.135ZM20.6494 62.135C20.6494 66.8344 16.9552 70.7045 12.3247 70.7045C7.69421 70.7045 4 66.8344 4 62.135C4 57.4356 7.69421 53.5654 12.3247 53.5654C16.9552 53.5654 20.6494 57.4356 20.6494 62.135Z" fill="#401D0F"/>
<path d="M11.8102 57.8091C12.3961 57.8091 12.8712 58.2841 12.8712 58.8701C12.8712 59.4319 12.4345 59.8914 11.8821 59.9284C11.8634 59.9391 11.8301 59.9607 11.7824 60.0018C11.6544 60.1124 11.4945 60.3041 11.3436 60.5739C11.0369 61.1221 10.8617 61.8195 10.9417 62.4356C11.0866 63.5505 11.1885 63.96 11.3833 64.2091C11.5273 64.3934 11.8707 64.6552 13.1176 64.8393C13.6973 64.9248 14.0979 65.4642 14.0123 66.0439C13.9267 66.6235 13.3874 67.0242 12.8077 66.9386C11.4425 66.7371 10.3837 66.3759 9.71146 65.5159C9.09 64.7209 8.96163 63.6648 8.83745 62.709C8.68702 61.5511 9.011 60.3974 9.4918 59.538C9.7346 59.104 10.0406 58.7027 10.3951 58.3963C10.7319 58.1053 11.2206 57.8091 11.8102 57.8091Z" fill="#412111"/>
</g>
<defs>
<filter id="filter0_d_446_1171" x="0" y="0" width="161.442" height="161.509" filterUnits="userSpaceOnUse" color-interpolation-filters="sRGB">
<feFlood flood-opacity="0" result="BackgroundImageFix"/>
<feColorMatrix in="SourceAlpha" type="matrix" values="0 0 0 0 0 0 0 0 0 0 0 0 0 0 0 0 0 0 127 0" result="hardAlpha"/>
<feOffset dx="6" dy="4"/>
<feGaussianBlur stdDeviation="5"/>
<feComposite in2="hardAlpha" operator="out"/>
<feColorMatrix type="matrix" values="0 0 0 0 0 0 0 0 0 0 0 0 0 0 0 0 0 0 0.25 0"/>
<feBlend mode="normal" in2="BackgroundImageFix" result="effect1_dropShadow_446_1171"/>
<feBlend mode="normal" in="SourceGraphic" in2="effect1_dropShadow_446_1171" result="shape"/>
</filter>
</defs>
</svg>
