<svg width="176" height="200" viewBox="0 0 176 200" fill="none" xmlns="http://www.w3.org/2000/svg">
<path d="M80.733 20.3823H60.2347L17.3023 53.0936C2.90792 85.0982 21.7815 102.977 33.0176 107.916C6.87086 136.456 20.1492 150.505 30.0568 153.963C22.1308 163.902 28.7281 178.24 33.0176 184.167C13.3392 193.467 30.74 196.324 41.9002 196.59L64.2205 190.777H78.1137C76.0184 194.242 80.9607 197.464 83.6938 198.642C126.148 200.283 133.421 177.67 131.751 166.158L126.171 134.587L114.327 106.435C131.273 98.7754 134.294 76.1928 133.687 65.8589L93.1458 56.057L80.733 20.3823Z" fill="#FFFAED"/>
<path d="M130.573 181.529L133.191 165.184C140.132 163.583 146.277 155.011 146.277 144.609C146.277 136.288 149.16 127.121 150.601 123.577C157.52 110.775 168.922 112.749 172.336 115.111C173.891 117.854 173.497 123.303 170.857 124.949C168.217 126.595 163.991 136.684 162.208 141.523C159.841 166.304 145.822 177.528 139.108 180.043L130.573 181.529Z" fill="#695443"/>
<path d="M139.277 179.618C140.721 171.578 137.473 166.102 135.669 164.369C142.525 161.689 144.915 149.004 145.254 142.997C150.035 141.611 157.395 145.038 160.477 146.925C161.289 162.266 146.682 175.113 139.277 179.618Z" fill="#E2A655"/>
<path d="M66.879 19.8208C60.3763 56.731 29.7746 59.5474 15.2866 56.3418L21.1571 43.5194C20.3292 29.3995 20.1862 1.18256 26.2373 1.27415C32.2884 1.36574 47.6494 13.6768 54.5736 19.8208H66.879Z" fill="#E2A655"/>
<path d="M133.121 66.7626C83.7079 75.8101 75.8124 38.4892 78.0413 18.6979C81.8946 19.4141 89.8279 20.8466 90.7346 20.8466C91.8679 20.8466 114.648 -1.77208 121.674 1.62073C127.296 4.33497 127.794 31.8544 127.341 45.2748L133.121 66.7626Z" fill="#695443"/>
<path d="M29.8595 155.414C33.7696 158.316 39.9694 167.601 33.4874 181.529C28.8517 177.118 21.6362 165.721 29.8595 155.414Z" fill="#695443"/>
<path d="M115.725 150.551C113.407 138.102 120.849 129.498 124.86 126.751L131.21 164.968C121.228 164.327 116.727 155.09 115.725 150.551Z" fill="#E2A655"/>
<path d="M65.2636 86.0695C66.4765 85.8125 67.7581 86.2012 68.7806 86.6418C69.8742 87.1129 71.026 87.8032 72.119 88.5504C74.3111 90.0488 76.4749 91.9203 77.8075 93.1924C78.5062 93.8594 78.5249 94.9592 77.8492 95.6488C77.1735 96.3384 76.0592 96.3569 75.3605 95.69C74.123 94.5087 72.1077 92.7688 70.115 91.4067C69.1156 90.7235 68.1736 90.171 67.3724 89.8258C66.5002 89.45 66.0861 89.4487 66.0027 89.4664C65.6759 89.5357 65.1778 89.7564 64.5241 90.1968C63.8916 90.6229 63.2128 91.1865 62.5346 91.8222C61.1767 93.0948 59.9325 94.5512 59.2154 95.4882C58.6295 96.2537 57.5259 96.4055 56.7503 95.8273C55.9747 95.249 55.8209 94.1597 56.4068 93.3942C57.2168 92.3358 58.5874 90.7304 60.1107 89.3027C60.873 88.5882 61.7013 87.892 62.5398 87.3271C63.3572 86.7765 64.2942 86.275 65.2636 86.0695Z" fill="#37291B"/>
<path d="M64.3313 87.4735V80.6795C64.3313 79.7414 65.1868 78.981 66.2421 78.981C67.2974 78.981 68.153 79.7414 68.153 80.6795V87.4735C68.153 88.4116 67.2974 89.172 66.2421 89.172C65.1868 89.172 64.3313 88.4116 64.3313 87.4735Z" fill="#37291B"/>
<path d="M37.8917 53.5883C38.4375 52.8216 39.5104 52.636 40.2883 53.1739C44.0757 55.7925 46.1218 56.8653 47.8798 57.5579C48.7774 57.9115 49.6224 58.1753 50.6601 58.5017C51.6914 58.826 52.8745 59.2009 54.3663 59.761C56.9993 60.7497 57.6638 60.1235 57.8062 59.9699C58.1748 59.5725 58.3421 58.7415 58.3421 57.7279C58.3421 56.7913 59.1125 56.032 60.0628 56.032C61.0131 56.032 61.7834 56.7913 61.7834 57.7279C61.7834 58.7494 61.6868 60.8128 60.3462 62.2583C58.7793 63.9477 56.2891 64.1127 53.1412 62.9307C51.7422 62.4054 50.6339 62.0537 49.6141 61.733C48.6008 61.4142 47.6348 61.1141 46.6025 60.7075C44.5005 59.8794 42.2104 58.6457 38.3123 55.9505C37.5343 55.4126 37.346 54.3551 37.8917 53.5883Z" fill="#37291B"/>
<path d="M56.0509 68.2519C56.0509 72.7546 52.5983 75.1592 49.0805 75.1592C45.5628 75.1592 43.312 72.7546 43.312 68.2519C43.312 63.7492 46.2839 59.8726 49.8016 59.8726C53.3194 59.8726 56.0509 63.7492 56.0509 68.2519Z" fill="#37291B"/>
<path d="M94.2675 67.6909C94.2675 72.3311 91.3209 75.1592 88.094 75.1592C84.8672 75.1592 82.8025 72.5645 82.8025 67.9243C82.8025 63.2841 85.1979 59.8726 88.4247 59.8726C91.6516 59.8726 94.2675 63.0507 94.2675 67.6909Z" fill="#37291B"/>
<path d="M71.3376 77.9987C69.9937 81.1647 68.9858 81.6014 66.41 82.8025C63.0503 80.7279 62.4904 80.4004 61.1465 77.7799C61.1465 75.0621 62.796 75.1596 66.074 75.1596C69.3521 75.1596 71.3376 75.2809 71.3376 77.9987Z" fill="#37291B"/>
<path d="M95.4535 54.4007C96.2616 53.898 97.325 54.1447 97.8284 54.9516C98.3318 55.7586 98.0847 56.8204 97.2766 57.3231C91.4562 60.9438 83.8942 63.2452 80.7978 63.9611C79.1095 64.3926 77.633 64.4535 76.3765 64.1086C75.0696 63.7498 74.1204 62.9832 73.5087 62.011C72.3683 60.1985 72.5217 57.9024 72.8504 56.5019C73.0677 55.5763 73.9953 55.0019 74.9222 55.2188C75.8492 55.4358 76.4245 56.3621 76.2073 57.2877C75.9614 58.3354 76.0113 59.5167 76.4282 60.1792C76.5951 60.4446 76.8398 60.665 77.2906 60.7887C77.7862 60.9247 78.6237 60.9654 79.9601 60.6217L79.9812 60.6163L80.0026 60.6114C82.8953 59.9448 90.0697 57.7498 95.4535 54.4007Z" fill="#37291B"/>
<path d="M38.8535 87.8659C38.2915 91.3851 36.493 93.5846 30.9853 94.9043C25.1405 94.9043 21.656 92.1782 21.656 87.8659C21.656 83.5535 27.0192 79.6177 32.1096 79.6177C37.5046 80.3875 38.8535 83.5535 38.8535 87.8659Z" fill="#FEBAA6"/>
<path d="M117.197 87.4689C116.324 92.9979 112.07 95.5412 107.379 95.5412C101.707 95.5412 97.4519 91.805 97.4519 87.4689C97.4519 83.1328 101.052 79.6177 106.834 79.6177C112.724 80.3917 117.197 83.1328 117.197 87.4689Z" fill="#FEBAA6"/>
<path d="M21.5389 42.675C17.1875 28.5535 21.7656 10.4641 24.5986 3.18457C31.9417 3.18457 41.4077 17.1401 45.2228 24.1179C35.7946 24.8421 25.5052 36.7911 21.5389 42.675Z" fill="#FBB99C"/>
<path d="M122.076 2.61404C115.419 1.42704 104.585 16.5004 100 24.1854C106.935 26.2855 120.111 37.6153 126.353 42.6752C127.925 23.7746 124.504 7.86423 122.076 2.61404Z" fill="#FBB99C"/>
<path d="M26.1944 0.00453601C26.8177 -0.0213401 27.5173 0.0642166 28.2801 0.242667C29.8054 0.599544 31.7809 1.37541 34.2688 2.70417C39.2532 5.36635 46.5251 10.3735 56.7314 19.2C57.4462 19.8182 57.5267 20.9015 56.9113 21.6195C56.2958 22.3376 55.2173 22.4185 54.5025 21.8002C44.3948 13.0589 37.3383 8.22986 32.6649 5.73376C30.3239 4.48343 28.638 3.84959 27.5052 3.58455C26.9389 3.45205 26.5601 3.42354 26.3354 3.43287C26.2779 3.43526 26.2369 3.43998 26.2098 3.44403C25.8344 3.7097 25.3751 4.25361 24.901 5.23046C24.4154 6.23075 23.98 7.54754 23.6035 9.14779C22.8508 12.3468 22.3843 16.4565 22.1315 20.9293C21.6265 29.8612 21.9868 39.9783 22.4766 46.5641C22.5469 47.5089 21.8414 48.3322 20.9007 48.4028C19.9601 48.4734 19.1405 47.7647 19.0702 46.8199C18.5732 40.1382 18.2047 29.8624 18.7208 20.7347C18.9784 16.1776 19.4599 11.8404 20.2791 8.35856C20.6885 6.61844 21.1949 5.03613 21.8306 3.72662C22.4559 2.43835 23.277 1.26627 24.3957 0.534188V0.534635C24.9556 0.158935 25.6068 0.0289322 26.1944 0.00453601Z" fill="#37291B"/>
<path d="M113.169 2.49038C116.122 1.25974 119.114 0.490538 121.86 0.660037L122.125 0.67937L122.329 0.696702L122.523 0.760921C123.264 1.00693 123.786 1.57371 124.138 2.06663C124.52 2.60119 124.871 3.28947 125.199 4.11408C125.857 5.76821 126.505 8.18751 127.079 11.561C128.217 18.259 129.099 28.9458 129.07 45.3952C132.467 51.5194 137.969 66.6659 134.634 82.1502C132.469 92.2049 126.425 99.5332 119.698 104.483C112.996 109.414 105.517 112.061 100.241 112.725C99.3011 112.843 98.4431 112.181 98.3243 111.246C98.2055 110.311 98.871 109.457 99.8108 109.339C104.482 108.751 111.411 106.335 117.659 101.738C123.881 97.1596 129.329 90.4939 131.28 81.4351C134.456 66.6901 128.976 52.0774 125.867 46.6907L125.638 46.2938L125.639 45.8361C125.685 29.2286 124.8 18.622 123.696 12.1303C123.144 8.87856 122.545 6.71661 122.01 5.37001C121.745 4.70368 121.515 4.28915 121.349 4.05386C119.411 4.00044 117.087 4.55799 114.495 5.63844C111.706 6.801 108.743 8.51027 105.83 10.4809C100.003 14.4228 94.5372 19.3001 91.301 22.576L90.5651 23.3208L89.5639 23.008C75.7367 18.6866 60.3482 21.2133 54.4471 23.0115C53.5413 23.2875 52.5823 22.7806 52.3049 21.8794C52.0275 20.9782 52.5368 20.0239 53.4425 19.7479C59.5954 17.873 75.1518 15.2744 89.5892 19.4502C93 16.0881 98.271 11.4672 103.901 7.65833C106.927 5.6109 110.098 3.77059 113.169 2.49038Z" fill="#37291B"/>
<path d="M45.6192 22.3495C46.5319 22.113 47.4691 22.6402 47.7125 23.5268C47.9559 24.4134 47.4133 25.324 46.5006 25.5604C44.9267 25.9682 42.2567 26.918 39.5298 28.4144C36.7911 29.9173 34.1292 31.8985 32.4184 34.3123C31.8828 35.0681 30.8179 35.2591 30.0399 34.7387C29.262 34.2184 29.0654 33.1838 29.601 32.428C31.7212 29.4365 34.8741 27.1528 37.8476 25.5211C40.8329 23.8828 43.7727 22.8279 45.6192 22.3495Z" fill="#37291B"/>
<path d="M115.461 1.82524C116.107 1.13397 117.202 1.08631 117.908 1.71877C118.614 2.35123 118.663 3.42425 118.017 4.11553C115.545 6.76164 111.703 10.9749 108.219 15.0061C106.476 17.0223 104.832 18.9828 103.496 20.6735C102.138 22.3921 101.168 23.747 100.712 24.581C100.261 25.4072 99.2114 25.7188 98.3678 25.2769C97.5242 24.835 97.206 23.807 97.6572 22.9808C98.2642 21.8695 99.3986 20.3149 100.756 18.5973C102.135 16.8519 103.815 14.8495 105.574 12.8139C109.094 8.74152 112.967 4.49486 115.461 1.82524Z" fill="#37291B"/>
<path d="M98.1635 23.4848C98.4378 22.5967 99.3909 22.096 100.292 22.3662C103.098 23.2075 110.106 26.1515 116.578 31.4183C117.304 32.0095 117.407 33.0688 116.807 33.7845C116.207 34.5001 115.131 34.6011 114.405 34.0099C108.32 29.0577 101.725 26.3094 99.2989 25.582C98.3974 25.3117 97.8891 24.3728 98.1635 23.4848Z" fill="#37291B"/>
<path d="M123.229 74.9082C127.807 74.4497 134.129 74.3117 142.366 74.9894C143.312 75.0672 144.018 75.9324 143.944 76.9217C143.869 77.9109 143.042 78.6498 142.097 78.572C134.028 77.9081 127.908 78.0496 123.556 78.4854C119.145 78.9272 116.68 79.6593 115.83 80.081C114.973 80.5065 113.949 80.1245 113.542 79.228C113.135 78.3315 113.5 77.2599 114.357 76.8344C115.76 76.1381 118.71 75.3608 123.229 74.9082Z" fill="#37291B"/>
<path d="M1.72827 73.8853C6.58793 73.9227 18.2647 74.5745 25.585 76.9904C26.4823 77.2865 26.964 78.2375 26.661 79.1145C26.358 79.9914 25.3851 80.4623 24.4878 80.1661C17.7238 77.9338 6.52105 77.2745 1.70147 77.2374C0.754471 77.2301 -0.00734616 76.4738 5.34515e-05 75.5483C0.00751017 74.6227 0.781278 73.8781 1.72827 73.8853Z" fill="#37291B"/>
<path d="M24.2319 84.7221C25.1751 84.6248 26.0144 85.3543 26.1065 86.3513C26.1985 87.3484 25.5084 88.2357 24.5652 88.333C17.3242 89.0797 8.47144 92.4924 4.95025 94.1159C4.0816 94.5163 3.07019 94.0964 2.69132 93.1782C2.31251 92.2599 2.70972 91.1908 3.57836 90.7903C7.22625 89.1084 16.4638 85.5232 24.2319 84.7221Z" fill="#37291B"/>
<path d="M33.1881 106.817C33.8835 106.182 34.9639 106.229 35.6014 106.922C36.2388 107.615 36.192 108.692 35.4966 109.327C31.2626 113.196 25.4942 119.682 21.9308 126.521C18.3174 133.456 17.288 140.077 21.2084 144.913C26.4803 151.416 33.1823 152.639 39.6483 151.759C46.2059 150.866 52.3461 147.819 56.1262 145.936C56.97 145.515 57.9961 145.856 58.418 146.697C58.8399 147.538 58.498 148.561 57.6542 148.981C53.9184 150.843 47.3041 154.153 40.1109 155.133C32.8261 156.125 24.7807 154.738 18.551 147.053C13.27 140.539 15.1445 132.157 18.899 124.952C22.7036 117.65 28.7674 110.856 33.1881 106.817Z" fill="#37291B"/>
<path d="M33.1355 130.785C33.2568 129.851 34.1124 129.192 35.0465 129.314C36.6347 129.52 39.1031 130.072 41.4675 131.078C43.7757 132.061 46.3066 133.611 47.5868 135.996C47.9604 136.692 48.7535 137.652 49.9305 138.805C51.0802 139.931 52.4973 141.146 54.0095 142.351C57.0262 144.756 60.337 147.054 62.4623 148.434C67.4584 151.491 75.9609 154.904 85.1185 155.172C94.2221 155.438 103.926 152.606 111.625 143.223C112.223 142.495 113.298 142.389 114.026 142.986C114.754 143.583 114.86 144.657 114.263 145.385C105.77 155.735 94.9688 158.871 85.0188 158.58C75.1367 158.292 66.049 154.633 60.6567 151.327L60.6379 151.316L60.6194 151.304C58.4232 149.879 55.0108 147.511 51.8828 145.018C50.3193 143.772 48.8055 142.477 47.5433 141.241C46.3083 140.031 45.2081 138.776 44.5811 137.608C43.8601 136.265 42.2217 135.106 40.1314 134.216C38.0971 133.35 35.9376 132.868 34.6072 132.695C33.6731 132.574 33.0142 131.719 33.1355 130.785Z" fill="#37291B"/>
<path d="M41.6842 121.866C45.3957 120.654 50.0866 120.857 54.9176 121.757C64.5885 123.559 75.7197 128.334 83.0431 132.178C86.7465 133.583 89.6744 132.68 91.9433 130.959C94.3125 129.162 95.9482 126.461 96.7011 124.535C97.0462 123.652 98.0377 123.218 98.9159 123.565C99.7941 123.911 100.226 124.908 99.8814 125.791C98.9638 128.139 97.0005 131.426 94.0014 133.701C90.9189 136.039 86.7359 137.291 81.7313 135.352L81.6401 135.317L81.5533 135.271C74.3725 131.492 63.5307 126.855 54.2949 125.134C49.6516 124.269 45.6378 124.186 42.74 125.133C41.3204 125.596 40.217 126.291 39.4141 127.221C38.6158 128.145 38.0313 129.399 37.7964 131.121C37.6682 132.06 36.8065 132.717 35.8717 132.589C34.9369 132.46 34.2829 131.594 34.4111 130.654C34.7229 128.369 35.5403 126.467 36.8334 124.97C38.1218 123.477 39.7992 122.482 41.6842 121.866Z" fill="#37291B"/>
<path d="M82.9992 119.228C85.9322 118.904 88.9484 119.197 91.6339 120.616C94.3485 122.051 96.5475 124.544 97.9776 128.285C98.3103 129.155 97.8732 130.13 97.0012 130.462C96.1291 130.794 95.1525 130.358 94.8197 129.487C93.6358 126.391 91.9364 124.594 90.0519 123.598C88.1384 122.586 85.855 122.307 83.3713 122.581C78.3534 123.136 72.9778 125.904 69.5514 128.347C68.7918 128.888 67.7364 128.713 67.1939 127.955C66.6514 127.197 66.8272 126.143 67.5867 125.602C71.2585 122.984 77.1839 119.871 82.9992 119.228Z" fill="#37291B"/>
<path d="M85.0131 125.628C85.5593 124.816 86.6664 124.596 87.4858 125.138C89.557 126.506 92.7674 129.423 92.3133 134.072C92.2184 135.043 91.3469 135.754 90.3667 135.661C89.3865 135.566 88.6688 134.703 88.7637 133.732C89.0228 131.079 87.2404 129.222 85.5076 128.078C84.6882 127.536 84.4668 126.44 85.0131 125.628Z" fill="#37291B"/>
<path d="M89.0734 160.344C89.6969 159.696 90.6868 159.719 91.2846 160.395C91.8824 161.071 91.8617 162.144 91.2382 162.792C89.732 164.358 87.7815 167.323 86.96 170.982C86.1541 174.573 86.4212 178.862 89.3439 183.307C89.8453 184.07 89.6816 185.128 88.9783 185.672C88.275 186.216 87.2983 186.038 86.7969 185.276C83.2968 179.953 82.921 174.633 83.9206 170.18C84.9047 165.796 87.2083 162.283 89.0734 160.344Z" fill="#37291B"/>
<path d="M113.506 105.348C114.311 104.855 115.363 105.107 115.857 105.912C121.501 115.116 133.047 139.938 134.342 166.124C135.012 179.67 129.246 187.937 121.661 192.838C114.206 197.655 105.112 199.156 99.0276 199.61C95.2064 199.895 89.5272 200.325 85.0337 199.605C82.8075 199.248 80.5881 198.57 79.0451 197.211C78.2447 196.505 77.6235 195.613 77.3044 194.518C76.988 193.431 76.9999 192.253 77.2924 191.013C78.4648 186.042 82.4344 183.864 86.4049 183.104C90.3397 182.352 94.6292 182.887 97.3862 183.592C98.3009 183.826 98.853 184.757 98.6194 185.672C98.3856 186.587 97.4546 187.14 96.5399 186.906C94.0924 186.28 90.3356 185.835 87.0468 186.464C83.7937 187.086 81.3622 188.651 80.6199 191.798C80.4338 192.588 80.4679 193.153 80.5868 193.561C80.7031 193.96 80.9307 194.314 81.3048 194.644C82.111 195.354 83.5442 195.902 85.5746 196.227C89.5944 196.872 94.8446 196.492 98.7732 196.199C104.655 195.76 113.067 194.319 119.806 189.965C126.416 185.694 131.534 178.559 130.927 166.293C129.669 140.852 118.392 116.587 112.943 107.7C112.449 106.895 112.701 105.842 113.506 105.348Z" fill="#37291B"/>
<path d="M23.5716 40.6521C24.2238 39.9676 25.2978 39.9507 25.9704 40.6143C26.643 41.2779 26.6596 42.3709 26.0075 43.0554C20.5597 48.7739 17.5831 56.2868 16.1047 63.4616C14.6279 70.6291 14.6771 77.3129 15.1622 81.2169C16.62 92.0188 22.642 99.1314 29.6801 103.683C36.7636 108.263 44.8145 110.197 50.0134 110.564C50.9481 110.63 51.6532 111.455 51.5883 112.406C51.5234 113.357 50.713 114.075 49.7784 114.009C44.1205 113.609 35.5016 111.538 27.8605 106.597C20.1759 101.627 13.42 93.7043 11.7997 81.6777L11.7986 81.669L11.7975 81.6604C11.2658 77.3921 11.2257 70.3166 12.7842 62.7531C14.3423 55.1911 17.5294 46.9945 23.5716 40.6521Z" fill="#37291B"/>
<path d="M29.7205 152.962C30.2499 152.186 31.2936 151.997 32.0516 152.538C32.8095 153.08 32.9948 154.148 32.4653 154.924C29.1847 159.73 25.1698 171.93 35.1929 182.441C35.8387 183.118 35.8257 184.203 35.164 184.863C34.5022 185.524 33.4422 185.511 32.7964 184.834C21.2123 172.686 25.9326 158.511 29.7205 152.962Z" fill="#37291B"/>
<path d="M32.1577 182.422C35.5854 181.812 39.114 182.391 41.3438 183.103C42.2478 183.392 42.7478 184.362 42.4606 185.27C42.1734 186.178 41.2077 186.68 40.3037 186.392C38.4499 185.8 35.4978 185.332 32.7562 185.82C30.0781 186.296 27.7634 187.632 26.6221 190.554C26.355 191.238 26.334 191.711 26.3907 192.033C26.4454 192.343 26.5944 192.639 26.8954 192.945C27.5606 193.619 28.8629 194.223 30.7923 194.645C34.5804 195.472 39.6899 195.37 43.2793 194.994L43.3314 194.989L43.3837 194.987C45.9588 194.876 50.0966 194.412 54.0553 193.389C58.116 192.339 61.5641 190.805 63.2032 188.822C63.8091 188.088 64.8919 187.988 65.6217 188.596C66.3514 189.205 66.4518 190.293 65.846 191.026C63.4548 193.919 59.0407 195.663 54.9112 196.731C50.7067 197.817 46.3549 198.308 43.5841 198.431C39.8466 198.819 34.35 198.953 30.0628 198.017C27.9449 197.554 25.8352 196.772 24.4552 195.373C23.7336 194.641 23.2016 193.729 23.0086 192.635C22.8175 191.552 22.9817 190.427 23.4245 189.293C25.1227 184.946 28.6664 183.042 32.1577 182.422Z" fill="#37291B"/>
<path d="M53.6928 185.631C54.1199 184.796 55.131 184.472 55.9509 184.907C59.3489 186.709 68.5866 190.189 77.8202 189.493C78.7421 189.423 79.5449 190.128 79.6132 191.067C79.6814 192.006 78.9893 192.824 78.0674 192.894C68.0167 193.652 58.1487 189.918 54.4043 187.931C53.5843 187.496 53.2657 186.466 53.6928 185.631Z" fill="#37291B"/>
<path d="M24.5145 0.734608C25.0512 -0.0521288 26.0971 -0.235837 26.8509 0.324294C31.5738 3.83432 42.3859 13.3905 47.5733 23.5428C48.0087 24.3949 47.6999 25.4541 46.8835 25.9086C46.0671 26.363 45.0524 26.0407 44.617 25.1886C39.797 15.7552 29.4922 6.58045 24.9076 3.17326C24.1539 2.61311 23.9779 1.52135 24.5145 0.734608Z" fill="#37291B"/>
<path d="M112.758 85.5147C112.9 84.591 113.774 83.9558 114.709 84.0961C117.769 84.5551 122.702 85.4806 127.608 86.7732C132.455 88.0501 137.505 89.7419 140.638 91.8051C141.425 92.3234 141.638 93.3737 141.113 94.1511C140.589 94.9286 139.525 95.1387 138.738 94.6204C136.116 92.8939 131.555 91.3147 126.726 90.0425C121.957 88.7862 117.149 87.8846 114.195 87.4414C113.259 87.3011 112.616 86.4385 112.758 85.5147Z" fill="#37291B"/>
<path d="M164.478 111.625C166.256 111.36 168.342 111.362 170.199 112.116C172.153 112.911 173.423 114.448 174.172 115.97C174.912 117.473 175.224 119.116 175.148 120.39L175.144 120.464L175.133 120.537C174.62 124.026 173.34 126.167 171.776 128.173C170.219 130.169 168.614 131.793 166.92 134.692C164.479 138.869 164.531 140.306 160.251 157.673C158.201 165.989 152.898 172.305 147.071 176.579C141.275 180.831 134.788 183.189 130.12 183.439L129.936 180.015C133.798 179.808 139.66 177.764 145.046 173.813C150.401 169.885 155.113 164.197 156.923 156.851C161.096 139.922 161.192 137.7 163.962 132.96C165.809 129.8 167.746 127.766 169.074 126.063C170.381 124.386 171.321 122.803 171.73 120.12C171.753 119.483 171.581 118.466 171.098 117.486C170.608 116.49 169.878 115.688 168.909 115.294C167.84 114.86 166.442 114.8 164.982 115.017C163.537 115.232 162.22 115.692 161.421 116.099C158.528 117.575 155.838 119.485 153.564 123.19C151.257 126.949 149.305 132.678 148.179 141.922C145.884 160.758 137.287 165.817 131.685 165.256L132.026 161.843C134.802 162.121 142.567 159.644 144.777 141.506C145.935 132.001 147.982 125.733 150.644 121.395C153.34 117.002 156.59 114.714 159.865 113.044C161.009 112.46 162.684 111.892 164.478 111.625Z" fill="#37291B"/>
</svg>
