<svg width="169" height="250" viewBox="0 0 169 250" fill="none" xmlns="http://www.w3.org/2000/svg">
<g clip-path="url(#clip0_1107_4948)">
<rect width="222" height="328" fill="#EAFFFB"/>
<path d="M101.665 47.6622V49.8133H98.0471V50.6932C98.0471 51.671 98.2035 52.6292 98.5164 53.5678C98.8423 54.4934 99.3312 55.3343 99.9831 56.0904C100.635 56.8335 101.437 57.4006 102.388 57.7917L100.961 59.845C99.9831 59.4279 99.1422 58.8216 98.4382 58.0264C97.7342 57.2181 97.1802 56.273 96.776 55.1909C96.3719 56.3773 95.8113 57.4137 95.0943 58.3002C94.3903 59.1736 93.5364 59.8385 92.5326 60.2948L91.0659 58.2415C92.0176 57.8113 92.8194 57.1986 93.4712 56.4033C94.123 55.5951 94.6054 54.702 94.9183 53.7243C95.2442 52.7335 95.4072 51.7231 95.4072 50.6932V49.8133H91.7699V47.6622H101.665ZM105.83 46V63.5996H103.229V46H105.83Z" fill="#006D6F"/>
<path d="M88.7775 46V58.9455H86.1767V46H88.7775ZM79.5866 57.87V61.2139H89.2077V63.2867H76.9662V57.87H79.5866ZM83.1457 47.1342V52.8052H77.6311V54.6629C79.2868 54.6499 80.6426 54.6108 81.6986 54.5456C82.7546 54.4674 83.791 54.324 84.8078 54.1154L85.0621 56.1882C83.9148 56.4229 82.7285 56.5793 81.503 56.6575C80.2906 56.7227 78.6545 56.7553 76.5947 56.7553H75.0498V50.8888H80.5644V49.207H75.0303V47.1342H83.1457Z" fill="#006D6F"/>
<path d="M60.1484 47.6231V46.0587H62.5928V47.6231H65.2132V49.6373H62.6123C62.6645 50.3543 62.9578 51.0192 63.4923 51.6319C64.0398 52.2446 64.796 52.7074 65.7607 53.0203L64.6656 54.9563C63.1794 54.4869 62.0974 53.62 61.4195 52.3554C61.0935 53.0203 60.6568 53.6004 60.1093 54.0958C59.5617 54.5912 58.9034 54.9693 58.1342 55.23L57 53.3136C57.9647 52.9356 58.7143 52.4141 59.2488 51.7492C59.7833 51.0843 60.0767 50.3803 60.1288 49.6373H57.528V47.6231H60.1484ZM72.0575 46V55.1909H69.5935V51.6319H68.3615V55.0931H65.9367V46.3129H68.3615V49.5786H69.5935V46H72.0575ZM72.0575 55.8167V60.4708H62.671V61.4877H72.6246V63.4041H60.1093V58.6717H69.4957V57.7526H60.0702V55.8167H72.0575Z" fill="#006D6F"/>
<g filter="url(#filter0_d_1107_4948)">
<path d="M71.3513 132C65.4799 140.514 58.2886 135.548 55.986 132H45.7027L32 147.636L41.1351 157.846L47.8108 150.545L47.1357 188H81.8896L80.8378 150.751L87.7179 157.846L97 147.457L81.8896 132H71.3513Z" fill="#F2F2F2"/>
</g>
<g filter="url(#filter1_d_1107_4948)">
<path d="M56.5039 132L56.7658 132.4C57.8173 134.008 59.9984 135.932 62.5194 136.483C63.7567 136.753 65.0755 136.695 66.4123 136.111C67.7556 135.524 69.178 134.378 70.567 132.379L70.8306 132H82.1435L98 148.099L87.5903 159.663L81.6742 153.608L82.6811 189H46.325L46.9697 153.479L41.2541 159.684L31 148.309L45.4002 132H56.5039ZM33.3621 148.296L41.2679 157.066L48.8245 148.865L48.1271 187.246H80.86L79.7761 149.144L87.5367 157.087L95.5791 148.153L81.3984 133.754H71.7528C70.2995 135.736 68.7354 137.011 67.1262 137.715C65.4098 138.465 63.7036 138.538 62.1383 138.196C59.2693 137.569 56.8744 135.555 55.5583 133.754H46.2031L33.3621 148.296Z" fill="#6B6F6E"/>
</g>
<g filter="url(#filter2_d_1107_4948)">
<path d="M106.464 148H77.8364L71 212.987L85.5273 216L93.6455 172.532L103.473 216L118 212.987L106.464 148Z" fill="#3950D5"/>
</g>
<g filter="url(#filter3_d_1107_4948)">
<path d="M107.179 148L119 213.674L102.773 216.993L93.6988 177.409L86.2014 217L70 213.686L77.0063 148H107.179ZM71.9333 212.28L84.7913 214.909L92.7443 172.916L94.4809 172.883L104.116 214.916L116.948 212.292L105.694 149.765H78.6018L71.9333 212.28Z" fill="#6B6F6E"/>
</g>
<path d="M126.22 167.113C126.22 139.622 103.934 117.337 76.4431 117.337C48.9522 117.337 26.6664 139.622 26.6664 167.113C26.6664 194.604 48.9522 216.89 76.4431 216.89V227.556C43.0613 227.556 16 200.495 16 167.113C16 133.731 43.0613 106.67 76.4431 106.67C109.825 106.67 136.886 133.731 136.886 167.113C136.886 200.495 109.825 227.556 76.4431 227.556V216.89C103.934 216.89 126.22 194.604 126.22 167.113Z" fill="#E74738"/>
<path d="M116.03 203.171L108.442 210.668L34.6663 136.003L42.2537 128.506L116.03 203.171Z" fill="#E74738"/>
<rect x="87.5" y="77.5" width="69" height="23" rx="11.5" fill="#D0F9F1"/>
<rect x="87.5" y="77.5" width="69" height="23" rx="11.5" stroke="#42D2B8"/>
<rect x="12.5" y="77.5" width="48" height="23" rx="11.5" fill="#D0F9F1"/>
<rect x="12.5" y="77.5" width="48" height="23" rx="11.5" stroke="#42D2B8"/>
<g filter="url(#filter4_d_1107_4948)">
<path d="M94.5612 174.622C84.8639 190.002 95.7475 198.616 102.401 201.001L101.734 205.248C92.6151 214.861 102.754 222.182 108.963 224.641C95.1284 237.204 101.864 244.332 106.961 246.325C101.445 253.434 105.997 259.086 108.963 261.023C106.776 260.557 102.268 260.632 101.734 264.656C101.2 268.68 114.671 266.332 121.474 264.656H127.479C124.276 267.92 134.226 267.692 139.601 267.171C161.798 265.159 153.78 237.979 146.996 224.641C151.266 221.958 153.668 216.779 154.336 214.525C154.54 213.258 154.97 210.703 155.059 210.613C155.147 210.524 154.354 208.378 153.946 207.316L153.557 202.901C164.589 204.421 169.126 194.406 170.016 189.208C170.813 184.942 170.183 175.483 161.286 171.772C152.39 168.061 144.901 177.975 142.27 183.396C132.884 177.807 120.973 180.285 116.191 182.223C110.72 164.696 99.4915 169.853 94.5612 174.622Z" fill="#ADADAB"/>
<path d="M94.5229 174.582C96.9929 172.192 101.047 169.699 105.178 170.006C109.308 170.313 113.487 173.418 116.226 182.148C118.632 181.183 122.784 180.093 127.502 179.931C132.24 179.769 137.554 180.541 142.246 183.318C143.572 180.605 146.095 176.797 149.394 174.116C152.716 171.416 156.833 169.854 161.308 171.72C165.773 173.583 168.165 176.889 169.339 180.263C170.512 183.636 170.471 187.077 170.071 189.218C169.625 191.824 168.265 195.638 165.632 198.611C163.007 201.574 159.119 203.701 153.619 202.965L154.001 207.303C154.205 207.834 154.504 208.633 154.741 209.311C154.861 209.651 154.964 209.962 155.033 210.194C155.067 210.309 155.093 210.406 155.108 210.478C155.115 210.514 155.12 210.545 155.121 210.57C155.122 210.583 155.121 210.596 155.119 210.608C155.118 210.617 155.114 210.634 155.102 210.648C155.102 210.647 155.102 210.648 155.1 210.652C155.098 210.657 155.095 210.665 155.091 210.676C155.083 210.698 155.075 210.729 155.064 210.769C155.044 210.848 155.019 210.96 154.991 211.095C154.936 211.366 154.867 211.733 154.795 212.137C154.651 212.946 154.493 213.901 154.391 214.534L154.39 214.538L154.389 214.541C154.054 215.673 153.285 217.536 152.064 219.452C150.852 221.356 149.192 223.314 147.069 224.661C150.456 231.334 154.144 241.446 154.222 250.153C154.261 254.516 153.393 258.533 151.119 261.586C148.844 264.64 145.167 266.722 139.606 267.226L139.606 267.226C136.917 267.487 133.082 267.675 130.317 267.388C129.626 267.317 129 267.215 128.476 267.077C127.952 266.94 127.524 266.765 127.233 266.544C126.939 266.321 126.779 266.048 126.804 265.718C126.828 265.418 127.005 265.085 127.349 264.712H121.48C118.078 265.55 113.01 266.556 108.857 266.849C106.78 266.996 104.927 266.965 103.624 266.643C102.972 266.483 102.453 266.248 102.112 265.92C101.769 265.59 101.61 265.169 101.679 264.648C101.814 263.632 102.201 262.861 102.741 262.287C103.281 261.713 103.972 261.336 104.712 261.103C106.075 260.672 107.613 260.723 108.706 260.916C107.256 259.903 105.511 258.061 104.729 255.63C103.908 253.082 104.146 249.894 106.872 246.349C104.33 245.335 101.399 243.052 100.808 239.456C100.213 235.838 101.992 230.917 108.86 224.66C105.761 223.418 101.715 220.981 99.554 217.657C98.4631 215.979 97.8517 214.073 98.0883 211.981C98.3245 209.893 99.4046 207.627 101.682 205.222L102.34 201.037C99.0096 199.834 94.6397 197.082 92.3008 192.711C89.9491 188.316 89.6571 182.296 94.5144 174.592L94.518 174.586L94.5229 174.582ZM105.169 170.117C101.088 169.814 97.0653 172.279 94.6047 174.658C89.7685 182.331 90.0701 188.306 92.3988 192.658C94.7307 197.016 99.1016 199.759 102.42 200.948L102.464 200.963L102.456 201.009L101.787 205.274L101.775 205.286C99.5008 207.683 98.432 209.933 98.1989 211.994C97.9658 214.055 98.5672 215.935 99.6472 217.596C101.809 220.922 105.884 223.361 108.983 224.589L109.067 224.622L109 224.682C102.088 230.959 100.331 235.864 100.918 239.437C101.505 243.012 104.442 245.28 106.981 246.273L107.051 246.3L107.005 246.359C104.257 249.9 104.021 253.071 104.834 255.596C105.649 258.125 107.518 260.013 108.993 260.976L108.951 261.078C107.864 260.846 106.2 260.75 104.745 261.209C104.019 261.439 103.346 261.807 102.822 262.364C102.299 262.92 101.922 263.668 101.79 264.663C101.725 265.149 101.871 265.534 102.189 265.839C102.509 266.147 103.007 266.376 103.65 266.535C104.936 266.852 106.775 266.884 108.849 266.738C112.996 266.445 118.061 265.439 121.461 264.602L121.467 264.6H127.612L127.519 264.695C127.122 265.1 126.938 265.441 126.915 265.727C126.893 266.007 127.026 266.247 127.3 266.454C127.574 266.663 127.985 266.833 128.504 266.969C129.021 267.105 129.641 267.206 130.329 267.277C133.082 267.563 136.909 267.376 139.595 267.115H139.596C145.133 266.613 148.778 264.543 151.03 261.519C153.284 258.493 154.149 254.504 154.111 250.154C154.033 241.452 150.337 231.332 146.947 224.666L146.923 224.621L146.967 224.593C149.093 223.258 150.755 221.3 151.97 219.392C153.184 217.486 153.949 215.634 154.282 214.512C154.384 213.878 154.542 212.925 154.686 212.118C154.758 211.713 154.826 211.345 154.882 211.073C154.911 210.936 154.936 210.823 154.957 210.741C154.967 210.7 154.977 210.666 154.986 210.64C154.99 210.627 154.994 210.615 154.999 210.605C155.001 210.6 155.005 210.593 155.01 210.586C155.01 210.583 155.01 210.58 155.01 210.576C155.009 210.559 155.005 210.534 154.999 210.5C154.985 210.434 154.961 210.34 154.927 210.225C154.859 209.996 154.755 209.688 154.636 209.348C154.399 208.668 154.098 207.866 153.895 207.336L153.892 207.329L153.891 207.321L153.496 202.836L153.565 202.845C159.06 203.603 162.935 201.488 165.549 198.536C168.165 195.583 169.518 191.79 169.961 189.199L169.962 189.198C170.359 187.073 170.4 183.652 169.234 180.3C168.068 176.951 165.696 173.672 161.265 171.823C156.843 169.979 152.768 171.518 149.464 174.203C146.159 176.889 143.633 180.715 142.32 183.421L142.293 183.475L142.241 183.444C137.56 180.657 132.248 179.88 127.506 180.043C122.764 180.206 118.597 181.308 116.212 182.274L116.156 182.297L116.138 182.239C113.406 173.487 109.245 170.42 105.169 170.117Z" fill="#ADADAB"/>
<path d="M93.2268 186.582C93.7606 195.345 99.5657 198.355 102.401 198.765L102.679 198.933L109.797 186.582C108.017 173.348 101.827 173.541 98.954 175.292C94.3277 175.74 93.2083 183.005 93.2268 186.582Z" fill="#FCABA3"/>
<path d="M164.511 196.753C161.353 200.866 155.892 201.299 153.557 201.001L147.663 189.544C149.309 182.345 152.278 178.571 153.557 177.584C159.429 172.532 164.604 177.081 166.457 179.987C170.372 186.336 166.791 193.81 164.511 196.753Z" fill="#FCABA3"/>
<path d="M147.163 213.966C146.837 217.375 144.549 219.89 140.935 219.723C137.265 219.89 134.819 216.816 135.097 213.966C135.097 210.941 138.002 208.322 141.38 208.322C144.271 207.93 147.441 211.06 147.163 213.966Z" fill="#FCABA3"/>
<path d="M110.13 212.849C110.13 216.202 107.74 218.046 104.792 218.046C101.844 218.046 99.788 215.794 99.788 213.016C99.5656 210.11 101.512 207.148 104.792 207.595C107.74 207.595 110.13 210.071 110.13 212.849Z" fill="#FCABA3"/>
<path d="M119.746 180.263C128.039 177.839 136.936 179.87 142.593 182.461C142.984 182.64 143.156 183.104 142.978 183.497C142.8 183.89 142.338 184.064 141.947 183.884C136.501 181.39 128 179.48 120.18 181.765C112.444 184.026 105.207 190.441 102.275 204.957L102.231 205.176L102.078 205.338C99.949 207.603 98.1012 211.269 99.116 215.021C100.124 218.75 104.062 222.935 114.356 226.014C114.768 226.138 115.003 226.573 114.88 226.988C114.758 227.402 114.324 227.637 113.912 227.514C103.433 224.379 98.835 219.948 97.6136 215.432C96.4253 211.038 98.5305 206.916 100.793 204.429C103.851 189.586 111.409 182.699 119.746 180.263Z" fill="#37291B"/>
<path d="M108.641 224.534C108.976 224.263 109.466 224.316 109.736 224.653C110.005 224.99 109.953 225.482 109.618 225.753C107.574 227.407 104.793 230.255 103.081 233.397C101.363 236.552 100.828 239.775 102.804 242.449C104.835 245.198 107.586 245.785 110.309 245.372C113.072 244.954 115.736 243.506 117.335 242.292C117.678 242.031 118.166 242.099 118.425 242.444C118.684 242.789 118.616 243.28 118.273 243.54C116.535 244.86 113.633 246.452 110.541 246.92C107.409 247.394 104.016 246.714 101.554 243.382C99.037 239.976 99.8834 236.009 101.716 232.645C103.555 229.269 106.496 226.271 108.641 224.534Z" fill="#37291B"/>
<path d="M106.228 234.948C106.938 234.597 108.094 234.273 109.331 234.415C110.604 234.561 111.942 235.204 112.903 236.744C113.666 237.967 115.067 239.43 116.56 240.789C118.027 242.125 119.527 243.312 120.463 243.999C123.125 245.656 127.557 247.501 132.189 247.667C136.796 247.832 141.571 246.342 145.081 241.347C145.329 240.994 145.815 240.91 146.166 241.159C146.517 241.408 146.601 241.897 146.353 242.249C142.479 247.761 137.153 249.41 132.133 249.23C127.152 249.052 122.445 247.079 119.617 245.313L119.593 245.298L119.57 245.281C118.595 244.568 117.039 243.337 115.514 241.949C114.003 240.573 112.467 238.99 111.584 237.575C110.899 236.477 110.004 236.067 109.154 235.97C108.267 235.868 107.41 236.108 106.916 236.352C106.53 236.543 106.063 236.384 105.873 235.996C105.684 235.608 105.842 235.139 106.228 234.948Z" fill="#37291B"/>
<path d="M109.877 231.172C111.101 230.491 112.577 230.237 114.202 230.327C117.434 230.504 121.428 232.044 125.713 234.645C129.717 237.076 132.537 237.15 134.517 236.424C136.54 235.683 137.883 234.043 138.781 232.653C139.015 232.291 139.497 232.188 139.858 232.423C140.218 232.659 140.321 233.143 140.087 233.506C139.131 234.985 137.555 236.977 135.05 237.895C132.504 238.827 129.189 238.584 124.908 235.985C120.716 233.44 116.981 232.046 114.117 231.889C112.694 231.811 111.53 232.041 110.632 232.541C109.747 233.034 109.063 233.82 108.636 234.973C108.486 235.378 108.038 235.584 107.635 235.434C107.232 235.283 107.027 234.832 107.177 234.427C107.723 232.954 108.641 231.861 109.877 231.172Z" fill="#37291B"/>
<path d="M105.819 245.808C106.011 245.422 106.478 245.264 106.863 245.457C107.248 245.649 107.405 246.119 107.213 246.506C106.185 248.582 105.217 251.779 105.561 254.646C105.731 256.064 106.218 257.373 107.149 258.441C108.078 259.506 109.498 260.39 111.636 260.875C112.056 260.97 112.319 261.388 112.224 261.81C112.13 262.231 111.713 262.496 111.294 262.401C108.895 261.857 107.161 260.83 105.978 259.472C104.797 258.117 104.215 256.491 104.015 254.834C103.621 251.551 104.716 248.036 105.819 245.808Z" fill="#37291B"/>
<path d="M146.304 223.667C146.686 223.468 147.156 223.618 147.354 224.001C154.354 237.579 156.01 247.206 155.116 253.853C154.217 260.527 150.749 264.152 147.667 265.64L147.641 265.653L147.614 265.664C143.913 267.121 135.918 268.638 129.483 267.722C128.675 267.607 128.014 267.41 127.523 267.108C127.013 266.794 126.647 266.335 126.579 265.738C126.515 265.179 126.732 264.663 127.011 264.247C127.296 263.823 127.7 263.421 128.156 263.056C129.071 262.325 130.306 261.66 131.577 261.208C132.839 260.759 134.219 260.491 135.413 260.637C135.84 260.69 136.144 261.08 136.092 261.509C136.04 261.938 135.652 262.243 135.225 262.191C134.362 262.085 133.24 262.276 132.096 262.683C130.961 263.086 129.885 263.674 129.125 264.281C128.744 264.586 128.469 264.874 128.302 265.123C128.129 265.38 128.121 265.519 128.126 265.558C128.126 265.56 128.122 265.642 128.337 265.774C128.57 265.918 128.994 266.072 129.701 266.172C135.816 267.043 143.514 265.589 147.018 264.217C149.602 262.959 152.744 259.8 153.573 253.643C154.408 247.439 152.894 238.148 145.971 224.721C145.774 224.338 145.923 223.865 146.304 223.667Z" fill="#37291B"/>
<path d="M123.595 232.872C128.192 230.745 131.513 230.602 133.821 231.457C136.137 232.315 137.294 234.127 137.634 235.583C137.732 236.004 137.473 236.425 137.054 236.524C136.635 236.623 136.216 236.362 136.118 235.941C135.884 234.938 135.055 233.582 133.283 232.925C131.504 232.266 128.634 232.263 124.246 234.293C123.855 234.474 123.393 234.302 123.213 233.91C123.033 233.517 123.204 233.053 123.595 232.872Z" fill="#37291B"/>
<path d="M130.096 234.231C130.139 233.801 130.52 233.488 130.948 233.531C131.95 233.631 133.939 234.486 135.128 236.927C135.318 237.315 135.158 237.784 134.772 237.974C134.386 238.164 133.919 238.003 133.73 237.615C132.785 235.674 131.274 235.136 130.793 235.088C130.366 235.045 130.053 234.661 130.096 234.231Z" fill="#37291B"/>
<path d="M97.085 175.123C98.7849 173.789 101.627 172.704 104.462 174.117C107.266 175.515 109.749 179.214 111.119 186.663C111.197 187.088 110.917 187.496 110.495 187.575C110.072 187.653 109.666 187.372 109.588 186.948C108.244 179.642 105.898 176.58 103.77 175.519C101.671 174.472 99.4757 175.232 98.0433 176.356C97.7044 176.622 97.2153 176.562 96.9506 176.221C96.686 175.881 96.7461 175.389 97.085 175.123Z" fill="#37291B"/>
<path d="M115.246 182.334C115.246 177.688 111.805 173.024 107.398 171.277C105.22 170.414 102.84 170.278 100.546 171.187C98.2501 172.097 95.9558 174.086 94.02 177.626C90.3126 184.405 91.2093 189.578 93.571 193.163C95.9802 196.82 99.9699 198.912 102.528 199.334C102.952 199.404 103.239 199.807 103.17 200.233C103.1 200.66 102.699 200.948 102.275 200.878C99.3096 200.388 94.9321 198.064 92.2729 194.027C89.566 189.918 88.6927 184.119 92.6557 176.872C94.7235 173.091 97.2668 170.804 99.9752 169.731C102.685 168.658 105.477 168.833 107.969 169.821C112.904 171.777 116.803 176.977 116.803 182.334C116.803 182.766 116.454 183.117 116.024 183.117C115.594 183.117 115.246 182.766 115.246 182.334Z" fill="#37291B"/>
<path d="M147.484 174.792C150.896 171.471 155.482 169.229 160.999 170.851L160.999 170.851C163.049 171.437 165.932 173.085 168.087 176.127C170.257 179.191 171.658 183.625 170.787 189.711C169.907 195.851 166.883 199.454 163.411 201.414C159.978 203.353 156.167 203.656 153.682 203.342C153.256 203.288 152.954 202.896 153.007 202.467C153.061 202.039 153.45 201.735 153.877 201.789C156.1 202.07 159.562 201.793 162.648 200.05C165.695 198.33 168.435 195.151 169.246 189.488C170.064 183.771 168.741 179.747 166.819 177.034C164.881 174.3 162.304 172.851 160.573 172.356L160.567 172.355C155.766 170.94 151.735 172.833 148.568 175.916C145.385 179.013 143.169 183.236 142.112 186.177C141.966 186.583 141.52 186.794 141.116 186.647C140.711 186.5 140.502 186.052 140.648 185.645C141.76 182.55 144.086 178.099 147.484 174.792Z" fill="#37291B"/>
<path d="M158.211 174.174C159.368 174.028 160.522 174.203 161.462 174.88C161.811 175.132 161.891 175.621 161.641 175.972C161.39 176.323 160.904 176.404 160.555 176.152C160.021 175.767 159.295 175.615 158.405 175.727C157.513 175.839 156.509 176.214 155.507 176.813C153.495 178.017 151.643 180.038 150.842 182.265C149.907 184.863 149.776 185.762 149.453 186.877C149.124 188.012 148.634 189.202 147.071 192.147C146.869 192.529 146.397 192.673 146.018 192.469C145.639 192.266 145.495 191.792 145.697 191.411C147.248 188.488 147.676 187.414 147.958 186.44C148.247 185.445 148.422 184.388 149.378 181.733C150.323 179.106 152.447 176.823 154.711 175.469C155.847 174.789 157.056 174.32 158.211 174.174Z" fill="#37291B"/>
<path d="M147.163 189.279C147.493 189.002 147.984 189.045 148.26 189.376C149.255 190.569 151.497 193.728 152.519 196.903C153.154 198.875 153.442 201.081 153.769 203.074C154.104 205.115 154.479 206.932 155.242 208.338C155.767 209.305 155.939 210.741 155.747 212.336C155.553 213.956 154.974 215.827 153.892 217.722C151.722 221.527 147.537 225.419 140.385 227.624C139.974 227.751 139.539 227.519 139.413 227.105C139.287 226.692 139.518 226.255 139.929 226.128C146.733 224.03 150.583 220.377 152.542 216.944C153.524 215.221 154.033 213.55 154.202 212.148C154.373 210.722 154.184 209.657 153.875 209.087C152.97 207.419 152.566 205.353 152.233 203.328C151.893 201.255 151.626 199.213 151.037 197.385C150.102 194.479 147.999 191.499 147.067 190.382C146.791 190.051 146.834 189.557 147.163 189.279Z" fill="#37291B"/>
<path d="M88.6007 208.231C91.2725 207.6 94.3907 207.592 97.1694 207.823C99.9561 208.054 102.459 208.531 103.927 208.904C104.344 209.011 104.596 209.436 104.491 209.855C104.385 210.274 103.962 210.527 103.545 210.421C102.159 210.069 99.7408 209.606 97.0412 209.382C94.3337 209.157 91.4003 209.177 88.9565 209.754C88.538 209.853 88.1191 209.592 88.0208 209.171C87.9225 208.75 88.1822 208.329 88.6007 208.231Z" fill="#37291B"/>
<path d="M103.342 212.066C103.772 212.063 104.123 212.411 104.125 212.844C104.128 213.276 103.782 213.628 103.352 213.631C101.947 213.64 99.5844 213.828 97.1212 214.364C94.6435 214.903 92.152 215.776 90.418 217.104C90.076 217.366 89.5875 217.299 89.327 216.955C89.0664 216.612 89.1325 216.121 89.4745 215.859C91.477 214.325 94.2309 213.391 96.7918 212.834C99.3673 212.274 101.837 212.076 103.342 212.066Z" fill="#37291B"/>
<path d="M140.416 208.657C142.368 208.609 145.643 208.775 149.188 209.423C152.726 210.069 156.596 211.205 159.694 213.133C160.06 213.361 160.173 213.843 159.946 214.211C159.72 214.578 159.24 214.691 158.875 214.464C156.012 212.681 152.357 211.591 148.91 210.962C145.471 210.334 142.301 210.176 140.454 210.222C140.024 210.232 139.667 209.89 139.656 209.458C139.646 209.026 139.986 208.668 140.416 208.657Z" fill="#37291B"/>
<path d="M140.235 213.331C140.338 212.912 140.76 212.656 141.178 212.76C142.884 213.184 145.668 214.132 148.543 215.611C151.413 217.088 154.433 219.122 156.552 221.744C156.824 222.08 156.773 222.572 156.439 222.845C156.106 223.117 155.615 223.066 155.344 222.731C153.416 220.345 150.607 218.431 147.834 217.005C145.068 215.581 142.397 214.674 140.804 214.279C140.387 214.175 140.132 213.751 140.235 213.331Z" fill="#37291B"/>
<path d="M153.864 189.08C154.027 188.818 154.37 188.738 154.631 188.902C154.891 189.066 154.97 189.41 154.807 189.672C153.931 191.082 152.695 191.683 151.521 191.846C150.369 192.006 149.278 191.747 148.608 191.453C148.327 191.329 148.199 190.999 148.322 190.717C148.445 190.434 148.773 190.305 149.054 190.429C149.57 190.656 150.454 190.866 151.368 190.739C152.26 190.615 153.184 190.173 153.864 189.08Z" fill="#37291B"/>
<path d="M154.366 192.581C154.601 192.382 154.952 192.412 155.15 192.648C155.348 192.884 155.318 193.237 155.084 193.436C154.252 194.141 153.226 194.411 152.322 194.48C151.417 194.548 150.581 194.42 150.068 194.272C149.773 194.188 149.602 193.878 149.686 193.582C149.771 193.285 150.079 193.113 150.374 193.198C150.769 193.311 151.473 193.423 152.238 193.365C153.003 193.307 153.774 193.084 154.366 192.581Z" fill="#37291B"/>
<path d="M104.339 185.524C104.644 185.488 104.92 185.708 104.956 186.014C105.02 186.574 105.28 187.361 105.813 187.908C106.309 188.418 107.093 188.777 108.379 188.444C108.677 188.367 108.98 188.547 109.056 188.845C109.133 189.144 108.954 189.449 108.657 189.526C107.007 189.953 105.808 189.501 105.018 188.69C104.264 187.915 103.935 186.868 103.851 186.143C103.816 185.837 104.034 185.559 104.339 185.524Z" fill="#37291B"/>
<path d="M107.059 189.674C107.233 189.42 107.579 189.355 107.832 189.53C108.085 189.705 108.149 190.053 107.975 190.307C107.339 191.238 106.294 191.506 105.379 191.519C104.458 191.533 103.545 191.294 102.977 191.07C102.691 190.957 102.55 190.633 102.662 190.345C102.775 190.058 103.097 189.917 103.383 190.03C103.853 190.215 104.62 190.412 105.363 190.402C106.112 190.391 106.717 190.175 107.059 189.674Z" fill="#37291B"/>
<path d="M160.841 239.441C165.957 252.944 158.376 257.288 153.946 257.772C152.834 258.353 152.074 260.473 151.833 261.461C167.569 262.299 168.292 246.986 164.233 238.939C159.118 225.358 170.461 221.614 174.687 224.24C176.183 225.17 177.872 225.246 176.967 223.737C175.41 221.144 171.629 220.476 169.627 220.719C164.567 221.334 155.726 225.939 160.841 239.441Z" fill="#504D4C"/>
<path d="M169.64 219.931C170.75 219.814 172.26 219.942 173.707 220.421C175.2 220.916 176.725 221.82 177.633 223.333C177.884 223.75 178.1 224.278 177.951 224.799C177.771 225.431 177.206 225.639 176.81 225.681C176.411 225.724 175.971 225.642 175.564 225.511C175.144 225.376 174.701 225.169 174.277 224.906C173.411 224.367 172.1 224.117 170.646 224.296C169.204 224.473 167.695 225.064 166.458 226.111C164.056 228.143 162.493 232.079 164.948 238.627C167.04 242.803 167.908 248.841 166.192 253.79C165.324 256.291 163.789 258.531 161.404 260.084C159.02 261.636 155.853 262.459 151.792 262.242L150.854 262.192L151.077 261.274C151.209 260.735 151.477 259.902 151.866 259.116C152.236 258.368 152.797 257.491 153.587 257.078L153.717 257.01L153.862 256.995C155.91 256.771 158.668 255.65 160.318 253.066C161.95 250.51 162.618 246.329 160.114 239.72C157.488 232.789 158.391 227.961 160.798 224.774C163.167 221.64 166.866 220.267 169.533 219.943L169.64 219.931ZM173.22 221.908C171.974 221.495 170.686 221.395 169.804 221.487L169.72 221.496C167.328 221.787 164.076 223.024 162.038 225.721C160.039 228.366 159.079 232.591 161.569 239.163C164.18 246.056 163.616 250.798 161.629 253.911C159.707 256.922 156.567 258.227 154.203 258.529C153.906 258.737 153.572 259.182 153.26 259.813C153.113 260.111 152.985 260.42 152.879 260.711C156.184 260.738 158.691 259.986 160.557 258.771C162.607 257.437 163.949 255.503 164.721 253.275C166.28 248.781 165.491 243.162 163.539 239.293L163.52 239.255L163.505 239.216C160.864 232.204 162.413 227.488 165.456 224.913C166.944 223.654 168.743 222.953 170.457 222.742C172.158 222.533 173.85 222.8 175.096 223.575C175.421 223.777 175.75 223.928 176.039 224.021C176.122 224.048 176.197 224.068 176.265 224.084C175.61 223.035 174.484 222.327 173.22 221.908Z" fill="#37291B"/>
<path d="M119.972 216.369V212.234C119.972 211.802 120.321 211.451 120.751 211.451C121.181 211.451 121.529 211.802 121.529 212.234V216.369C121.529 216.802 121.181 217.152 120.751 217.152C120.321 217.152 119.972 216.802 119.972 216.369Z" fill="#37291B"/>
<path d="M121.105 215.878C123.008 215.544 125.198 216.189 127.385 218.578C127.676 218.896 127.655 219.391 127.339 219.684C127.022 219.976 126.53 219.956 126.239 219.638C124.333 217.555 122.649 217.195 121.373 217.42C120.034 217.655 118.95 218.566 118.374 219.349C118.118 219.697 117.631 219.77 117.285 219.513C116.94 219.256 116.867 218.766 117.122 218.419C117.862 217.414 119.264 216.202 121.105 215.878Z" fill="#37291B"/>
<path d="M125.159 199.057C125.244 198.634 125.655 198.36 126.076 198.445C126.498 198.531 126.77 198.943 126.685 199.367C126.623 199.676 126.661 199.977 126.812 200.22C126.957 200.455 127.271 200.739 127.963 200.902C129.404 201.243 132.224 200.989 137.315 198.986C137.716 198.829 138.167 199.027 138.324 199.43C138.48 199.832 138.283 200.286 137.883 200.444C132.743 202.465 129.539 202.882 127.607 202.426C126.612 202.191 125.901 201.71 125.491 201.049C125.086 200.396 125.036 199.67 125.159 199.057Z" fill="#37291B"/>
<path d="M108.696 198.039C109.003 197.736 109.495 197.741 109.797 198.049C110.666 198.94 113.331 200.878 116.703 201.171C117.132 201.208 117.449 201.587 117.412 202.018C117.375 202.448 116.998 202.767 116.569 202.73C112.736 202.397 109.743 200.229 108.685 199.145C108.384 198.837 108.389 198.341 108.696 198.039Z" fill="#37291B"/>
<path d="M119.334 198.331C119.449 197.915 119.879 197.672 120.293 197.788C120.707 197.904 120.949 198.336 120.833 198.752L120.166 201.155C120.051 201.571 119.621 201.814 119.207 201.698C118.793 201.582 118.551 201.15 118.667 200.734L119.334 198.331Z" fill="#37291B"/>
<path d="M121.992 197.872C122.084 197.449 122.499 197.182 122.919 197.274C123.339 197.366 123.605 197.783 123.513 198.205C123.407 198.695 123.282 199.429 123.246 200.039C123.229 200.326 123.236 200.543 123.256 200.683C123.475 200.87 123.582 201.171 123.508 201.47C123.404 201.889 122.981 202.144 122.564 202.039C122.235 201.956 122.032 201.732 121.92 201.542C121.813 201.36 121.76 201.164 121.731 201.003C121.671 200.68 121.671 200.3 121.692 199.947C121.734 199.226 121.876 198.406 121.992 197.872Z" fill="#37291B"/>
<path d="M134.874 204.969C134.874 207.316 133.898 208.322 132.761 208.322C131.625 208.322 129.981 208.154 129.814 204.969C129.814 203.209 130.259 201.951 132.039 201.448C133.818 200.945 134.874 203.209 134.874 204.969Z" fill="#37291B"/>
<path d="M134.763 204.969C134.763 204.108 134.504 203.124 134.032 202.422C133.796 202.072 133.511 201.797 133.184 201.639C132.86 201.482 132.488 201.437 132.069 201.555C131.202 201.8 130.673 202.224 130.356 202.792C130.037 203.363 129.926 204.094 129.926 204.965C130.008 206.539 130.454 207.338 130.992 207.751C131.534 208.167 132.195 208.21 132.761 208.21V208.322L132.654 208.321C131.524 208.308 129.976 208.055 129.814 204.969C129.814 203.237 130.245 201.99 131.956 201.472L132.039 201.448C133.818 200.945 134.874 203.209 134.874 204.969L134.874 205.078C134.844 207.347 133.88 208.322 132.761 208.322V208.21C133.293 208.21 133.788 207.976 134.153 207.46C134.522 206.941 134.763 206.128 134.763 204.969Z" fill="#37291B"/>
<path d="M115.969 205.123C115.969 207.47 114.992 208.477 113.856 208.477C112.72 208.477 111.131 208.098 110.965 204.912C110.965 203.153 111.799 201.15 113.133 201.602C114.468 202.055 115.969 201.95 115.969 205.123Z" fill="#37291B"/>
<path d="M115.858 205.123C115.858 203.553 115.486 202.827 114.983 202.431C114.727 202.229 114.429 202.106 114.106 202.004C113.944 201.953 113.778 201.908 113.609 201.861C113.44 201.815 113.268 201.766 113.098 201.708C112.794 201.606 112.525 201.642 112.286 201.778C112.044 201.917 111.827 202.162 111.645 202.483C111.282 203.126 111.076 204.045 111.076 204.909C111.159 206.483 111.591 207.339 112.12 207.805C112.65 208.271 113.298 208.365 113.856 208.365V208.477L113.748 208.475C112.622 208.45 111.126 207.998 110.965 204.912C110.965 203.153 111.799 201.15 113.133 201.602C114.468 202.055 115.969 201.95 115.969 205.123L115.968 205.232C115.938 207.502 114.975 208.477 113.856 208.477V208.365C114.388 208.365 114.882 208.131 115.248 207.615C115.616 207.096 115.858 206.283 115.858 205.123Z" fill="#37291B"/>
<path d="M123.698 209.272C123.698 210.661 123.698 212.737 120.473 212.96C116.747 212.96 116.414 210.445 116.414 208.992C116.414 207.642 118.26 206.757 120.195 206.757C122.129 206.757 123.42 207.819 123.698 209.272Z" fill="#FDACA1"/>
<path d="M120.285 206.758C122.169 206.79 123.424 207.841 123.698 209.272C123.698 210.661 123.698 212.737 120.473 212.96L120.386 212.96C116.742 212.921 116.414 210.434 116.414 208.992C116.414 207.642 118.26 206.757 120.195 206.757L120.285 206.758ZM120.195 208.322C119.438 208.322 118.762 208.499 118.331 208.738C118.079 208.878 117.995 208.981 117.971 209.024C117.974 209.669 118.064 210.244 118.333 210.64C118.524 210.922 118.984 211.384 120.419 211.395C121.626 211.301 121.864 210.918 121.937 210.786C122.095 210.505 122.135 210.109 122.14 209.448C121.981 208.897 121.436 208.322 120.195 208.322Z" fill="#37291B"/>
</g>
</g>
<defs>
<filter id="filter0_d_1107_4948" x="29" y="129" width="71" height="62" filterUnits="userSpaceOnUse" color-interpolation-filters="sRGB">
<feFlood flood-opacity="0" result="BackgroundImageFix"/>
<feColorMatrix in="SourceAlpha" type="matrix" values="0 0 0 0 0 0 0 0 0 0 0 0 0 0 0 0 0 0 127 0" result="hardAlpha"/>
<feOffset/>
<feGaussianBlur stdDeviation="1.5"/>
<feComposite in2="hardAlpha" operator="out"/>
<feColorMatrix type="matrix" values="0 0 0 0 0 0 0 0 0 0 0 0 0 0 0 0 0 0 0.15 0"/>
<feBlend mode="normal" in2="BackgroundImageFix" result="effect1_dropShadow_1107_4948"/>
<feBlend mode="normal" in="SourceGraphic" in2="effect1_dropShadow_1107_4948" result="shape"/>
</filter>
<filter id="filter1_d_1107_4948" x="28" y="129" width="73" height="63" filterUnits="userSpaceOnUse" color-interpolation-filters="sRGB">
<feFlood flood-opacity="0" result="BackgroundImageFix"/>
<feColorMatrix in="SourceAlpha" type="matrix" values="0 0 0 0 0 0 0 0 0 0 0 0 0 0 0 0 0 0 127 0" result="hardAlpha"/>
<feOffset/>
<feGaussianBlur stdDeviation="1.5"/>
<feComposite in2="hardAlpha" operator="out"/>
<feColorMatrix type="matrix" values="0 0 0 0 0 0 0 0 0 0 0 0 0 0 0 0 0 0 0.15 0"/>
<feBlend mode="normal" in2="BackgroundImageFix" result="effect1_dropShadow_1107_4948"/>
<feBlend mode="normal" in="SourceGraphic" in2="effect1_dropShadow_1107_4948" result="shape"/>
</filter>
<filter id="filter2_d_1107_4948" x="68" y="145" width="53" height="74" filterUnits="userSpaceOnUse" color-interpolation-filters="sRGB">
<feFlood flood-opacity="0" result="BackgroundImageFix"/>
<feColorMatrix in="SourceAlpha" type="matrix" values="0 0 0 0 0 0 0 0 0 0 0 0 0 0 0 0 0 0 127 0" result="hardAlpha"/>
<feOffset/>
<feGaussianBlur stdDeviation="1.5"/>
<feComposite in2="hardAlpha" operator="out"/>
<feColorMatrix type="matrix" values="0 0 0 0 0 0 0 0 0 0 0 0 0 0 0 0 0 0 0.15 0"/>
<feBlend mode="normal" in2="BackgroundImageFix" result="effect1_dropShadow_1107_4948"/>
<feBlend mode="normal" in="SourceGraphic" in2="effect1_dropShadow_1107_4948" result="shape"/>
</filter>
<filter id="filter3_d_1107_4948" x="67" y="145" width="55" height="75" filterUnits="userSpaceOnUse" color-interpolation-filters="sRGB">
<feFlood flood-opacity="0" result="BackgroundImageFix"/>
<feColorMatrix in="SourceAlpha" type="matrix" values="0 0 0 0 0 0 0 0 0 0 0 0 0 0 0 0 0 0 127 0" result="hardAlpha"/>
<feOffset/>
<feGaussianBlur stdDeviation="1.5"/>
<feComposite in2="hardAlpha" operator="out"/>
<feColorMatrix type="matrix" values="0 0 0 0 0 0 0 0 0 0 0 0 0 0 0 0 0 0 0.15 0"/>
<feBlend mode="normal" in2="BackgroundImageFix" result="effect1_dropShadow_1107_4948"/>
<feBlend mode="normal" in="SourceGraphic" in2="effect1_dropShadow_1107_4948" result="shape"/>
</filter>
<filter id="filter4_d_1107_4948" x="85" y="166" width="96" height="105" filterUnits="userSpaceOnUse" color-interpolation-filters="sRGB">
<feFlood flood-opacity="0" result="BackgroundImageFix"/>
<feColorMatrix in="SourceAlpha" type="matrix" values="0 0 0 0 0 0 0 0 0 0 0 0 0 0 0 0 0 0 127 0" result="hardAlpha"/>
<feOffset/>
<feGaussianBlur stdDeviation="1.5"/>
<feComposite in2="hardAlpha" operator="out"/>
<feColorMatrix type="matrix" values="0 0 0 0 0 0 0 0 0 0 0 0 0 0 0 0 0 0 0.15 0"/>
<feBlend mode="normal" in2="BackgroundImageFix" result="effect1_dropShadow_1107_4948"/>
<feBlend mode="normal" in="SourceGraphic" in2="effect1_dropShadow_1107_4948" result="shape"/>
</filter>
<clipPath id="clip0_1107_4948">
<rect width="169" height="250" fill="white"/>
</clipPath>
</defs>
</svg>
