<svg width="179" height="200" viewBox="0 0 179 200" fill="none" xmlns="http://www.w3.org/2000/svg">
<path d="M39.6484 20.9646C63.8038 -7.84217 101.319 3.05747 117.058 12.1081L137.693 77.5991C139.838 80.2094 129.26 96.1666 123.703 103.819L140.491 156.841C156.998 148.171 161.125 124.251 161.125 113.375H164.156C169.472 114.866 172.317 134.467 172.317 143.44L176.514 141.226C181.084 155.582 169.247 164.843 162.757 167.678L169.402 165.931C167.304 175.137 144.61 181.468 137.693 181.429L132.796 187.722C130.037 191.373 120.229 198.629 103.068 198.443C85.9076 198.257 85.5811 193.083 87.563 190.519L70.3091 187.722C69.6563 194.528 50.7624 196.617 41.3971 196.812C20.5058 193.269 33.7805 185.081 43.0293 181.429C33.3298 172.666 35.879 159.366 38.3661 153.811C10.3868 141.039 28.7287 117.725 41.3971 107.664C6.42293 93.867 15.7882 67.0335 24.8426 55.3415C26.6147 38.1879 35.4515 25.2762 39.6484 20.9646Z" fill="#DB975B"/>
<path d="M117.641 19.6824L117.058 11.8748C121.177 9.93255 133.029 8.775 147.485 19.6824C165.555 33.3167 171.618 42.2896 171.734 42.7557C171.851 43.2219 173.833 80.8618 137.11 77.9484C132.446 74.4136 124.528 64.5099 124.985 51.0295C125.452 37.2787 121.177 24.4602 117.641 19.6824Z" fill="#995D36"/>
<path d="M20.1794 23.7611C34.6354 7.2601 49.2857 6.00932 54.8038 7.44655L41.2806 18.5172L30.4386 33.3168L24.7261 52.0784L17.0318 70.7236C6.21317 68.1133 3.50847 57.9051 3.50845 53.1272C-0.781713 38.9569 12.8349 27.6455 20.1794 23.7611Z" fill="#995D36"/>
<path d="M123.219 8.82643C128.316 8.58707 135.2 10.5417 144.233 16.5255L144.686 16.8271L144.705 16.8414L161.105 28.5836C165.951 31.6369 171.631 37.7443 173.195 45.6315C174.797 53.7085 172.003 63.2069 160.656 72.6751C155.002 77.3924 149.894 79.7649 145.329 80.2975C140.72 80.8354 136.823 79.4769 133.702 77.0478C127.579 72.2825 124.489 63.469 124.056 56.7275C123.729 51.6301 122.902 43.7155 121.493 36.5659C120.787 32.988 119.945 29.6486 118.964 26.9658C117.954 24.2024 116.897 22.4289 115.927 21.6598C115.221 21.0999 115.103 20.0738 115.663 19.3678C116.223 18.6619 117.249 18.5434 117.956 19.1033C119.69 20.4784 120.997 23.0203 122.03 25.8458C123.092 28.752 123.974 32.275 124.695 35.9347C126.14 43.2603 126.98 51.3223 127.314 56.5186C127.711 62.7122 130.578 70.4811 135.707 74.4732C138.212 76.4228 141.266 77.4867 144.951 77.0567C148.681 76.6214 153.212 74.6355 158.564 70.1701C169.227 61.273 171.31 52.9031 169.993 46.266C168.644 39.4637 163.641 34.0245 159.326 31.3192L159.283 31.2926L142.827 19.5101C133.896 13.5163 127.576 11.8882 123.372 12.0857C119.22 12.2807 117.03 14.2503 116.15 15.819C115.709 16.6049 114.714 16.8847 113.928 16.444C113.142 16.0033 112.862 15.009 113.303 14.2231C114.754 11.6355 117.985 9.07221 123.219 8.82643Z" fill="#37291B"/>
<path d="M136.863 74.9222C137.762 74.9789 138.446 75.7539 138.389 76.6531C137.61 89.0143 131.821 97.3525 124.899 102.701C118.029 108.009 110.058 110.368 104.752 110.919C103.856 111.012 103.053 110.361 102.96 109.464C102.867 108.568 103.519 107.766 104.415 107.673C109.214 107.175 116.585 105.001 122.903 100.119C129.171 95.2762 134.418 87.766 135.131 76.4478C135.188 75.5486 135.963 74.8656 136.863 74.9222Z" fill="#37291B"/>
<path d="M40.1517 106.268C40.8589 105.709 41.8852 105.829 42.4442 106.536C43.0031 107.243 42.8831 108.269 42.176 108.828C39.0335 111.311 34.5582 115.62 31.0229 120.693C27.4593 125.807 25.0308 131.438 25.5346 136.64C26.1749 143.254 30.1666 148.484 36.4747 150.573C42.8266 152.676 51.8205 151.677 62.4539 145.083C63.2199 144.608 64.2261 144.844 64.7013 145.61C65.1764 146.375 64.9406 147.381 64.1746 147.856C53.0075 154.78 42.9986 156.17 35.4482 153.67C27.8542 151.156 23.044 144.791 22.2853 136.955C21.6699 130.598 24.6237 124.167 28.3443 118.828C32.0934 113.448 36.8046 108.913 40.1517 106.268Z" fill="#37291B"/>
<path d="M36.9512 127.429C39.9213 125.308 46.5556 125.593 54.2917 134.567C61.6898 143.149 69.2977 148.389 72.0986 149.909C77.4625 152.431 86.2771 154.897 95.2264 154.117C104.124 153.342 113.117 149.374 119.144 139.007C119.597 138.228 120.596 137.964 121.375 138.417C122.155 138.869 122.419 139.868 121.966 140.647C115.31 152.095 105.261 156.518 95.5099 157.368C85.8344 158.211 76.416 155.554 70.6616 152.839L70.622 152.82L70.5835 152.8C67.449 151.109 59.4986 145.606 51.8189 136.697C44.4462 128.144 39.6867 129.486 38.8484 130.084C38.1149 130.608 37.0956 130.438 36.5717 129.705C36.0478 128.972 36.2177 127.953 36.9512 127.429Z" fill="#37291B"/>
<path d="M47.496 119.859C51.5117 117.921 57.0456 117.431 64.236 120.12C68.5594 121.737 72.6944 123.641 76.4673 125.228C80.2962 126.84 83.7917 128.146 87.0737 128.723C90.3241 129.295 93.2893 129.139 96.1018 127.892C98.9261 126.639 101.769 124.21 104.625 119.928C105.125 119.178 106.138 118.975 106.888 119.475C107.638 119.975 107.841 120.988 107.341 121.738C104.251 126.37 100.973 129.301 97.4256 130.874C93.8663 132.453 90.2083 132.588 86.5076 131.937C82.8385 131.291 79.0549 129.858 75.2004 128.236C71.29 126.59 67.3372 124.764 63.092 123.176C56.5726 120.738 51.9835 121.317 48.915 122.797C45.7955 124.302 44.0447 126.835 43.3972 128.615C43.0891 129.462 42.1527 129.899 41.3056 129.591C40.4585 129.283 40.0216 128.347 40.3297 127.5C41.2366 125.007 43.5312 121.772 47.496 119.859Z" fill="#37291B"/>
<path d="M88.2891 117.371C91.1903 116.995 94.1559 117.193 96.7184 118.504C99.3336 119.842 101.327 122.236 102.416 125.838C102.676 126.7 102.188 127.611 101.325 127.871C100.462 128.132 99.5516 127.644 99.2909 126.782C98.4211 123.904 96.9482 122.287 95.2313 121.408C93.4616 120.503 91.2292 120.28 88.7085 120.606C83.638 121.263 78.0114 124.064 74.3638 126.501C73.6144 127.001 72.601 126.8 72.1001 126.051C71.5992 125.302 71.8006 124.289 72.55 123.788C76.4024 121.214 82.5157 118.118 88.2891 117.371Z" fill="#37291B"/>
<path d="M91.0671 125.696C91.1487 124.799 91.9427 124.137 92.8404 124.219C93.4717 124.276 94.5029 124.483 95.4355 125.393C96.3461 126.281 96.9617 127.643 97.2245 129.587C97.3452 130.48 96.719 131.302 95.8257 131.422C94.9325 131.543 94.1105 130.917 93.9898 130.024C93.7863 128.519 93.372 127.939 93.1558 127.728C92.9614 127.538 92.7685 127.489 92.5449 127.468C91.6472 127.387 90.9855 126.593 91.0671 125.696Z" fill="#37291B"/>
<path d="M108.1 157.339C108.92 156.964 109.888 157.323 110.264 158.142C110.64 158.961 110.281 159.929 109.461 160.305C107.165 161.358 104.686 163.053 102.562 165.107C100.431 167.168 98.7448 169.506 97.9152 171.811C97.0981 174.082 97.1297 176.24 98.2699 178.183C99.4401 180.176 101.937 182.218 106.635 183.85C107.487 184.146 107.937 185.076 107.641 185.927C107.345 186.778 106.415 187.229 105.564 186.933C100.469 185.162 97.1661 182.75 95.4545 179.834C93.713 176.867 93.7811 173.66 94.8438 170.707C95.894 167.789 97.9312 165.045 100.292 162.762C102.661 160.471 105.442 158.558 108.1 157.339Z" fill="#37291B"/>
<path d="M121.541 101.505C122.368 101.148 123.329 101.529 123.686 102.356C131.61 120.703 135.161 129.787 137.139 136.507C139.115 143.222 139.526 147.632 141.162 156.306C143.945 171.061 137.665 184.212 133.503 189.305C131.318 192.274 126.405 195.26 120.015 197.305C113.511 199.386 105.217 200.578 96.0377 199.718C91.4631 199.289 88.3059 198.094 86.7117 196.061C84.9539 193.819 85.5085 191.195 86.8324 189.127C88.1519 187.065 90.4086 185.189 92.9528 183.832C95.5088 182.47 98.5157 181.546 101.436 181.546C102.337 181.546 103.068 182.276 103.068 183.177C103.068 184.078 102.337 184.809 101.436 184.809C99.1684 184.809 96.6874 185.539 94.4891 186.711C92.2791 187.889 90.5152 189.427 89.5818 190.885C88.6529 192.336 88.7223 193.336 89.2808 194.048C90.0029 194.969 91.9636 196.058 96.3423 196.469C105.07 197.287 112.922 196.148 119.02 194.197C125.203 192.219 129.333 189.49 130.893 187.345L130.921 187.306L130.952 187.269C134.639 182.78 140.527 170.555 137.954 156.91C136.269 147.975 135.922 143.936 134.007 137.428C132.093 130.924 128.62 122.011 120.689 103.65C120.332 102.822 120.713 101.862 121.541 101.505Z" fill="#37291B"/>
<path d="M52.2796 7.89195C67.7862 -1.52436 89.6681 -4.42012 117.913 9.9629C118.716 10.3719 119.036 11.3544 118.626 12.1572C118.217 12.9601 117.234 13.2793 116.431 12.8703C89.0673 -1.06404 68.3985 1.92174 53.9743 10.6808C39.4259 19.5152 31.0021 34.3599 28.5263 44.4273C27.4466 48.8177 26.978 51.1987 26.024 53.9212C25.0641 56.6602 23.6145 59.7555 20.5875 65.7486C17.652 71.5603 16.8882 75.8305 17.0158 79.079C17.1428 82.3092 18.151 84.678 19.0886 86.802C23.3119 95.1685 30.3235 100.584 37.5342 104.085C44.7596 107.592 52.0969 109.131 56.7757 109.777C57.6686 109.901 58.2923 110.724 58.169 111.617C58.0456 112.509 57.2216 113.133 56.3287 113.01C51.4479 112.335 43.7466 110.728 36.1082 107.02C28.464 103.309 20.7952 97.45 16.1567 88.2379L16.1383 88.201L16.1215 88.1633C15.1603 85.9868 13.908 83.1217 13.7541 79.2071C13.6001 75.2887 14.5464 70.4691 17.6734 64.278C20.7089 58.2683 22.0637 55.3523 22.9432 52.8426C23.8285 50.3165 24.2343 48.2112 25.3564 43.6484C28.0101 32.8574 36.8973 17.2328 52.2796 7.89195Z" fill="#37291B"/>
<path d="M45.8571 5.51865C50.1307 5.05983 53.4862 6.0478 55.3625 6.5754C56.2302 6.8194 56.7357 7.7205 56.4916 8.58786C56.2475 9.45515 55.3463 9.96053 54.4786 9.71653C52.6243 9.19511 49.8012 8.37688 46.2057 8.76288C42.6419 9.1455 38.18 10.7323 33.1701 15.2951C21.3192 26.0882 18.6984 26.4214 12.3165 31.3455C6.61254 35.7467 3.05571 43.2582 3.27381 50.5909C3.48857 57.811 7.35988 64.9187 16.7177 68.7478C17.5518 69.0892 17.9512 70.0418 17.6098 70.8757C17.2683 71.7095 16.3152 72.1087 15.4811 71.7674C4.90358 67.4393 0.263181 59.1686 0.0109258 50.6878C-0.23797 42.3198 3.78273 33.8081 10.3219 28.7625C17.2851 23.3898 19.1565 23.6437 30.9717 12.8832C36.454 7.89023 41.5517 5.98088 45.8571 5.51865Z" fill="#37291B"/>
<path d="M59.7305 183.317C60.1039 182.497 61.0716 182.135 61.892 182.508C64.8499 183.854 69.7641 185.747 74.8238 187.023C79.9729 188.322 84.9187 188.887 88.1379 187.909C89.0003 187.647 89.9119 188.134 90.1739 188.996C90.4359 189.858 89.9493 190.769 89.0869 191.031C84.9382 192.291 79.2167 191.496 74.0253 190.187C68.7443 188.855 63.6442 186.89 60.5399 185.478C59.7195 185.105 59.3571 184.137 59.7305 183.317Z" fill="#37291B"/>
<path d="M36.5258 187.837C37.1705 187.207 38.2037 187.219 38.8337 187.863C39.4637 188.508 39.4519 189.541 38.8073 190.17C38.0847 190.876 37.4062 191.846 37.0859 192.705C36.7379 193.639 36.9882 193.832 36.9978 193.84C37.6737 194.436 37.7381 195.467 37.1417 196.143C36.5453 196.818 35.5138 196.883 34.8379 196.287C33.262 194.897 33.5318 192.895 34.0271 191.566C34.5501 190.163 35.5387 188.801 36.5258 187.837ZM36.7487 153.052C37.1038 152.224 38.0633 151.84 38.8918 152.195C39.7203 152.55 40.1041 153.509 39.7491 154.337C38.2288 157.883 36.7224 163.088 37.5022 168.235C38.262 173.25 41.2184 178.42 49.0757 182.045C49.8941 182.423 50.2513 183.392 49.8736 184.21C49.4958 185.028 48.5261 185.385 47.7077 185.008C38.8941 180.942 35.2055 174.867 34.2748 168.724C33.3642 162.713 35.1217 156.847 36.7487 153.052Z" fill="#37291B"/>
<path d="M44.021 188.39C44.6179 187.715 45.6494 187.651 46.3249 188.248C47.0003 188.845 47.0641 189.876 46.4672 190.551C45.7186 191.398 44.9704 192.325 44.6235 193.117C44.4716 193.463 44.4608 193.645 44.4637 193.702C44.4793 193.718 44.513 193.748 44.5775 193.787C45.3475 194.255 45.5917 195.259 45.1231 196.029C44.6544 196.798 43.6502 197.042 42.8803 196.574C41.981 196.027 41.398 195.218 41.2411 194.228C41.0982 193.326 41.3412 192.475 41.6332 191.808C42.211 190.489 43.293 189.213 44.021 188.39Z" fill="#37291B"/>
<path d="M36.875 181.36C39.3831 180.205 42.3157 179.61 45.067 180.316C45.9401 180.539 46.4665 181.428 46.2426 182.301C46.0187 183.174 45.1294 183.7 44.2562 183.476C42.461 183.016 40.3192 183.366 38.2407 184.323C36.1702 185.277 34.3471 186.751 33.2287 188.262C32.0577 189.844 31.9341 191.038 32.2591 191.728C32.5842 192.419 33.7627 193.476 37.3424 193.788C44.5921 194.421 52.572 194.299 58.7579 193.196C61.8627 192.642 64.4026 191.859 66.1581 190.877C67.9307 189.884 68.6033 188.871 68.6828 187.934C68.7589 187.036 69.5488 186.37 70.447 186.446C71.3451 186.522 72.0115 187.312 71.9354 188.21C71.7235 190.71 69.948 192.494 67.7533 193.723C65.5414 194.962 62.5949 195.825 59.3315 196.408C52.7811 197.576 44.498 197.688 37.0585 197.039C33.1657 196.699 30.4038 195.449 29.3059 193.118C28.2079 190.787 29.1789 188.247 30.6047 186.321C32.083 184.324 34.359 182.518 36.875 181.36Z" fill="#37291B"/>
<path d="M94.0035 190.057C94.5806 189.365 95.6099 189.271 96.3024 189.848C96.9948 190.425 97.0884 191.454 96.5114 192.146C95.7862 193.016 95.1088 194.082 94.9045 195.007C94.809 195.44 94.8369 195.752 94.9266 195.982C95.0095 196.194 95.2041 196.491 95.7354 196.804C96.5123 197.26 96.7716 198.26 96.3146 199.037C95.8576 199.813 94.8572 200.073 94.0803 199.616C93.0262 198.996 92.2772 198.171 91.8855 197.168C91.5006 196.181 91.5229 195.182 91.7168 194.304C92.0915 192.607 93.1743 191.051 94.0035 190.057Z" fill="#37291B"/>
<path d="M101.707 189.735C102.205 188.984 103.218 188.778 103.969 189.275C104.721 189.773 104.927 190.785 104.429 191.536C103.477 192.974 102.58 194.411 102.296 195.506C102.186 195.931 102.222 196.108 102.233 196.148C102.279 196.189 102.44 196.294 102.876 196.369C103.765 196.52 104.362 197.363 104.211 198.252C104.059 199.14 103.216 199.737 102.327 199.585C101.091 199.374 99.9811 198.826 99.3761 197.731C98.8035 196.695 98.909 195.561 99.1366 194.685C99.5845 192.962 100.833 191.055 101.707 189.735Z" fill="#37291B"/>
<path d="M162.063 111.861C163.478 111.223 164.864 111.917 165.909 112.822C167.004 113.769 168.226 115.345 169.631 117.654C172.602 122.536 173.58 128.77 173.666 134.424C173.701 136.696 173.592 138.908 173.398 140.949C173.593 140.724 173.804 140.511 174.029 140.325C174.558 139.886 175.758 139.142 177.063 139.878C177.629 140.197 177.991 140.699 178.227 141.18C178.466 141.665 178.63 142.239 178.745 142.873C178.976 144.14 179.056 145.904 178.961 148.283C178.75 153.536 175.725 158.042 172.293 161.451C171.308 162.428 170.274 163.332 169.235 164.154C169.702 164.265 170.159 164.43 170.568 164.672C171.328 165.121 172.014 165.908 172.059 167.051C172.1 168.068 171.61 169.002 170.985 169.795C169.724 171.394 167.202 173.308 163.093 175.625C155.294 180.024 151.085 181.856 147.654 182.591C145.92 182.962 144.43 183.045 142.862 183.069C141.279 183.094 139.692 183.06 137.546 183.175C136.646 183.223 135.878 182.532 135.83 181.633C135.782 180.733 136.472 179.965 137.372 179.917C139.598 179.798 141.354 179.829 142.812 179.806C144.286 179.784 145.536 179.708 146.97 179.4C149.874 178.778 153.709 177.172 161.489 172.783C165.541 170.498 167.58 168.842 168.421 167.776C168.549 167.614 168.633 167.485 168.689 167.387C168.516 167.33 168.26 167.272 167.907 167.239C167.374 167.19 166.728 167.207 166.031 167.3C165.163 167.415 164.294 167.637 163.537 167.932C163.012 168.217 162.516 168.469 162.057 168.687L160.461 165.85C160.973 165.512 161.545 165.22 162.146 164.973C164.475 163.69 167.429 161.681 169.992 159.136C173.16 155.99 175.536 152.222 175.699 148.152C175.789 145.913 175.704 144.437 175.542 143.51C175.478 143.604 175.413 143.705 175.349 143.813L175.335 143.835L175.321 143.857L171.94 149.101L168.984 147.826C169.711 144.882 170.484 139.854 170.402 134.474C170.32 129.065 169.374 123.511 166.842 119.35C165.496 117.137 164.483 115.903 163.772 115.288C163.607 115.145 163.478 115.052 163.381 114.99C163.338 115.087 163.286 115.224 163.233 115.418C163.07 116.01 162.99 116.792 162.99 117.57V117.613L162.988 117.656C161.834 139.471 147.948 153.431 141.004 157.759C140.239 158.236 139.233 158.002 138.756 157.238C138.279 156.473 138.512 155.467 139.277 154.99C145.542 151.085 158.629 138.006 159.726 117.517C159.73 116.578 159.824 115.504 160.086 114.552C160.321 113.697 160.833 112.415 162.063 111.861Z" fill="#37291B"/>
<path d="M73.4803 43.4135C73.6322 42.5254 74.4756 41.9284 75.3641 42.0802C76.2526 42.232 76.8498 43.0753 76.6979 43.9634C76.5468 44.8471 76.6156 45.8 76.9896 46.6227C77.347 47.4089 78.0255 48.1766 79.3032 48.693C81.992 49.7795 87.4053 49.765 97.454 45.7842C98.292 45.4522 99.2406 45.8622 99.5727 46.6999C99.9048 47.5375 99.4947 48.4857 98.6567 48.8177C88.4672 52.8543 82.0087 53.3058 78.0796 51.718C76.0484 50.8972 74.7314 49.5425 74.0177 47.9726C73.3206 46.4392 73.2429 44.8022 73.4803 43.4135Z" fill="#37291B"/>
<path d="M58.4868 43.6165C59.0417 42.9065 60.0673 42.7804 60.7777 43.335C61.1599 43.6333 61.5115 44.0225 61.7347 44.5481C61.9525 45.0612 61.9919 45.5733 61.9679 46.0278C61.9253 46.8336 61.6417 47.8645 61.3542 48.9873C61.1307 49.8601 60.2417 50.3867 59.3685 50.1633C58.4952 49.9399 57.9685 49.0512 58.192 48.1784C58.3526 47.551 58.4778 47.0712 58.5695 46.6671C58.6619 46.2596 58.6997 46.0143 58.7082 45.8568C58.0515 45.2924 57.9482 44.306 58.4868 43.6165Z" fill="#37291B"/>
<path d="M41.9006 42.3243C42.6543 41.83 43.6662 42.0399 44.1608 42.7932C44.7177 43.6415 47.8479 46.8629 54.5494 48.7609C55.4166 49.0065 55.9206 49.9085 55.6749 50.7754C55.4292 51.6423 54.5268 52.146 53.6596 51.9004C46.3714 49.8363 42.5068 46.2211 41.4316 44.5835C40.937 43.8302 41.147 42.8187 41.9006 42.3243Z" fill="#37291B"/>
<path d="M96.5397 61.4013C96.5397 65.3915 93.7211 68.6263 90.2443 68.6263C86.7675 68.6263 83.949 65.3915 83.949 61.4013C83.949 57.411 86.7675 54.1763 90.2443 54.1763C93.7211 54.1763 96.5397 57.411 96.5397 61.4013Z" fill="#37291B"/>
<path d="M54.5709 58.7209C54.5709 62.1319 52.0061 65.5963 48.5087 65.3632C45.0113 65.3632 43.146 62.598 43.146 59.187C43.146 55.776 46.4102 52.1951 49.5579 52.5447C52.5197 52.5447 54.5709 55.3099 54.5709 58.7209Z" fill="#37291B"/>
<path d="M74.5035 71.3543C74.5035 75.4578 69.925 80.3377 62.778 81.3358C56.1788 81.3358 53.2859 74.7231 53.2859 71.3543C53.2859 67.9854 57.1839 65.2544 63.783 65.2544C70.3822 65.2544 74.5035 67.9854 74.5035 71.3543Z" fill="#37291B"/>
<path d="M61.1404 78.7502C61.3415 77.8719 62.2168 77.3229 63.0954 77.5239C63.974 77.7249 64.5233 78.5998 64.3222 79.4781C63.9622 81.0501 63.7164 82.4586 63.6136 83.5881C63.5031 84.8039 63.5879 85.4273 63.6637 85.617C63.9984 86.4536 63.5911 87.403 62.7541 87.7375C61.9171 88.072 60.9675 87.6648 60.6329 86.8283C60.2426 85.8526 60.2497 84.5338 60.3626 83.2927C60.4833 81.9653 60.7621 80.4022 61.1404 78.7502Z" fill="#37291B"/>
<path d="M62.1921 85.5348C66.7106 84.5526 72.5776 86.26 79.8855 92.5622C80.568 93.1508 80.6439 94.1808 80.0551 94.8631C79.4663 95.5453 78.4359 95.6212 77.7534 95.0326C70.7919 89.0291 65.9528 88.0563 62.8857 88.723C59.8095 89.3918 57.9266 91.8395 57.1573 93.9959C56.8546 94.8445 55.9206 95.2872 55.0716 94.9846C54.2227 94.6819 53.7799 93.7486 54.0825 92.9C55.1008 90.0455 57.6829 86.515 62.1921 85.5348Z" fill="#37291B"/>
<path d="M41.8636 75.2686C41.8636 81.7689 35.2207 87.8541 29.0397 87.8541C22.8587 87.8541 18.6641 82.7011 18.6641 76.2009C18.6641 69.7006 23.6748 63.3823 29.8558 63.3823C36.0368 63.3823 41.8636 68.7684 41.8636 75.2686Z" fill="#FCABA3"/>
<path d="M120.206 78.7646C120.322 87.1549 113.563 90.1847 107.382 90.1847C101.201 90.1847 95.0242 85.2648 95.0242 78.7646C95.0242 72.2643 99.2211 66.8783 108.198 66.8783C116.592 66.7618 120.206 72.2643 120.206 78.7646Z" fill="#FCABA3"/>
</svg>
