<svg width="210" height="102" viewBox="0 0 210 102" fill="none" xmlns="http://www.w3.org/2000/svg">
<path d="M8.37555 102C3.74986 102 -0.0366204 98.2435 0.352717 93.6343C1.24206 83.1055 3.80648 72.7578 7.96939 62.9663C13.2308 50.5911 20.9425 39.3467 30.6643 29.8751C40.386 20.4035 51.9275 12.8903 64.6296 7.76428C77.3317 2.6383 90.9457 -1.75652e-06 104.694 0C118.443 1.75652e-06 132.057 2.63831 144.759 7.76429C157.461 12.8903 169.003 20.4035 178.724 29.8751C188.446 39.3467 196.158 50.5911 201.419 62.9663C205.582 72.7578 208.147 83.1055 209.036 93.6343C209.425 98.2436 205.639 102 201.013 102C196.387 102 192.681 98.2409 192.218 93.6385C191.374 85.2548 189.264 77.0226 185.943 69.2117C181.524 58.8165 175.046 49.3712 166.88 41.4151C158.713 33.459 149.019 27.1478 138.349 22.842C127.679 18.5362 116.243 16.32 104.694 16.32C93.1455 16.32 81.7097 18.5362 71.0399 22.842C60.3702 27.1478 50.6754 33.459 42.5091 41.4151C34.3428 49.3712 27.865 58.8165 23.4454 69.2117C20.1246 77.0225 18.0147 85.2547 17.1709 93.6384C16.7076 98.2409 13.0012 102 8.37555 102Z" fill="#FFF7E8"/>
</svg>
