<svg width="186" height="102" viewBox="0 0 186 102" fill="none" xmlns="http://www.w3.org/2000/svg">
<path d="M8.37555 102C3.74986 102 -0.036646 98.2433 0.352651 93.6341C1.92113 75.0633 8.68873 57.2069 19.9949 42.0459C32.9904 24.6194 51.3149 11.6485 72.342 4.99223C93.3692 -1.66408 116.02 -1.66408 137.047 4.99225C155.325 10.7785 171.562 21.3364 184.031 35.4448C187.119 38.9396 186.257 44.2665 182.45 46.9612C178.774 49.563 173.723 48.727 170.704 45.3856C160.316 33.8891 146.917 25.2766 131.87 20.5135C114.208 14.9222 95.1812 14.9222 77.5184 20.5135C59.8556 26.1048 44.463 37.0003 33.5468 51.6386C24.3207 64.0103 18.6925 78.5187 17.1708 93.6383C16.7076 98.2407 13.0012 102 8.37555 102Z" fill="#FFCD71"/>
</svg>
