<svg width="182" height="200" viewBox="0 0 182 200" fill="none" xmlns="http://www.w3.org/2000/svg">
<path d="M13.2686 11.3574C-6.34162 42.4283 15.6674 59.8304 29.1232 64.6476L27.7739 73.2283C9.33313 92.6476 29.8354 107.438 42.3916 112.406C14.4156 137.786 28.0363 152.185 38.3436 156.212C27.1892 170.573 36.3946 181.991 42.3916 185.905C37.9688 184.965 28.8533 185.115 27.7739 193.244C26.6945 201.373 53.9359 196.631 67.6915 193.244H79.8354C73.3586 199.838 93.4786 199.379 104.348 198.325C149.236 194.26 133.021 139.352 119.303 112.406C127.939 106.986 132.796 96.5239 134.146 91.9702C134.558 89.411 135.428 84.2476 135.608 84.067C135.787 83.8863 134.183 79.5508 133.359 77.4057L132.572 68.4863C154.88 71.5573 164.056 51.3251 165.855 40.8251C167.467 32.2069 166.192 13.0961 148.201 5.59938C130.21 -1.89738 115.068 18.1316 109.745 29.0832C90.7649 17.7929 66.6795 22.7983 57.0093 26.7122C45.9448 -8.69416 23.2386 1.72302 13.2686 11.3574Z" fill="#ADADAB"/>
<path d="M13.1906 11.2757C18.1856 6.44895 26.3846 1.41091 34.7368 2.03156C43.0892 2.65224 51.54 8.92485 57.0799 26.5622C61.9444 24.6115 70.3399 22.4101 79.8821 22.0829C89.4633 21.7543 100.209 23.3151 109.698 28.9241C112.378 23.4448 117.48 15.7513 124.152 10.335C130.869 4.8815 139.196 1.72451 148.244 5.49473C157.274 9.25743 162.11 15.9371 164.485 22.7541C166.858 29.5666 166.774 36.5181 165.966 40.8437C165.063 46.1091 162.313 53.8135 156.988 59.8196C151.682 65.8055 143.818 70.1028 132.696 68.6163L133.469 77.3795C133.881 78.4528 134.486 80.0655 134.966 81.4352C135.207 82.1229 135.417 82.7509 135.556 83.2189C135.625 83.4525 135.677 83.649 135.706 83.794C135.721 83.866 135.731 83.9293 135.733 83.9799C135.735 84.005 135.734 84.0314 135.73 84.056C135.727 84.0754 135.719 84.1088 135.694 84.138C135.696 84.1354 135.695 84.1367 135.691 84.1451C135.686 84.1553 135.68 84.1711 135.672 84.1934C135.657 84.2378 135.639 84.3007 135.619 84.3813C135.578 84.5421 135.528 84.7665 135.471 85.0406C135.358 85.5885 135.22 86.3297 135.074 87.1461C134.783 88.7786 134.463 90.7087 134.257 91.9879L134.255 91.9949L134.254 92.002C133.576 94.2892 132.02 98.0528 129.552 101.924C127.1 105.769 123.744 109.726 119.45 112.446C126.299 125.927 133.758 146.356 133.915 163.944C133.994 172.76 132.239 180.874 127.641 187.042C123.04 193.213 115.605 197.418 104.359 198.437L104.359 198.437C98.9217 198.964 91.1655 199.343 85.5752 198.764C84.1772 198.619 82.9119 198.414 81.8507 198.136C80.7914 197.858 79.9266 197.504 79.3368 197.058C78.7438 196.608 78.4187 196.056 78.4711 195.39C78.5186 194.785 78.8768 194.11 79.5726 193.357H67.7046C60.8239 195.05 50.5757 197.082 42.1774 197.675C37.9775 197.972 34.2291 197.909 31.5943 197.259C30.2774 196.934 29.2261 196.46 28.5372 195.798C27.8428 195.132 27.5226 194.281 27.6623 193.229C27.935 191.175 28.7167 189.619 29.8095 188.458C30.9012 187.298 32.2985 186.538 33.7953 186.066C36.5522 185.196 39.6612 185.298 41.8721 185.689C38.9391 183.643 35.4117 179.921 33.8287 175.011C32.1688 169.862 32.6515 163.421 38.1632 156.261C33.0219 154.212 27.0951 149.599 25.9003 142.334C24.6981 135.025 28.2951 125.085 42.1825 112.443C35.9157 109.934 27.7338 105.012 23.3646 98.2977C21.1586 94.9077 19.9221 91.0571 20.4006 86.8305C20.8783 82.6121 23.0626 78.0335 27.668 73.1757L28.9975 64.7216C22.2637 62.2902 13.4267 56.7311 8.69704 47.9008C3.94137 39.0219 3.35093 26.8598 13.1735 11.2967L13.1807 11.2852L13.1906 11.2757ZM34.7201 2.2567C26.4659 1.64337 18.3319 6.62443 13.356 11.4292C3.5761 26.9313 4.18611 39.002 8.89514 47.7939C13.6108 56.5981 22.4498 62.1384 29.1609 64.541L29.2488 64.5723L29.2341 64.6649L27.8795 73.2804L27.8553 73.3058C23.257 78.148 21.0957 82.6919 20.6242 86.8561C20.1528 91.0196 21.3691 94.8182 23.553 98.1742C27.9247 104.892 36.1645 109.82 42.4328 112.3L42.6015 112.367L42.4669 112.489C28.4889 125.17 24.9352 135.079 26.1223 142.298C27.3099 149.518 33.2502 154.101 38.3844 156.106L38.5252 156.161L38.4323 156.281C32.8761 163.435 32.3985 169.841 34.0428 174.941C35.6896 180.05 39.4701 183.864 42.4528 185.81L42.3682 186.016C40.1689 185.548 36.8052 185.352 33.8627 186.281C32.3928 186.745 31.0323 187.488 29.9731 188.613C28.9149 189.737 28.1523 191.248 27.8854 193.259C27.7552 194.239 28.0503 195.018 28.6927 195.635C29.3407 196.257 30.3481 196.719 31.6481 197.04C34.2474 197.681 37.9666 197.746 42.1616 197.45C50.5475 196.858 60.7898 194.827 67.6646 193.134L67.6778 193.131H80.1041L79.9155 193.323C79.1126 194.141 78.7406 194.83 78.6953 195.407C78.6507 195.974 78.92 196.459 79.4723 196.877C80.0277 197.298 80.8593 197.643 81.9074 197.918C82.9537 198.192 84.2069 198.396 85.5983 198.54C91.1661 199.116 98.9048 198.739 104.337 198.212H104.338C115.535 197.198 122.906 193.016 127.461 186.906C132.018 180.793 133.769 172.735 133.69 163.947C133.533 146.368 126.059 125.923 119.203 112.457L119.156 112.364L119.244 112.31C123.543 109.612 126.905 105.656 129.362 101.802C131.817 97.9518 133.364 94.2103 134.036 91.9431C134.242 90.6632 134.562 88.7369 134.853 87.1064C134.999 86.2895 135.137 85.5459 135.251 84.995C135.308 84.7197 135.359 84.4911 135.401 84.325C135.422 84.2422 135.442 84.173 135.459 84.1206C135.468 84.0946 135.477 84.0708 135.486 84.0507C135.491 84.0402 135.498 84.0257 135.508 84.0113C135.508 84.0066 135.509 84.0001 135.509 83.9912C135.507 83.9574 135.5 83.9068 135.486 83.8388C135.459 83.7038 135.409 83.515 135.34 83.2833C135.203 82.8207 134.994 82.197 134.754 81.5102C134.272 80.137 133.666 78.5179 133.254 77.4459L133.248 77.4311L133.247 77.4152L132.447 68.355L132.587 68.3742C143.699 69.9039 151.534 65.6318 156.82 59.6694C162.11 53.7021 164.847 46.0402 165.744 40.8056L165.744 40.804C166.547 36.5112 166.631 29.5993 164.273 22.8286C161.916 16.0616 157.119 9.43739 148.158 5.70333C139.215 1.97683 130.975 5.08586 124.293 10.5105C117.61 15.9364 112.503 23.6667 109.846 29.1325L109.793 29.2423L109.688 29.1801C100.222 23.5493 89.4787 21.9798 79.8898 22.3087C70.3006 22.6375 61.8745 24.8644 57.0512 26.8166L56.9383 26.8623L56.9018 26.7456C51.3767 9.06512 42.9611 2.86908 34.7201 2.2567Z" fill="#ADADAB"/>
<path d="M10.57 35.5183C11.6495 53.2215 23.3886 59.3032 29.1233 60.1311L29.6855 60.4699L44.0783 35.5183C40.4801 8.78286 27.9613 9.17426 22.1517 12.7119C12.7964 13.6151 10.5326 28.2925 10.57 35.5183Z" fill="#FCABA3"/>
<path d="M154.723 56.0668C148.336 64.3765 137.294 65.2496 132.572 64.6474L120.653 41.5023C123.981 26.9604 129.985 19.3357 132.572 17.3411C144.446 7.13465 154.91 16.325 158.659 22.1959C166.575 35.0217 159.333 50.1206 154.723 56.0668Z" fill="#FCABA3"/>
<path d="M119.641 90.841C118.981 97.7281 114.356 102.809 107.047 102.47C99.6255 102.809 94.678 96.5991 95.2402 90.841C95.2402 84.7303 101.115 79.4378 107.946 79.4378C113.793 78.6475 120.203 84.9701 119.641 90.841Z" fill="#FCABA3"/>
<path d="M44.7528 88.5827C44.7528 95.3568 39.9199 99.0826 33.9582 99.0826C27.9965 99.0826 23.8383 94.5333 23.8383 88.9213C23.3885 83.0503 27.3241 77.0665 33.9582 77.9698C39.9199 77.9698 44.7528 82.9708 44.7528 88.5827Z" fill="#FCABA3"/>
<path d="M64.1965 22.7526C80.9679 17.8567 98.9604 21.9588 110.398 27.1931C111.19 27.5551 111.539 28.4925 111.178 29.2869C110.817 30.0812 109.884 30.4317 109.093 30.0697C98.0795 25.0298 80.8884 21.172 65.0754 25.7882C49.4311 30.3551 34.7965 43.3151 28.867 72.6394L28.7776 73.082L28.4686 73.4103C24.1635 77.9851 20.4269 85.3916 22.479 92.9723C24.5181 100.505 32.4806 108.959 53.298 115.181C54.1313 115.43 54.6059 116.31 54.3579 117.147C54.1099 117.983 53.2333 118.46 52.4 118.211C31.2086 111.877 21.9107 102.926 19.4408 93.8014C17.0379 84.9248 21.2951 76.598 25.8712 71.5734C32.0545 41.5869 47.3382 27.6739 64.1965 22.7526Z" fill="#37291B"/>
<path d="M41.7416 112.19C42.4187 111.643 43.4096 111.75 43.9549 112.43C44.5002 113.11 44.3933 114.105 43.7161 114.653C39.5842 117.994 33.9598 123.747 30.4983 130.094C27.0224 136.468 25.9418 142.98 29.9372 148.382C34.0449 153.936 39.6068 155.121 45.1142 154.288C50.7014 153.442 56.0886 150.516 59.3212 148.064C60.0149 147.537 61.0021 147.675 61.5262 148.372C62.0503 149.068 61.9128 150.06 61.2192 150.586C57.7051 153.252 51.8365 156.467 45.5833 157.414C39.2505 158.372 32.3873 156.997 27.4096 150.267C22.3195 143.385 24.0313 135.371 27.7368 128.576C31.4567 121.755 37.4028 115.699 41.7416 112.19Z" fill="#37291B"/>
<path d="M36.8612 133.229C38.297 132.52 40.6349 131.864 43.1354 132.151C45.7103 132.447 48.4167 133.745 50.3595 136.856C51.9025 139.327 54.7361 142.283 57.7542 145.029C60.7208 147.728 63.7545 150.125 65.6477 151.512C71.0298 154.861 79.9936 158.588 89.3593 158.923C98.6766 159.256 108.332 156.246 115.431 146.155C115.933 145.442 116.915 145.272 117.625 145.776C118.335 146.279 118.504 147.266 118.003 147.979C110.169 159.113 99.3975 162.445 89.247 162.082C79.1732 161.721 69.6546 157.736 63.9369 154.167L63.8879 154.137L63.8413 154.103C61.8704 152.662 58.7228 150.176 55.6402 147.371C52.5845 144.591 49.4773 141.394 47.692 138.536C46.3064 136.317 44.4962 135.489 42.7777 135.292C40.9848 135.086 39.2523 135.571 38.2518 136.065C37.4718 136.451 36.5281 136.129 36.1441 135.346C35.7602 134.562 36.0812 133.615 36.8612 133.229Z" fill="#37291B"/>
<path d="M44.2413 125.6C46.7151 124.224 49.7002 123.712 52.986 123.892C59.5226 124.25 67.5985 127.361 76.264 132.617C84.3615 137.528 90.063 137.676 94.0688 136.211C98.159 134.714 100.875 131.4 102.691 128.593C103.164 127.861 104.139 127.653 104.868 128.128C105.597 128.604 105.805 129.582 105.331 130.315C103.398 133.303 100.211 137.328 95.1467 139.181C89.9976 141.065 83.2928 140.573 74.6362 135.323C66.1601 130.182 58.6062 127.366 52.8147 127.049C49.9364 126.891 47.5829 127.355 45.7672 128.365C43.9777 129.361 42.5943 130.95 41.7304 133.28C41.427 134.098 40.5207 134.514 39.7059 134.209C38.8912 133.905 38.4767 132.994 38.78 132.176C39.8839 129.2 41.7411 126.991 44.2413 125.6Z" fill="#37291B"/>
<path d="M36.0348 155.168C36.4223 154.387 37.3673 154.069 38.1456 154.458C38.9239 154.847 39.2408 155.796 38.8534 156.578C36.774 160.772 34.8165 167.23 35.5128 173.023C35.8571 175.886 36.8417 178.531 38.7242 180.689C40.602 182.841 43.4742 184.626 47.7979 185.605C48.646 185.797 49.1784 186.643 48.9872 187.495C48.7959 188.346 47.9534 188.881 47.1053 188.689C42.2536 187.59 38.7485 185.514 36.3559 182.772C33.9682 180.035 32.7895 176.75 32.387 173.401C31.5897 166.769 33.8039 159.668 36.0348 155.168Z" fill="#37291B"/>
<path d="M39.0627 182.606C39.8838 182.319 40.7811 182.755 41.0669 183.579C41.3527 184.404 40.9188 185.305 40.0977 185.592C37.1937 186.607 33.3941 188.357 31.1686 190.283C30.0247 191.274 29.5869 192.062 29.5366 192.583C29.5044 192.916 29.5966 193.587 31.0041 194.523C32.2974 195.383 34.5293 195.908 37.5717 196.042C40.5547 196.174 44.0807 195.923 47.7613 195.439C55.1181 194.471 62.903 192.594 67.8143 191.162C68.6491 190.918 69.5225 191.4 69.7651 192.238C70.0077 193.077 69.5276 193.954 68.6927 194.197C63.6715 195.662 55.7255 197.579 48.1704 198.574C44.395 199.071 40.6694 199.343 37.4331 199.2C34.2563 199.06 31.3008 198.512 29.2658 197.159C27.345 195.882 26.2136 194.237 26.4029 192.277C26.5742 190.504 27.8034 189.022 29.1127 187.889C31.7935 185.569 36.0447 183.661 39.0627 182.606Z" fill="#37291B"/>
<path d="M39.2885 188.955C40.1571 188.918 40.8914 189.595 40.9284 190.467C40.9654 191.339 40.2911 192.077 39.4225 192.114C38.773 192.141 37.6512 192.377 36.6151 193.002C35.6137 193.605 34.7322 194.541 34.3588 196.007C34.1433 196.852 33.286 197.363 32.4437 197.146C31.6015 196.93 31.0933 196.069 31.3087 195.223C31.9249 192.805 33.4234 191.238 34.995 190.291C36.532 189.365 38.1764 189.003 39.2885 188.955Z" fill="#37291B"/>
<path d="M58.6288 187.729C59.116 187.006 60.0946 186.817 60.8147 187.306C63.1031 188.86 70.4571 192.228 80.3975 192.228C81.2669 192.228 81.9717 192.935 81.9717 193.808C81.9717 194.681 81.2669 195.389 80.3975 195.389C69.8282 195.389 61.8599 191.832 59.0507 189.924C58.3306 189.435 58.1417 188.452 58.6288 187.729Z" fill="#37291B"/>
<path d="M100.111 165.864C100.95 165.635 101.815 166.131 102.044 166.973C102.272 167.815 101.778 168.684 100.939 168.914C96.9893 169.996 93.324 173.102 92.2678 176.435C91.7617 178.032 91.8435 179.688 92.7782 181.318C93.7363 182.99 95.6761 184.779 99.159 186.389C99.9488 186.753 100.295 187.692 99.9311 188.485C99.5677 189.278 98.6328 189.625 97.843 189.26C93.9947 187.483 91.4394 185.32 90.0495 182.896C88.6362 180.43 88.5172 177.845 89.2676 175.476C90.7247 170.878 95.4025 167.154 100.111 165.864Z" fill="#37291B"/>
<path d="M117.904 110.437C118.676 110.036 119.626 110.338 120.026 111.113C134.182 138.543 137.531 157.991 135.723 171.42C133.906 184.904 126.893 192.226 120.659 195.233L120.607 195.259L120.552 195.28C113.068 198.224 96.9015 201.288 83.8877 199.438C82.2541 199.205 80.9164 198.809 79.9243 198.198C78.8933 197.564 78.1533 196.636 78.015 195.429C77.8856 194.301 78.325 193.258 78.8897 192.418C79.4659 191.561 80.2813 190.749 81.2045 190.013C83.055 188.535 85.5513 187.191 88.1222 186.278C90.6745 185.371 93.465 184.831 95.8801 185.126C96.7431 185.232 97.3576 186.02 97.2527 186.886C97.1478 187.753 96.363 188.37 95.5 188.265C93.7548 188.051 91.4857 188.437 89.1719 189.258C86.8767 190.074 84.7003 191.261 83.1639 192.487C82.3936 193.102 81.8369 193.685 81.4992 194.187C81.15 194.707 81.1336 194.987 81.1427 195.068C81.1431 195.07 81.1361 195.236 81.5695 195.503C82.0417 195.793 82.8997 196.105 84.3292 196.308C96.6943 198.066 112.262 195.128 119.347 192.358C124.573 189.816 130.927 183.434 132.603 170.996C134.291 158.462 131.23 139.693 117.231 112.568C116.831 111.793 117.132 110.839 117.904 110.437Z" fill="#37291B"/>
<path d="M71.9804 129.034C81.277 124.737 87.9921 124.448 92.6613 126.176C97.3444 127.909 99.6826 131.57 100.371 134.512C100.569 135.362 100.044 136.213 99.1981 136.412C98.3518 136.612 97.5045 136.085 97.3057 135.235C96.8319 133.209 95.1558 130.468 91.5724 129.142C87.975 127.81 82.1714 127.804 73.2972 131.906C72.5075 132.271 71.5725 131.924 71.2089 131.131C70.8453 130.338 71.1907 129.399 71.9804 129.034Z" fill="#37291B"/>
<path d="M85.128 131.78C85.2146 130.912 85.9859 130.278 86.8509 130.365C88.8768 130.568 92.8992 132.295 95.3044 137.226C95.6869 138.01 95.364 138.957 94.5832 139.341C93.8024 139.725 92.8595 139.401 92.4771 138.617C90.5645 134.696 87.5104 133.608 86.5378 133.51C85.6727 133.423 85.0416 132.649 85.128 131.78Z" fill="#37291B"/>
<path d="M18.3716 12.3697C21.8093 9.67373 27.5574 7.4825 33.2887 10.3366C38.9602 13.1609 43.9804 20.6347 46.7507 35.6829C46.9088 36.5413 46.3437 37.3659 45.4888 37.5246C44.6339 37.6833 43.8126 37.1159 43.6546 36.2575C40.9377 21.4994 36.194 15.312 31.8899 13.1686C27.6456 11.055 23.2062 12.5893 20.3095 14.8611C19.6244 15.3984 18.6351 15.2763 18.1 14.5883C17.5648 13.9003 17.6865 12.9071 18.3716 12.3697Z" fill="#37291B"/>
<path d="M55.0975 26.9378C55.0974 17.5517 48.1385 8.12831 39.2277 4.60002C34.8236 2.85619 30.0106 2.58261 25.371 4.41854C20.7281 6.25581 16.0886 10.274 12.174 17.4253C4.67669 31.1219 6.49013 41.5725 11.2659 48.8148C16.138 56.203 24.2059 60.4273 29.3784 61.2813C30.2362 61.423 30.8173 62.2361 30.6763 63.0974C30.5352 63.9588 29.7254 64.5423 28.8675 64.4007C22.8706 63.4106 14.0185 58.7149 8.64083 50.5599C3.16694 42.259 1.40095 30.5431 9.41498 15.9027C13.5965 8.26368 18.7397 3.64464 24.2167 1.47733C29.6971 -0.691297 35.3416 -0.336988 40.3827 1.65903C50.3623 5.61049 58.2459 16.1144 58.2459 26.9378C58.2459 27.8108 57.5411 28.5185 56.6717 28.5185C55.8023 28.5185 55.0975 27.8108 55.0975 26.9378Z" fill="#37291B"/>
<path d="M120.291 11.7006C127.19 4.99231 136.463 0.462227 147.619 3.74002L147.62 3.7398C151.765 4.9232 157.595 8.25184 161.953 14.3974C166.343 20.5872 169.175 29.5452 167.413 41.8401C165.635 54.2449 159.518 61.5225 152.497 65.4834C145.556 69.3994 137.849 70.0123 132.824 69.3768C131.962 69.2677 131.351 68.477 131.459 67.6109C131.568 66.7448 132.355 66.1311 133.218 66.2402C137.714 66.809 144.715 66.2477 150.955 62.7272C157.116 59.2515 162.657 52.8302 164.297 41.3899C165.952 29.8397 163.275 21.7116 159.389 16.231C155.471 10.7063 150.259 7.78007 146.759 6.78068L146.746 6.77715C137.038 3.92007 128.887 7.7437 122.481 13.9716C116.046 20.2283 111.563 28.7598 109.427 34.7004C109.132 35.5214 108.229 35.9466 107.411 35.6501C106.594 35.3536 106.17 34.4477 106.466 33.6267C108.714 27.3738 113.418 18.3826 120.291 11.7006Z" fill="#37291B"/>
<path d="M141.982 10.4526C144.321 10.158 146.655 10.5105 148.556 11.8791C149.263 12.3877 149.425 13.3752 148.918 14.0846C148.412 14.7941 147.428 14.9569 146.722 14.4483C145.643 13.6715 144.174 13.3627 142.374 13.5894C140.571 13.8164 138.54 14.5732 136.515 15.7841C132.445 18.2171 128.701 22.2982 127.08 26.7981C125.19 32.0465 124.926 33.8635 124.272 36.1157C123.607 38.4084 122.616 40.8117 119.455 46.7623C119.046 47.5326 118.093 47.8239 117.325 47.4131C116.558 47.0023 116.268 46.0448 116.677 45.2745C119.813 39.3703 120.678 37.2008 121.249 35.2315C121.833 33.2216 122.187 31.0869 124.12 25.7227C126.031 20.4169 130.327 15.8045 134.904 13.0678C137.202 11.694 139.646 10.7468 141.982 10.4526Z" fill="#37291B"/>
<path d="M119.641 40.9687C120.307 40.4077 121.3 40.4952 121.859 41.1641C123.872 43.5741 128.404 49.9565 130.471 56.3707C131.755 60.3546 132.339 64.8108 133 68.8357C133.678 72.9598 134.435 76.6314 135.978 79.4713C137.039 81.4255 137.388 84.3261 137 87.5482C136.606 90.8202 135.435 94.5996 133.248 98.4295C128.86 106.115 120.397 113.978 105.934 118.433C105.103 118.689 104.223 118.22 103.968 117.385C103.713 116.55 104.18 115.666 105.011 115.41C118.772 111.172 126.557 103.792 130.517 96.8572C132.505 93.3767 133.534 90.0008 133.874 87.169C134.221 84.2874 133.839 82.1355 133.213 80.9849C131.383 77.6151 130.566 73.4398 129.894 69.3503C129.206 65.1616 128.666 61.037 127.476 57.3436C125.584 51.474 121.331 45.4521 119.446 43.1954C118.888 42.5266 118.975 41.5297 119.641 40.9687Z" fill="#37291B"/>
<path d="M91.2613 190.204C92.0638 189.868 92.9853 190.249 93.3197 191.055C93.6541 191.861 93.2748 192.787 92.4722 193.122C87.4847 195.209 87.7466 197.329 87.7397 197.375L87.738 197.373C88.0129 198.201 87.567 199.096 86.7422 199.372C85.9175 199.648 85.0261 199.201 84.7512 198.373C83.9705 196.021 85.6159 192.566 91.2613 190.204Z" fill="#37291B"/>
<path d="M1.21478 79.2539C6.61766 77.9802 12.9234 77.9638 18.5425 78.4298C24.1778 78.8972 29.2394 79.8604 32.2084 80.6153C33.0512 80.8297 33.5614 81.6893 33.348 82.5356C33.1346 83.3818 32.2782 83.8941 31.4354 83.6798C28.6322 82.967 23.7425 82.0333 18.2834 81.5805C12.8082 81.1264 6.87617 81.1664 1.93424 82.3314C1.08789 82.5309 0.240781 82.0038 0.0420251 81.154C-0.156695 80.3042 0.36838 79.4534 1.21478 79.2539Z" fill="#37291B"/>
<path d="M31.0245 87.002C31.8939 86.9964 32.6032 87.6996 32.6088 88.5725C32.6143 89.4454 31.9141 90.1577 31.0447 90.1633C28.2032 90.1814 23.4262 90.5604 18.4451 91.6431C13.4345 92.7322 8.39629 94.4961 4.88965 97.1787C4.1981 97.7077 3.21027 97.5736 2.68338 96.8792C2.15653 96.1849 2.29008 95.193 2.98162 94.664C7.0312 91.566 12.6003 89.6792 17.779 88.5535C22.9871 87.4215 27.9814 87.0215 31.0245 87.002Z" fill="#37291B"/>
<path d="M105.996 80.1156C109.943 80.019 116.567 80.3545 123.736 81.6621C130.891 82.967 138.717 85.2625 144.982 89.1587C145.721 89.6184 145.949 90.5926 145.491 91.3347C145.034 92.0768 144.063 92.3057 143.324 91.8461C137.535 88.2455 130.144 86.0436 123.174 84.7724C116.219 83.504 109.81 83.1845 106.073 83.276C105.204 83.2973 104.482 82.6071 104.461 81.7344C104.44 80.8617 105.127 80.1369 105.996 80.1156Z" fill="#37291B"/>
<path d="M105.631 89.5583C105.839 88.7108 106.693 88.1935 107.537 88.403C110.988 89.2596 116.618 91.1762 122.432 94.1643C128.235 97.1463 134.342 101.257 138.628 106.554C139.176 107.231 139.074 108.227 138.399 108.777C137.724 109.328 136.733 109.225 136.185 108.547C132.285 103.728 126.605 99.86 120.998 96.9785C115.403 94.1033 110.002 92.2714 106.781 91.4721C105.937 91.2626 105.422 90.4057 105.631 89.5583Z" fill="#37291B"/>
<path d="M133.192 40.5649C133.521 40.0362 134.215 39.8755 134.742 40.2059C135.268 40.5364 135.428 41.2331 135.099 41.7619C133.326 44.6106 130.828 45.8248 128.452 46.1543C126.123 46.4773 123.918 45.9543 122.563 45.3591C121.994 45.1092 121.735 44.4435 121.983 43.8722C122.232 43.301 122.895 43.0404 123.464 43.2903C124.508 43.7488 126.295 44.1741 128.145 43.9176C129.948 43.6675 131.817 42.7742 133.192 40.5649Z" fill="#37291B"/>
<path d="M134.208 47.6392C134.682 47.2371 135.392 47.2974 135.792 47.7739C136.193 48.2505 136.133 48.9628 135.658 49.365C133.977 50.7892 131.901 51.3353 130.073 51.4739C128.243 51.6126 126.553 51.3528 125.516 51.0554C124.919 50.8841 124.573 50.2591 124.744 49.6596C124.914 49.0601 125.537 48.7129 126.134 48.8842C126.934 49.1137 128.358 49.3395 129.903 49.2223C131.45 49.105 133.01 48.6536 134.208 47.6392Z" fill="#37291B"/>
<path d="M33.0416 33.3807C33.6585 33.3089 34.2166 33.7527 34.2882 34.3721C34.4188 35.5037 34.945 37.0927 36.0216 38.1978C37.0254 39.2282 38.6107 39.9525 41.2116 39.2798C41.813 39.1243 42.426 39.4877 42.5809 40.0916C42.7358 40.6954 42.3739 41.3109 41.7725 41.4665C38.4364 42.3293 36.0112 41.4164 34.4138 39.7767C32.8892 38.2116 32.2234 36.0974 32.0542 34.6323C31.9827 34.0129 32.4248 33.4525 33.0416 33.3807Z" fill="#37291B"/>
<path d="M38.5415 41.7658C38.8933 41.252 39.5934 41.1219 40.1051 41.4751C40.6168 41.8284 40.7464 42.5314 40.3946 43.0452C39.1078 44.9245 36.9945 45.4664 35.144 45.4933C33.281 45.5204 31.4362 45.0389 30.2863 44.5853C29.7083 44.3573 29.4239 43.7021 29.6509 43.1217C29.878 42.5414 30.5305 42.2558 31.1085 42.4838C32.0576 42.8581 33.6087 43.2574 35.1115 43.2355C36.6267 43.2135 37.8492 42.7768 38.5415 41.7658Z" fill="#37291B"/>
<path d="M147.302 142.306C157.646 169.583 142.317 178.359 133.359 179.338C131.11 180.512 129.573 184.795 129.086 186.789C160.907 188.484 162.369 157.548 154.161 141.29C143.816 113.855 166.754 106.29 175.3 111.596C178.326 113.474 181.742 113.629 179.91 110.58C176.762 105.341 169.116 103.992 165.068 104.483C154.835 105.725 136.957 115.028 147.302 142.306Z" fill="#504D4C"/>
<path d="M165.094 102.89C167.339 102.655 170.392 102.912 173.319 103.882C176.338 104.881 179.422 106.707 181.258 109.763C181.765 110.606 182.202 111.673 181.901 112.725C181.537 114.001 180.395 114.422 179.594 114.507C178.787 114.594 177.896 114.428 177.074 114.163C176.225 113.89 175.328 113.472 174.472 112.94C172.719 111.852 170.069 111.347 167.128 111.708C164.212 112.066 161.16 113.261 158.66 115.375C153.803 119.48 150.641 127.432 155.606 140.659C159.837 149.097 161.592 161.295 158.121 171.292C156.367 176.345 153.262 180.871 148.438 184.008C143.618 187.143 137.213 188.805 129.002 188.368L127.104 188.267L127.557 186.413C127.823 185.323 128.365 183.641 129.152 182.052C129.9 180.541 131.033 178.77 132.632 177.935L132.894 177.799L133.188 177.766C137.33 177.314 142.907 175.051 146.244 169.83C149.543 164.667 150.894 156.221 145.83 142.868C140.52 128.867 142.345 119.113 147.215 112.675C152.004 106.343 159.484 103.569 164.879 102.914L165.094 102.89ZM172.333 106.884C169.814 106.05 167.21 105.848 165.426 106.033L165.256 106.052C160.419 106.639 153.843 109.138 149.722 114.587C145.68 119.931 143.738 128.467 148.773 141.743C154.054 155.668 152.912 165.248 148.893 171.537C145.007 177.62 138.657 180.256 133.877 180.867C133.276 181.286 132.601 182.187 131.971 183.46C131.673 184.062 131.414 184.686 131.199 185.274C137.884 185.329 142.953 183.809 146.727 181.355C150.871 178.659 153.585 174.753 155.148 170.252C158.299 161.174 156.704 149.823 152.757 142.005L152.718 141.929L152.688 141.85C147.347 127.685 150.479 118.158 156.633 112.956C159.642 110.412 163.281 108.996 166.746 108.57C170.186 108.148 173.608 108.687 176.128 110.252C176.785 110.659 177.45 110.965 178.035 111.153C178.202 111.207 178.354 111.248 178.491 111.28C177.168 109.162 174.89 107.73 172.333 106.884Z" fill="#37291B"/>
<path d="M64.6555 95.6957V87.3409C64.6555 86.4679 65.3603 85.7603 66.2297 85.7603C67.0991 85.7603 67.8039 86.4679 67.8039 87.3409V95.6957C67.8039 96.5687 67.0991 97.2764 66.2297 97.2764C65.3603 97.2764 64.6555 96.5687 64.6555 95.6957Z" fill="#37291B"/>
<path d="M66.9452 94.7031C70.7941 94.0273 75.2231 95.3321 79.6446 100.158C80.2332 100.8 80.1917 101.8 79.5519 102.391C78.9121 102.982 77.9162 102.94 77.3276 102.298C73.4733 98.0914 70.0687 97.364 67.4877 97.8172C64.78 98.2926 62.5889 100.134 61.4234 101.716C60.9064 102.418 59.9207 102.566 59.2217 102.047C58.5228 101.528 58.3752 100.538 58.8921 99.8364C60.3878 97.8058 63.223 95.3567 66.9452 94.7031Z" fill="#37291B"/>
<path d="M75.144 60.7216C75.3162 59.866 76.1467 59.3124 76.9989 59.4852C77.851 59.6581 78.4022 60.4918 78.2301 61.3475C78.1044 61.9722 78.1807 62.5792 78.4866 63.0717C78.7807 63.5451 79.4155 64.1196 80.8139 64.4494C83.7286 65.1368 89.4304 64.6242 99.7266 60.5787C100.536 60.2606 101.449 60.6618 101.766 61.4747C102.083 62.2876 101.684 63.2045 100.874 63.5226C90.4805 67.6062 84.0009 68.4484 80.094 67.5269C78.0816 67.0523 76.6455 66.0815 75.8152 64.7449C74.9967 63.4275 74.8949 61.9598 75.144 60.7216Z" fill="#37291B"/>
<path d="M41.8514 58.6642C42.472 58.0529 43.4688 58.0625 44.0776 58.6856C45.8361 60.4852 51.2243 64.4003 58.0444 64.9921C58.9106 65.0672 59.552 65.8331 59.4772 66.7028C59.4023 67.5725 58.6396 68.2166 57.7734 68.1414C50.0208 67.4687 43.9697 63.0892 41.8301 60.8996C41.2213 60.2764 41.2308 59.2756 41.8514 58.6642Z" fill="#37291B"/>
<path d="M63.3642 59.2547C63.5979 58.4139 64.4662 57.9226 65.3036 58.1572C66.141 58.3919 66.6304 59.2638 66.3967 60.1046L65.0474 64.9594C64.8136 65.8002 63.9453 66.2915 63.1079 66.0569C62.2705 65.8222 61.7812 64.9504 62.0149 64.1095L63.3642 59.2547Z" fill="#37291B"/>
<path d="M68.7398 58.3265C68.9251 57.4736 69.7639 56.9331 70.6133 57.1192C71.4627 57.3053 72.0011 58.1475 71.8157 59.0004C71.6007 59.9901 71.3479 61.4721 71.2757 62.705C71.2418 63.2843 71.2543 63.724 71.2959 64.006C71.738 64.383 71.9551 64.9918 71.805 65.5951C71.5941 66.442 70.7393 66.957 69.8958 66.7453C69.2307 66.5783 68.8197 66.1256 68.5935 65.7406C68.3774 65.3728 68.2708 64.9769 68.2112 64.6533C68.0906 63.9998 68.091 63.2332 68.1327 62.5196C68.218 61.0635 68.5051 59.4067 68.7398 58.3265Z" fill="#37291B"/>
<path d="M94.7905 72.6636C94.7905 77.4053 92.8154 79.4378 90.5176 79.4378C88.2199 79.4378 84.8954 79.0989 84.5581 72.6636C84.5581 69.1094 85.4577 66.567 89.0559 65.5507C92.6541 64.5344 94.7905 69.1094 94.7905 72.6636Z" fill="#37291B"/>
<path d="M94.5656 72.6636C94.5656 70.9243 94.0412 68.9377 93.0863 67.5197C92.6098 66.8122 92.0333 66.2566 91.3724 65.937C90.7159 65.6196 89.964 65.5288 89.1167 65.7681C87.3648 66.2629 86.2944 67.1199 85.6538 68.2659C85.0082 69.4208 84.7836 70.896 84.783 72.6561C84.9504 75.8354 85.852 77.4512 86.9392 78.2843C88.0353 79.124 89.3722 79.212 90.5176 79.212V79.4378L90.2993 79.4367C88.015 79.4107 84.8849 78.8977 84.5581 72.6636C84.5581 69.1649 85.4298 66.6466 88.8892 65.5994L89.0559 65.5507C92.6541 64.5344 94.7905 69.1094 94.7905 72.6636L94.789 72.8839C94.7286 77.4683 92.7795 79.4378 90.5176 79.4378V79.212C91.5929 79.212 92.5932 78.7397 93.3325 77.6977C94.077 76.6483 94.5656 75.0068 94.5656 72.6636Z" fill="#37291B"/>
<path d="M56.5597 72.9767C56.5597 77.7185 54.5845 79.7509 52.2868 79.7509C49.9891 79.7509 46.777 78.9861 46.4397 72.5508C46.4397 68.9966 48.1264 64.9498 50.825 65.8639C53.5237 66.778 56.5597 66.567 56.5597 72.9767Z" fill="#37291B"/>
<path d="M56.3348 72.9768C56.3348 69.8036 55.5836 68.3382 54.5655 67.5371C54.0487 67.1305 53.4463 66.8806 52.7923 66.6749C52.4651 66.572 52.13 66.4815 51.7867 66.3867C51.4453 66.2924 51.0972 66.1943 50.7532 66.0778C50.1401 65.8701 49.5951 65.9445 49.1124 66.2196C48.622 66.499 48.1833 66.9935 47.8158 67.6432C47.0814 68.9415 46.6657 70.7978 46.6646 72.5434C46.8321 75.7241 47.7069 77.4539 48.7762 78.3941C49.8479 79.3364 51.1588 79.5251 52.2868 79.5251V79.7509L52.0689 79.7485C49.7912 79.6976 46.7665 78.785 46.4397 72.5507C46.4397 68.9965 48.1264 64.9498 50.825 65.8639C53.5237 66.778 56.5597 66.567 56.5597 72.9768L56.5581 73.197C56.4977 77.7815 54.5486 79.7509 52.2868 79.7509V79.5251C53.3621 79.5251 54.3623 79.0529 55.1016 78.0109C55.8461 76.9615 56.3348 75.3199 56.3348 72.9768Z" fill="#37291B"/>
<path d="M72.1891 81.357C72.1891 84.163 72.1891 88.357 65.6674 88.8086C58.1336 88.8086 57.459 83.728 57.459 80.7925C57.4589 78.0649 61.1928 76.2764 65.1052 76.2764C69.0175 76.2764 71.6269 78.4215 72.1891 81.357Z" fill="#FDACA1"/>
<path d="M65.2877 76.2779C69.0986 76.3436 71.6357 78.4674 72.1891 81.357C72.1891 84.163 72.1891 88.357 65.6674 88.8086L65.4921 88.8077C58.1232 88.7294 57.459 83.705 57.459 80.7925C57.4589 78.0649 61.1928 76.2764 65.1052 76.2764L65.2877 76.2779ZM65.1052 79.4377C63.5744 79.4377 62.2075 79.7967 61.3359 80.2796C60.8278 80.5611 60.6578 80.7699 60.6078 80.8564C60.6136 82.1599 60.797 83.3208 61.3403 84.1218C61.7258 84.6903 62.6567 85.6235 65.5589 85.6462C67.9999 85.4559 68.4807 84.6821 68.6296 84.4162C68.9474 83.8486 69.0281 83.0489 69.0389 81.7127C68.7181 80.6009 67.6159 79.4377 65.1052 79.4377Z" fill="#37291B"/>
</svg>
