<svg width="334" height="334" viewBox="0 0 334 334" fill="none" xmlns="http://www.w3.org/2000/svg">
<g filter="url(#filter0_d_437_1443)">
<path d="M293.689 106.984L301.283 154.903C312.712 143.186 315.328 120.365 315.207 110.419C314.725 99.871 307.116 73.311 276.871 62.2034C245.045 50.515 223.828 63.2229 215.028 73.1685L198.03 161.956L222.442 270.454L250.832 250.201L256.438 114.94L293.689 106.984Z" fill="#BB794A"/>
<path d="M104.669 8.691C119.281 6.52104 124.621 23.0971 125.465 31.6563C133.12 31.6563 149.19 31.7648 152.228 32.1988C155.266 32.6328 166.867 34.9584 170.544 36.164C175.752 16.7791 188.152 10.8006 195.446 10.1376C221.63 18.8174 213.581 54.2469 202.317 58.4191C212.733 65.0736 216.784 92.7767 217.507 105.796C238.773 124.169 225.524 147.327 216.241 156.61L201.232 164.928L205.391 166.736C242.425 205.217 228.055 226.892 216.241 232.92C225.21 248.833 221.666 271.617 218.773 281.02L213.581 297.643L210.816 302.72C204.909 307.783 187.923 317.656 167.236 316.644C146.55 315.631 153.192 301.996 159.099 295.306H117.87C118.883 305.866 84.8988 309.931 67.7802 310.644C34.8565 306.782 58.4295 287.155 68.7368 287.155C46.3139 270.519 55.7249 245.698 65.0678 236.898V209.412C39.4623 207.531 19.3704 181.551 11.0522 167.085C11.0522 168.725 8.50544 163.468 9.01067 162.034C20.5839 129.196 47.1657 154.788 47.1657 168.725L69.7694 171.98L83.0223 168.725L57.473 152.45C54.7002 150.341 48.106 143.12 43.9108 131.113C39.7155 119.105 51.2042 107.303 57.473 102.903C54.001 82.3609 75.3148 56.6108 86.4057 46.3035L84.4166 35.6346C85.0796 27.5575 90.0585 10.861 104.669 8.691Z" fill="#CA946A"/>
<path d="M104.643 8.51189C112.038 7.41372 117.088 11.0677 120.381 16.0502C123.628 20.9624 125.181 27.1813 125.628 31.4751C129.46 31.4759 135.301 31.5033 140.581 31.5836C145.928 31.6648 150.72 31.8003 152.253 32.0194C155.248 32.4471 166.543 34.7089 170.419 35.9341C175.674 16.6237 188.081 10.6252 195.43 9.95712L195.467 9.95359L195.503 9.96559C208.691 14.3374 213.254 25.4533 213.106 35.9708C213.032 41.2281 211.782 46.3451 209.841 50.4131C207.977 54.3206 205.459 57.2893 202.705 58.4586C205.222 60.1789 207.352 63.1069 209.145 66.7175C211.009 70.4692 212.518 74.9759 213.722 79.6754C216.122 89.0381 217.316 99.1886 217.683 105.71C228.318 114.929 230.33 125.357 228.507 134.646C226.684 143.937 221.028 152.078 216.369 156.737L216.351 156.755L216.329 156.767L201.641 164.908L205.464 166.57L205.497 166.584L205.522 166.61C224.055 185.867 229.758 200.952 229.315 212.004C228.876 222.96 222.4 229.911 216.489 232.994C220.923 240.958 222.262 250.596 222.137 259.413C222.01 268.292 220.397 276.356 218.946 281.073L218.946 281.074L213.749 297.714L210.975 302.806L210.959 302.835L210.934 302.857C205.001 307.942 187.972 317.839 167.228 316.824C162.04 316.57 158.538 315.524 156.304 313.971C154.061 312.412 153.111 310.35 153.015 308.111C152.919 305.882 153.671 303.487 154.808 301.238C155.88 299.119 157.301 297.117 158.702 295.486H118.065C118.216 298.153 116.211 300.376 112.967 302.214C109.634 304.105 104.925 305.63 99.6651 306.844C89.141 309.272 76.3533 310.468 67.7879 310.824L67.7734 310.825L67.7593 310.823C59.5202 309.857 54.7645 307.9 52.4594 305.469C51.3016 304.247 50.7629 302.906 50.7161 301.52C50.6695 300.139 51.1121 298.728 51.8897 297.362C53.4435 294.631 56.3554 292.037 59.5157 290.127C62.4693 288.342 65.6688 287.138 68.217 286.99C57.2857 278.686 54.0965 268.401 54.8099 259.074C55.5282 249.681 60.2027 241.264 64.8872 236.82V209.578C52.0954 208.585 40.6933 201.616 31.4549 193.1C22.3214 184.682 15.2871 174.739 11.0957 167.52C11.0629 167.547 11.0222 167.568 10.971 167.576C10.8622 167.592 10.7697 167.538 10.7122 167.495C10.6479 167.447 10.5838 167.379 10.5218 167.303C10.2753 166.999 9.96512 166.433 9.67698 165.786C9.38705 165.134 9.11213 164.384 8.9413 163.702C8.85592 163.362 8.7955 163.035 8.77319 162.744C8.75114 162.456 8.765 162.188 8.84029 161.974C11.7419 153.741 15.5968 149.133 19.7759 147.103C23.9597 145.071 28.4282 145.642 32.5088 147.677C36.5874 149.711 40.2936 153.213 42.98 157.079C45.6248 160.884 47.2954 165.064 47.3443 168.568L69.7608 171.795L82.5683 168.65L57.3761 152.603L57.3697 152.598L57.3637 152.594C54.5601 150.461 47.9458 143.209 43.74 131.172C41.6171 125.096 43.468 119.084 46.6146 114.059C49.7307 109.082 54.1329 105.045 57.2768 102.82C55.581 92.5108 60.0599 80.9369 66.324 70.6706C72.5873 60.4056 80.6564 51.4127 86.2096 46.2389L84.2388 35.6674L84.2346 35.6434L84.2363 35.6194C84.5696 31.56 85.9862 25.3396 89.1562 19.8568C92.3276 14.3717 97.2658 9.60755 104.643 8.51189ZM120.079 16.2494C116.838 11.3467 111.912 7.79795 104.696 8.86967C97.4626 9.94398 92.6056 14.6128 89.4691 20.0377C86.3373 25.4543 84.9321 31.6072 84.5987 35.6254L86.5836 46.2699L86.602 46.3678L86.5288 46.4356C80.9933 51.5801 72.9033 60.5817 66.6326 70.8589C60.3579 81.1427 55.9268 92.6681 57.6516 102.873L57.6703 102.985L57.577 103.051C54.458 105.24 50.0371 109.274 46.9212 114.251C43.805 119.228 42.0093 125.121 44.0816 131.052C48.2629 143.02 54.8302 150.208 57.576 152.301L83.4763 168.8L69.8127 172.155L69.7784 172.164L69.7438 172.159L46.9851 168.882V168.725C46.9851 165.291 45.3443 161.114 42.683 157.285C40.0236 153.458 36.3609 150.002 32.3474 148C28.3361 146 23.9892 145.459 19.9341 147.429C15.8742 149.4 12.0665 153.908 9.18147 162.094C9.13049 162.239 9.1133 162.449 9.13379 162.716C9.15404 162.98 9.20971 163.286 9.29202 163.615C9.4566 164.271 9.72363 165.001 10.0072 165.638C10.2926 166.279 10.5873 166.81 10.8026 167.075C10.8271 167.105 10.8499 167.13 10.8697 167.151C10.8708 167.131 10.8714 167.109 10.8714 167.084V166.407L11.2091 166.994C15.3615 174.216 22.4534 184.311 31.7 192.834C40.9482 201.359 52.3355 208.295 65.0811 209.231L65.2489 209.243V236.976L65.192 237.029C60.5527 241.399 55.8847 249.763 55.1705 259.102C54.4572 268.428 57.6857 278.731 68.8446 287.01L69.2843 287.336H68.7369C66.207 287.336 62.8345 288.545 59.7028 290.437C56.5731 292.328 53.7165 294.882 52.2041 297.54C51.4487 298.868 51.034 300.213 51.0778 301.508C51.1214 302.8 51.6209 304.058 52.7218 305.22C54.9333 307.553 59.5734 309.497 67.7872 310.462C76.3402 310.105 89.0954 308.912 99.5839 306.491C104.833 305.28 109.501 303.764 112.789 301.9C116.088 300.029 117.932 297.848 117.69 295.323L117.671 295.125H159.5L159.235 295.425C157.766 297.089 156.253 299.183 155.131 301.401C154.008 303.622 153.285 305.953 153.376 308.096C153.467 310.228 154.365 312.183 156.511 313.674C158.665 315.172 162.09 316.21 167.246 316.463C187.846 317.471 204.769 307.651 210.674 302.603L213.414 297.572L218.6 280.966C220.042 276.28 221.649 268.25 221.775 259.408C221.901 250.564 220.547 240.926 216.084 233.008L215.992 232.844L216.159 232.758C222.018 229.769 228.517 222.896 228.954 211.99C229.391 201.083 223.767 186.098 205.286 166.887L200.824 164.947L216.131 156.463C220.752 151.836 226.349 143.766 228.153 134.577C229.955 125.389 227.969 115.074 217.389 105.933L217.331 105.883L217.327 105.806C216.966 99.3048 215.773 89.1363 213.372 79.7654C212.171 75.0799 210.67 70.5995 208.822 66.8785C206.972 63.1543 204.784 60.2088 202.22 58.5709L201.914 58.3753L202.255 58.2492C205.006 57.2302 207.593 54.2844 209.515 50.2574C211.433 46.2377 212.671 41.1724 212.744 35.9658C212.89 25.5653 208.393 14.6372 195.425 10.3209C188.205 10.9937 175.899 16.9292 170.719 36.2106L170.669 36.395L170.488 36.3356C166.825 35.1348 155.236 32.8108 152.202 32.3775C150.697 32.1626 145.935 32.0267 140.575 31.9452C135.222 31.8639 129.292 31.8368 125.465 31.8368H125.301L125.285 31.6736C124.865 27.4127 123.325 21.16 120.079 16.2494Z" fill="black"/>
<path d="M86.8195 78.6587C75.2465 69.8342 66.8077 78.1162 64.035 83.3602L58.6101 104.698C44.626 114.945 29.9667 141.985 83.2029 168.169L97.6693 171.063H99.6584C82.781 198.488 58.5378 259.127 96.5843 282.273C102.371 289.626 124.287 302.236 165.661 293.846C159.151 285.226 154.088 272.327 162.587 249C170.355 227.68 167.289 188.241 185.914 171.063L194.594 167.084C237.631 142.491 219.368 115.729 203.635 114.101C202.852 103.854 197.089 81.9498 180.308 76.308C159.332 69.2558 139.803 84.4453 130.219 90.4127C122.551 95.1866 116.898 96.2595 115.029 96.1993C105.987 95.8376 101.286 89.6893 86.8195 78.6587Z" fill="#F8E0BC"/>
<path d="M154.685 164.236C157.579 146.442 176.023 154.471 174.215 166.767C190.562 168.069 205.565 189.025 209.784 198.368C195.137 210.664 192.278 202.814 184.649 205.059C174.25 208.117 178.5 211.93 169.64 214.462C167.377 219.397 170.549 225.25 169.64 230.013C168.397 236.524 195.137 237.852 195.137 239.959C195.137 264.945 179.826 254.063 174.884 248.096L138.591 243.982C124.125 260.799 117.254 243.258 119.062 236.748C119.86 233.875 107.489 228.43 108.212 222.644C87.9592 211.071 100.979 196.845 110.02 191.179C116.82 172.952 142.63 165.622 154.685 164.236Z" fill="#71D2B8"/>
<path d="M81.9375 128.568C81.9375 136.957 75.1368 143.757 66.7478 143.757C58.3588 143.757 51.5581 136.957 51.5581 128.568C51.5581 120.179 58.3588 113.378 66.7478 113.378C75.1368 113.378 81.9375 120.179 81.9375 128.568Z" fill="#ABDAB6"/>
<path d="M194.775 133.269C194.775 142.258 186.598 149.544 176.511 149.544C166.425 149.544 158.248 142.258 158.248 133.269C158.248 124.281 166.425 116.995 176.511 116.995C186.598 116.995 194.775 124.281 194.775 133.269Z" fill="#ABDAB6"/>
<path d="M296.401 107.953C311.157 122.998 304.478 147.374 299.294 157.681C289.457 166.65 273.737 166.12 267.107 164.733L274.521 205.782C279.729 256.703 240.525 278.837 220.272 283.538V280.102L224.612 268.71C236.727 261.598 258.065 236.776 246.492 194.389C234.919 152.003 247.216 122.359 254.81 112.835C262.526 104.939 281.646 92.9078 296.401 107.953Z" fill="#FBE4C3"/>
<path d="M209.768 48.4817C207.441 58.6957 200.516 62.0032 192.569 59.4059C184.818 56.2197 184.796 45.2355 188.685 36.9677C192.574 28.6999 200.309 21.8851 208.281 29.3987C211.872 33.3503 213.657 40.2139 209.768 48.4817Z" fill="#FBE4C3"/>
<path d="M196.059 24.9494C197.159 24.2601 198.609 24.593 199.299 25.6932C199.988 26.7933 199.655 28.2439 198.555 28.9333C194.105 31.7212 185.657 40.9126 188.577 54.8495C188.843 56.1201 188.029 57.3663 186.758 57.6325C185.487 57.8988 184.241 57.0844 183.975 55.8136C180.53 39.3713 190.503 28.4302 196.059 24.9494Z" fill="#462414"/>
<path d="M93.3747 12.5471C96.4161 9.10014 105.088 3.11228 115.257 7.6131C120.454 9.91335 123.656 14.6618 125.572 19.277C127.5 23.9202 128.278 28.783 128.408 31.9068C128.462 33.2039 127.454 34.2992 126.157 34.3533C124.86 34.4072 123.765 33.3996 123.711 32.1024C123.6 29.4397 122.913 25.1342 121.23 21.0796C119.535 16.9969 116.981 13.5177 113.354 11.912C105.874 8.60118 99.2837 12.9566 96.9002 15.6579C94.8357 17.9976 91.8886 22.4566 90.0089 28.0073C88.1349 33.5409 87.3717 40.003 89.4223 46.4854C89.8137 47.7232 89.1279 49.044 87.8901 49.4356C86.6523 49.8271 85.3312 49.141 84.9397 47.9031C82.5057 40.2086 83.4604 32.6863 85.5556 26.4992C87.6451 20.3292 90.9185 15.3308 93.3747 12.5471Z" fill="#462414"/>
<path d="M128.399 132.554C139.847 131.616 147.042 136.081 148.087 142.089C148.309 143.368 147.452 144.585 146.173 144.808C144.894 145.03 143.677 144.174 143.454 142.895C143.052 140.584 139.398 136.37 128.784 137.24C125.035 137.547 121.583 139.449 118.712 141.887C115.848 144.321 113.747 147.136 112.727 148.909C112.079 150.034 110.642 150.421 109.517 149.773C108.391 149.125 108.005 147.688 108.652 146.563C109.922 144.357 112.361 141.114 115.668 138.304C118.97 135.499 123.324 132.97 128.399 132.554Z" fill="#462414"/>
<path d="M112.09 126.346C113.317 125.921 114.656 126.572 115.081 127.798C115.595 129.284 116.491 131.486 117.486 133.257C117.989 134.153 118.457 134.828 118.844 135.24C118.937 135.339 119.009 135.406 119.062 135.451C120.184 135.562 121.095 136.47 121.172 137.633C121.258 138.928 120.278 140.049 118.983 140.135C117.315 140.246 116.079 139.163 115.419 138.461C114.653 137.647 113.968 136.595 113.387 135.559C112.211 133.466 111.209 130.985 110.638 129.336C110.213 128.109 110.864 126.77 112.09 126.346Z" fill="#462414"/>
<path d="M279.493 128.111C280.744 127.762 282.041 128.492 282.39 129.742C282.74 130.993 282.01 132.29 280.759 132.639C273.87 134.565 270.333 141.89 269.24 151.966C268.176 161.782 269.6 173.093 271.53 181.047C274.887 190.05 279.306 214.269 271.543 242.392C267.522 256.957 258.093 267.114 248.072 273.865C238.077 280.598 227.37 284.032 220.462 285.136C219.18 285.341 217.974 284.467 217.77 283.185C217.565 281.903 218.438 280.698 219.72 280.493C226.013 279.487 236.065 276.285 245.445 269.965C254.8 263.663 263.364 254.351 267.011 241.141C274.539 213.868 270.104 190.557 267.078 182.563L267.027 182.429L266.993 182.289C264.961 173.975 263.421 162.026 264.566 151.46C265.689 141.102 269.566 130.887 279.493 128.111Z" fill="#462414"/>
<path d="M229.376 60.9137C238.92 56.6719 251.763 54.0016 267.044 57.1891C279.376 59.7614 289.412 66.3652 296.916 73.4856C304.387 80.5749 309.458 88.2798 311.881 93.3306C315.03 99.564 320.036 116.205 315.685 134.359C311.271 152.777 296.667 163.182 289.752 166.162C284.987 168.338 280.011 168.845 275.749 168.571C271.5 168.298 267.801 167.239 265.526 166.119C264.361 165.546 263.882 164.136 264.455 162.971C265.029 161.807 266.438 161.328 267.603 161.901C269.246 162.71 272.328 163.64 276.051 163.879C279.75 164.117 283.923 163.662 287.827 161.873L287.853 161.861L287.878 161.85C293.87 159.274 307.141 149.838 311.113 133.264C315.152 116.41 310.443 100.911 307.684 95.4504L307.673 95.4274L307.662 95.4045C305.495 90.8705 300.755 83.6097 293.68 76.8963C286.615 70.1924 277.333 64.138 266.084 61.7917C251.891 58.8311 240.05 61.3147 231.285 65.2102C222.438 69.1425 216.85 74.4536 215.157 76.9161C214.421 77.9859 212.958 78.257 211.888 77.5214C210.818 76.7859 210.547 75.3222 211.282 74.2524C213.568 70.9283 219.915 65.1187 229.376 60.9137Z" fill="#462414"/>
<path d="M179.78 14.8634C185.891 9.87103 192.955 8.90415 197.736 9.59357C203.633 9.9756 213.91 15.6513 215.738 33.0244C217.139 46.3257 211.707 54.859 206.47 59.3079C212.617 66.9807 216.303 76.1071 218.428 84.4867C220.592 93.021 221.176 100.929 221.03 106.024C228.711 114.904 232.356 123.173 232.86 130.793C233.379 138.651 230.536 145.476 225.979 151.179C216.973 162.449 201.02 169.688 189.258 172.965C188.008 173.314 186.711 172.582 186.363 171.332C186.014 170.081 186.745 168.785 187.996 168.436C199.381 165.264 214.205 158.38 222.306 148.244C226.302 143.243 228.594 137.542 228.168 131.103C227.741 124.631 224.545 117.07 216.886 108.427L216.249 107.709L216.297 106.75C216.526 102.193 216.062 94.2809 213.871 85.6423C211.822 77.5637 208.301 68.9969 202.563 61.954C202.254 62.1115 201.955 62.2526 201.666 62.376C200.471 62.8857 199.09 62.3308 198.581 61.1367C198.071 59.9427 198.626 58.5617 199.82 58.052C203.917 56.303 212.68 48.8735 211.063 33.5164C209.433 18.0299 200.651 14.453 197.364 14.28L197.251 14.2739L197.139 14.2573C193.484 13.709 187.746 14.427 182.755 18.5044C177.819 22.5363 173.299 30.117 172.53 43.8897C172.457 45.1859 171.348 46.178 170.051 46.1056C168.755 46.0332 167.763 44.9236 167.835 43.6273C168.658 28.9014 173.571 19.9362 179.78 14.8634Z" fill="#462414"/>
<path d="M95.4682 39.1587C125.251 23.076 158.721 30.1003 171.82 35.6255C173.016 36.1301 173.577 37.509 173.072 38.7052C172.567 39.9014 171.188 40.4622 169.992 39.9576C157.654 34.7536 125.784 28.1311 97.702 43.2956C83.7737 50.8169 74.7334 62.4743 69.0882 74.0857C63.4325 85.7189 61.2477 97.1823 60.9594 104.073L60.9064 105.343L59.8147 105.994C56.829 107.775 52.2767 111.669 49.2878 117.055C46.3424 122.363 44.9351 129.056 47.9598 136.749C51.927 146.84 57.86 153.479 66.1275 158.32C74.4976 163.221 85.3399 166.326 99.219 169.12C100.492 169.376 101.316 170.616 101.059 171.888C100.803 173.161 99.5639 173.985 98.2912 173.729C84.3225 170.917 72.832 167.694 63.752 162.377C54.5696 157.001 47.9351 149.536 43.5842 138.469C39.9545 129.237 41.6816 121.072 45.1767 114.774C48.2962 109.152 52.8391 104.968 56.3306 102.637C56.8365 95.0718 59.2295 83.611 64.8599 72.0298C70.8181 59.7746 80.4638 47.2611 95.4682 39.1587Z" fill="#462414"/>
<path d="M176.972 304.101C178.1 303.457 179.535 303.849 180.18 304.976C180.824 306.103 180.432 307.539 179.305 308.183C178.952 308.385 178.237 309.021 177.857 310.171C177.498 311.258 177.38 312.992 178.483 315.504C179.004 316.693 178.464 318.08 177.275 318.602C176.087 319.124 174.7 318.583 174.178 317.395C172.677 313.976 172.619 311.038 173.393 308.696C174.146 306.416 175.637 304.864 176.972 304.101Z" fill="#462414"/>
<path d="M160.627 249.512C161.343 248.429 162.802 248.132 163.885 248.848C164.967 249.564 165.264 251.023 164.548 252.105C162.135 255.753 159.323 262.088 158.829 269.031C158.342 275.889 160.107 283.262 166.72 289.412C167.671 290.296 167.725 291.784 166.84 292.734C165.956 293.685 164.469 293.739 163.518 292.855C155.665 285.551 153.572 276.68 154.14 268.698C154.701 260.8 157.856 253.7 160.627 249.512Z" fill="#462414"/>
<path d="M215.858 230.769C217.038 230.228 218.433 230.747 218.973 231.928C232.054 260.506 222.885 284.509 215.58 294.481C216.905 297.148 216.115 300.063 214.988 302.228C213.592 304.907 211.317 307.28 209.668 308.665L209.535 308.778L209.386 308.869C203.758 312.322 187.974 319.078 168.427 319.523C163.437 319.636 159.639 318.9 156.894 317.381C154.051 315.808 152.482 313.47 151.928 310.834C151.396 308.304 151.828 305.665 152.599 303.345C153.378 301.002 154.564 298.799 155.763 297.041L155.799 296.988L155.839 296.937C158.944 292.883 163.244 291.3 167.163 290.923C171.039 290.55 174.71 291.329 176.982 292.19C178.196 292.65 178.808 294.007 178.348 295.221C177.888 296.435 176.531 297.046 175.317 296.587C173.61 295.94 170.664 295.309 167.613 295.602C164.624 295.89 161.706 297.038 159.606 299.751C158.62 301.208 157.669 302.998 157.061 304.828C156.436 306.707 156.231 308.448 156.529 309.867C156.805 311.181 157.535 312.362 159.17 313.267C160.903 314.226 163.763 314.926 168.32 314.822C186.776 314.403 201.642 308.048 206.772 304.955C208.12 303.798 209.834 301.946 210.818 300.056C211.857 298.061 211.739 296.835 210.952 295.985L209.554 294.475L210.866 292.889C217.318 285.09 227.574 262.014 214.699 233.884C214.158 232.704 214.677 231.309 215.858 230.769Z" fill="#462414"/>
<path d="M164.757 302.119C165.78 301.32 167.257 301.501 168.057 302.524C168.856 303.547 168.675 305.025 167.652 305.824C166.351 306.84 163.611 310.517 165.532 316.038C165.958 317.264 165.31 318.604 164.083 319.031C162.857 319.457 161.518 318.809 161.091 317.583C158.382 309.795 162.2 304.117 164.757 302.119Z" fill="#462414"/>
<path d="M77.6144 180.995C78.3203 179.906 79.7758 179.595 80.8654 180.3C81.955 181.006 82.266 182.462 81.5601 183.552C78.5644 188.176 74.2348 196.487 71.1257 206.204C68.01 215.941 66.1914 226.87 67.9774 236.831L68.2257 238.217L67.121 239.09C62.0442 243.102 56.7706 251.955 56.5944 261.443C56.5074 266.123 57.6595 270.931 60.6687 275.418C63.6829 279.912 68.6498 284.216 76.398 287.726L74.7098 292.105C71.199 290.979 64.9655 290.952 60.0619 292.85C57.6468 293.785 55.7658 295.107 54.6409 296.77C53.562 298.365 53.0224 300.5 53.6739 303.468C53.7616 303.867 54.2056 304.776 55.8693 305.771C57.5165 306.757 60.197 307.715 64.3015 308.23C72.5061 309.259 85.9496 308.459 106.965 303.158C108.516 302.661 111.035 301.594 113.168 300.034C114.689 298.921 115.798 297.722 116.382 296.476C114.35 295.808 112.395 295.057 110.546 294.265C104.127 291.515 98.8412 288.208 95.8821 285.949C94.8502 285.161 94.6524 283.686 95.4402 282.654C96.2281 281.622 97.7031 281.424 98.7351 282.212C101.382 284.233 106.331 287.345 112.398 289.944C118.473 292.547 125.514 294.568 132.389 294.569C146.827 294.569 159.602 292.659 164.099 291.724C165.37 291.46 166.615 292.277 166.879 293.548C167.143 294.819 166.326 296.064 165.055 296.328C160.269 297.322 147.173 299.27 132.389 299.27C128.508 299.27 124.637 298.702 120.934 297.788C119.943 300.381 117.913 302.389 115.943 303.829C113.265 305.788 110.213 307.063 108.324 307.66L108.258 307.681L108.192 307.697C86.8635 313.084 72.753 314.029 63.7163 312.896C59.1953 312.328 55.8315 311.227 53.4553 309.806C51.0955 308.394 49.5366 306.547 49.0818 304.476C48.1852 300.391 48.8685 296.913 50.7467 294.136C52.579 291.427 55.3894 289.618 58.3642 288.466C60.5753 287.61 62.9937 287.072 65.3936 286.812C61.7128 284.137 58.872 281.179 56.7639 278.036C53.166 272.671 51.7909 266.898 51.8939 261.356C52.0854 251.045 57.3898 241.445 63.1282 236.309C61.5431 225.688 63.5452 214.468 66.6477 204.771C69.8888 194.642 74.4017 185.955 77.6144 180.995Z" fill="#462414"/>
<path d="M68.817 102.643C69.1532 101.389 70.4422 100.645 71.6962 100.981C77.4439 102.521 91.8198 105.403 103.313 104.702C104.609 104.623 105.724 105.61 105.803 106.906C105.882 108.201 104.895 109.316 103.599 109.395C91.3677 110.141 76.4251 107.116 70.4791 105.522C69.2251 105.186 68.481 103.897 68.817 102.643Z" fill="#462414"/>
<path d="M100.744 113.74C100.744 118.933 96.7581 123.143 92.0643 123.143C87.3704 123.143 83.7461 118.933 83.7461 113.74C83.7461 108.546 83.7461 104.698 92.0643 104.336C102.191 105.602 100.744 108.546 100.744 113.74Z" fill="#462414"/>
<path d="M128.775 106.871C128.835 105.574 129.936 104.572 131.233 104.632C138.004 104.95 154.78 104.788 167.68 101.679C168.942 101.374 170.211 102.151 170.516 103.413C170.82 104.675 170.043 105.945 168.781 106.25C155.254 109.51 137.969 109.655 131.013 109.329C129.716 109.268 128.714 108.168 128.775 106.871Z" fill="#462414"/>
<path d="M165.842 108.676C167.937 117.356 162.226 122.419 157.343 122.961C151.014 123.504 148.663 120.43 147.759 115.367C146.855 110.303 146.699 106.027 154.812 104.155C167.609 104.155 163.747 99.9962 165.842 108.676Z" fill="#462414"/>
<path d="M123.89 119.526C124.871 122.961 118.671 130.195 112.678 130.195C106.686 130.195 101.829 124.867 101.829 120.972C101.829 117.077 107.41 115.547 113.402 115.547C119.394 115.547 123.166 116.994 123.89 119.526Z" fill="#462414"/>
<path d="M31.3174 148.764C31.4487 147.472 32.6023 146.531 33.8939 146.663C39.2851 147.211 42.8819 151.149 45.1251 155.165C47.0628 158.634 48.2147 162.533 48.7713 165.513C58.7633 169.013 64.4278 170.024 68.4793 169.735C72.5893 169.441 75.2382 167.819 79.6681 165.235C80.7895 164.581 82.2289 164.959 82.8831 166.081C83.5373 167.202 83.1586 168.641 82.0373 169.296C77.7875 171.775 74.1976 174.04 68.8141 174.425C63.5449 174.801 56.7743 173.381 45.883 169.478L44.5402 168.997L44.3467 167.584C43.984 164.933 42.9336 160.883 41.0207 157.458C39.0838 153.991 36.5623 151.66 33.4185 151.34C32.1269 151.209 31.1861 150.055 31.3174 148.764Z" fill="#462414"/>
<path d="M15.2493 146.713C17.0837 144.781 21.5117 142.781 28.0006 144.171C31.9374 145.015 34.2396 147.622 35.4574 150.336C36.6404 152.973 36.8672 155.814 36.7235 157.681C36.6239 158.975 35.4938 159.944 34.1994 159.845C32.9049 159.745 31.9362 158.615 32.0358 157.32C32.1332 156.053 31.9619 154.03 31.168 152.261C30.4088 150.569 29.1546 149.227 27.0156 148.769C21.6046 147.609 18.9841 149.566 18.6304 149.982L18.4495 150.194L18.2242 150.359C15.9069 152.048 11.2946 157.797 13.339 166.358C13.9406 168.877 15.9846 172.55 19.3597 176.811C22.6843 181.008 27.134 185.567 32.2685 189.85C42.6035 198.47 55.3675 205.683 66.9888 206.879C68.2803 207.012 69.2193 208.167 69.0864 209.459C68.9534 210.75 67.7988 211.689 66.5074 211.556C53.5359 210.221 39.8985 202.335 29.2573 193.46C23.9037 188.995 19.2214 184.208 15.6746 179.73C12.1782 175.317 9.61092 170.988 8.76596 167.45C6.23129 156.836 11.7625 149.383 15.2493 146.713Z" fill="#462414"/>
<path d="M25.7151 155.444C27.587 154.467 30.0505 153.815 32.7794 154.497C37.6556 155.716 40.058 159.319 40.7416 161.376C41.5374 163.286 41.9816 167.315 38.8436 170.822C37.9779 171.79 36.4919 171.872 35.5244 171.006C34.5568 170.141 34.4743 168.655 35.34 167.687C37.0425 165.784 36.6481 163.73 36.3946 163.167L36.3332 163.03L36.2894 162.887C36.0631 162.143 34.7501 159.836 31.6394 159.058C30.3178 158.727 29.0443 159.009 27.8903 159.612C26.7095 160.228 25.8087 161.106 25.393 161.646C24.6014 162.675 23.1254 162.868 22.0964 162.077C21.0673 161.285 20.8747 159.809 21.6662 158.78C22.456 157.753 23.8701 156.407 25.7151 155.444Z" fill="#462414"/>
<path d="M33.9058 168.125C34.7169 167.692 35.5865 167.654 36.3555 167.878C37.6394 168.252 38.5247 169.317 39.0259 170.007C40.1645 171.575 41.122 173.826 41.6585 175.341C42.0919 176.565 41.4512 177.908 40.2274 178.342C39.0036 178.775 37.6602 178.134 37.2268 176.911C36.7746 175.634 36.0731 174.043 35.3849 173.006C34.7104 173.325 33.896 173.318 33.2016 172.916C32.078 172.266 31.6946 170.828 32.3451 169.704C32.673 169.138 33.164 168.52 33.9058 168.125Z" fill="#462414"/>
<path d="M210.046 194.607C211.024 193.753 212.509 193.854 213.363 194.832C214.217 195.81 214.116 197.295 213.138 198.149C210.991 200.024 207.425 203.088 204.199 205.602C202.594 206.852 201.019 208.008 199.722 208.817C199.083 209.215 198.429 209.58 197.826 209.823C197.528 209.943 197.156 210.068 196.751 210.128C196.385 210.182 195.7 210.228 194.989 209.873C193.809 209.283 190.854 207.437 187.586 206.946C186.017 206.711 184.606 206.838 183.43 207.443C182.296 208.026 181.082 209.207 180.159 211.67C179.703 212.886 178.348 213.501 177.132 213.046C175.917 212.59 175.301 211.235 175.757 210.019C177.003 206.696 178.905 204.484 181.279 203.262C183.613 202.061 186.106 201.97 188.285 202.297C191.734 202.815 194.978 204.513 196.414 205.3C196.628 205.189 196.901 205.034 197.236 204.826C198.322 204.15 199.742 203.114 201.309 201.892C204.427 199.463 207.913 196.47 210.046 194.607Z" fill="#462414"/>
<path d="M168.229 213.279C170.859 210.258 174.365 209.716 177.335 210.11C180.246 210.496 182.909 211.791 184.516 212.874C185.592 213.599 185.876 215.06 185.151 216.137C184.425 217.214 182.964 217.498 181.888 216.773C180.722 215.987 178.737 215.039 176.717 214.771C174.757 214.511 173.049 214.904 171.774 216.367C170.92 217.348 170.772 218.126 170.83 218.733C170.896 219.423 171.266 220.242 172.033 221.135C173.608 222.969 176.242 224.403 177.985 224.839C179.245 225.154 180.01 226.43 179.696 227.69C179.381 228.949 178.105 229.715 176.845 229.4C174.249 228.751 170.734 226.839 168.466 224.198C167.312 222.854 166.338 221.153 166.149 219.18C165.953 217.126 166.642 215.101 168.229 213.279Z" fill="#462414"/>
<path d="M202.185 165.211C203.119 164.31 204.607 164.337 205.508 165.271C220.308 180.615 227.372 190.754 230.618 198.191C233.947 205.819 233.208 210.543 232.924 214.451C232.7 217.525 231.209 220.888 228.92 224.073C226.605 227.293 223.36 230.495 219.373 233.257C211.392 238.784 200.299 242.636 187.463 241.21C177.168 240.066 171.365 237.077 168.678 233.204C165.903 229.205 166.873 224.911 168.644 222.48C169.409 221.431 170.879 221.2 171.929 221.965C172.978 222.73 173.208 224.2 172.444 225.249C171.624 226.375 171.113 228.466 172.541 230.523C174.056 232.707 178.139 235.444 187.982 236.537C199.559 237.824 209.533 234.352 216.696 229.391C220.281 226.909 223.128 224.076 225.102 221.329C227.102 218.546 228.097 216.009 228.235 214.11C228.517 210.231 229.135 206.546 226.309 200.072C223.401 193.408 216.801 183.752 202.125 168.536C201.223 167.601 201.25 166.113 202.185 165.211Z" fill="#462414"/>
<path d="M110.418 82.5331C110.775 81.2848 112.076 80.562 113.325 80.9187C114.573 81.2754 115.296 82.5767 114.939 83.825C114.656 84.8165 114.274 86.3739 114.052 87.7888C113.94 88.5012 113.879 89.11 113.877 89.5625C113.876 89.7397 113.884 89.8612 113.892 89.9351C114.407 91.0012 114.048 92.3062 113.021 92.9481C111.92 93.6362 110.469 93.3017 109.781 92.2008C109.462 91.6898 109.328 91.1545 109.263 90.7644C109.193 90.3499 109.173 89.9265 109.175 89.5339C109.18 88.7497 109.278 87.8825 109.407 87.0595C109.667 85.4033 110.099 83.6513 110.418 82.5331Z" fill="#462414"/>
<path d="M120.498 81.6401C120.749 80.3663 121.985 79.5367 123.259 79.7873C124.533 80.038 125.362 81.2739 125.112 82.5478C124.778 84.2451 124.494 86.8609 124.694 89.1438C124.795 90.2883 125.007 91.2126 125.302 91.8626C125.59 92.4982 125.866 92.685 126.029 92.7502C127.234 93.2324 127.821 94.6005 127.338 95.8059C126.856 97.0114 125.488 97.5977 124.283 97.1155C122.637 96.4574 121.624 95.1371 121.02 93.8044C120.422 92.4862 120.137 90.9803 120.011 89.5557C119.76 86.7001 120.109 83.6197 120.498 81.6401Z" fill="#462414"/>
<path d="M150.257 175.255C155.434 174.371 168.458 173.654 179.694 177.905C180.908 178.365 181.52 179.722 181.06 180.936C180.601 182.15 179.244 182.762 178.03 182.303C167.856 178.453 155.756 179.086 151.048 179.89C149.768 180.108 148.554 179.248 148.335 177.968C148.117 176.688 148.977 175.474 150.257 175.255Z" fill="#421F10"/>
<path d="M153.544 162.209C154.838 162.108 155.97 163.075 156.071 164.37C156.172 165.664 155.204 166.795 153.91 166.896C127.105 168.991 115.396 185.154 112.915 192.435C112.496 193.664 111.16 194.321 109.931 193.902C108.703 193.483 108.046 192.148 108.465 190.919C111.529 181.926 124.798 164.455 153.544 162.209Z" fill="#421F10"/>
<path d="M164.627 151.171C172.588 151.341 176.084 156.541 176.803 159.643L176.844 159.812C177.262 161.64 177.637 165.759 175.922 169.361C175.363 170.533 173.961 171.03 172.788 170.472C171.616 169.914 171.118 168.511 171.677 167.339C172.799 164.981 172.532 161.944 172.242 160.783L172.234 160.753L172.228 160.723C171.951 159.476 170.112 155.991 164.527 155.872C161.444 155.806 159.553 157.519 158.481 159.825C157.933 161.002 157.638 162.28 157.565 163.412C157.488 164.603 157.671 165.376 157.819 165.671C158.399 166.832 157.929 168.244 156.767 168.825C155.606 169.405 154.194 168.935 153.613 167.773C152.947 166.441 152.769 164.727 152.873 163.11C152.981 161.434 153.409 159.581 154.217 157.842C155.857 154.317 159.21 151.056 164.627 151.171Z" fill="#421F10"/>
<path d="M172.451 165.689C172.821 164.445 174.131 163.737 175.375 164.108C180.191 165.543 187.588 168.885 194.423 174.306C201.265 179.733 207.702 187.371 210.255 197.427C210.574 198.686 209.813 199.965 208.555 200.284C207.296 200.604 206.017 199.843 205.698 198.584C203.477 189.835 197.827 183.007 191.502 177.99C185.17 172.968 178.317 169.891 174.032 168.614C172.788 168.243 172.08 166.934 172.451 165.689Z" fill="#421F10"/>
<path d="M108.475 220.248C109.773 220.224 110.845 221.256 110.87 222.554C110.909 224.593 113.091 231.326 123.551 235.809C124.744 236.32 125.297 237.702 124.785 238.895C124.274 240.089 122.892 240.642 121.698 240.13C109.88 235.065 106.251 226.874 106.169 222.644C106.144 221.346 107.177 220.273 108.475 220.248Z" fill="#421F10"/>
<path d="M117.869 236.121C118.291 234.893 119.628 234.24 120.856 234.661C122.084 235.083 122.738 236.42 122.316 237.648C121.696 239.453 121.235 242.094 121.646 244.23C121.845 245.261 122.221 246.044 122.749 246.592C123.252 247.113 124.051 247.588 125.43 247.75C130.016 248.29 131.539 247.949 132.446 247.432C132.934 247.154 133.401 246.737 134.111 245.97C134.771 245.257 135.708 244.165 136.875 242.998L137.906 241.967L139.287 242.432C145.513 244.527 161.625 247.875 175.792 244.542C177.056 244.244 178.321 245.028 178.619 246.292C178.916 247.556 178.133 248.821 176.869 249.118C162.524 252.494 146.675 249.57 139.219 247.341C138.62 247.986 138.116 248.565 137.56 249.165C136.779 250.008 135.912 250.869 134.773 251.518C132.425 252.854 129.517 252.965 124.881 252.42C122.572 252.148 120.72 251.261 119.365 249.857C118.036 248.479 117.348 246.773 117.029 245.118C116.406 241.879 117.102 238.355 117.869 236.121Z" fill="#421F10"/>
<path d="M194.491 237.979C195.784 237.863 196.926 238.818 197.041 240.111C197.429 244.45 196.473 248.8 194.254 252.175C192.006 255.596 188.443 258.012 183.859 258.211C180.058 258.376 177.338 256.754 175.585 254.652C173.907 252.639 173.134 250.228 172.915 248.559C172.746 247.272 173.652 246.092 174.939 245.923C176.226 245.753 177.407 246.66 177.576 247.947C177.704 248.922 178.199 250.446 179.196 251.641C180.118 252.747 181.481 253.608 183.655 253.514C186.54 253.389 188.797 251.919 190.326 249.593C191.885 247.221 192.665 243.961 192.359 240.53C192.243 239.237 193.198 238.094 194.491 237.979Z" fill="#421F10"/>
<path d="M139.803 196.559C139.803 199.855 137.541 202.707 135.644 202.707C133.746 202.707 132.208 201.12 132.208 197.825C132.208 194.529 133.746 191.857 135.644 191.857C137.541 191.857 139.803 193.263 139.803 196.559Z" fill="#482415"/>
<path d="M119.55 209.217C119.55 211.194 118.465 213.376 116.657 213.376C114.986 213.376 114.573 212.316 114.573 210.338C114.573 208.361 115.572 205.239 117.199 205.239C119.007 205.239 119.912 206.866 119.55 209.217Z" fill="#482415"/>
<path d="M109.539 207.951C109.539 209.929 108.561 211.568 106.732 211.568C104.903 211.568 104.541 209.217 104.903 207.59C105.084 205.6 105.446 204.335 107.189 203.973C108.959 203.606 109.901 205.6 109.539 207.951Z" fill="#482415"/>
<path d="M95.6807 208.132C95.6807 198.944 102.914 190.411 113.221 190.411C125.337 190.411 130.942 200.029 130.942 209.217C130.942 218.405 123.348 225.854 112.679 225.13C101.648 225.13 95.6807 218.44 95.6807 208.132ZM100.382 208.132C100.382 212.394 101.603 215.351 103.419 217.224C105.211 219.072 108.128 220.429 112.679 220.429H112.838L112.997 220.439C121.105 220.989 126.241 215.53 126.241 209.217C126.241 205.513 125.101 201.922 122.991 199.351C120.983 196.904 117.894 195.113 113.221 195.113C105.764 195.113 100.382 201.28 100.382 208.132Z" fill="#452213"/>
<path d="M38.5387 130.376C38.5387 139.564 31.3333 147.012 22.4449 147.012C13.5565 147.012 6.35107 139.564 6.35107 130.376C6.35107 121.188 13.5565 113.74 22.4449 113.74C31.3333 113.74 38.5387 121.188 38.5387 130.376Z" fill="#F4CB52"/>
<path d="M36.1877 130.376C36.1877 122.412 29.9618 116.09 22.4446 116.09C14.9274 116.09 8.70157 122.412 8.70157 130.376C8.70157 138.34 14.9274 144.661 22.4446 144.661C29.9618 144.661 36.1877 138.34 36.1877 130.376ZM40.8892 130.376C40.8892 140.788 32.7041 149.363 22.4446 149.363C12.1851 149.363 4 140.788 4 130.376C4 119.964 12.1851 111.389 22.4446 111.389C32.7041 111.389 40.8892 119.964 40.8892 130.376Z" fill="#401D0F"/>
<path d="M21.3046 120.792C22.6029 120.792 23.6553 121.844 23.6553 123.142C23.6553 124.387 22.6879 125.405 21.4638 125.487C21.4226 125.511 21.3487 125.559 21.2431 125.65C20.9595 125.895 20.6052 126.32 20.2708 126.917C19.5913 128.132 19.2031 129.677 19.3804 131.042C19.7014 133.512 19.9272 134.42 20.3587 134.972C20.6779 135.38 21.4386 135.96 24.2014 136.368C25.4857 136.558 26.3734 137.753 26.1838 139.037C25.9942 140.321 24.7991 141.209 23.5148 141.019C20.49 140.573 18.144 139.773 16.6546 137.867C15.2776 136.106 14.9932 133.766 14.7181 131.648C14.3848 129.083 15.1026 126.526 16.1679 124.622C16.7058 123.661 17.3838 122.771 18.1694 122.093C18.9156 121.448 19.9984 120.792 21.3046 120.792Z" fill="#412111"/>
</g>
<defs>
<filter id="filter0_d_437_1443" x="0" y="0" width="333.386" height="333.534" filterUnits="userSpaceOnUse" color-interpolation-filters="sRGB">
<feFlood flood-opacity="0" result="BackgroundImageFix"/>
<feColorMatrix in="SourceAlpha" type="matrix" values="0 0 0 0 0 0 0 0 0 0 0 0 0 0 0 0 0 0 127 0" result="hardAlpha"/>
<feOffset dx="6" dy="4"/>
<feGaussianBlur stdDeviation="5"/>
<feComposite in2="hardAlpha" operator="out"/>
<feColorMatrix type="matrix" values="0 0 0 0 0 0 0 0 0 0 0 0 0 0 0 0 0 0 0.25 0"/>
<feBlend mode="normal" in2="BackgroundImageFix" result="effect1_dropShadow_437_1443"/>
<feBlend mode="normal" in="SourceGraphic" in2="effect1_dropShadow_437_1443" result="shape"/>
</filter>
</defs>
</svg>
